<?xml version="1.0" encoding="utf-8" standalone="no"?>
<!DOCTYPE svg PUBLIC "-//W3C//DTD SVG 1.1//EN"
  "http://www.w3.org/Graphics/SVG/1.1/DTD/svg11.dtd">
<svg xmlns:xlink="http://www.w3.org/1999/xlink" width="518.4pt" height="532.8pt" viewBox="0 0 518.4 532.8" xmlns="http://www.w3.org/2000/svg" version="1.1">
 <metadata>
  <rdf:RDF xmlns:dc="http://purl.org/dc/elements/1.1/" xmlns:cc="http://creativecommons.org/ns#" xmlns:rdf="http://www.w3.org/1999/02/22-rdf-syntax-ns#">
   <cc:Work>
    <dc:type rdf:resource="http://purl.org/dc/dcmitype/StillImage"/>
    <dc:date>2026-09-27T19:01:11.461129</dc:date>
    <dc:format>image/svg+xml</dc:format>
    <dc:creator>
     <cc:Agent>
      <dc:title>Matplotlib v3.11.2, https://matplotlib.org/</dc:title>
     </cc:Agent>
    </dc:creator>
   </cc:Work>
  </rdf:RDF>
 </metadata>
 <defs>
  <style type="text/css">*{stroke-linejoin: round; stroke-linecap: butt}</style>
 </defs>
 <g id="figure_1">
  <g id="patch_1">
   <path d="M 0 532.8 
L 518.4 532.8 
L 518.4 0 
L 0 0 
z
" style="fill: #ffffff"/>
  </g>
  <g id="axes_1">
   <g id="patch_2">
    <path d="M 118.133678 250.379492 
L 515.39976 250.379492 
L 515.39976 56.132048 
L 118.133678 56.132048 
z
" style="fill: #ffffff"/>
   </g>
   <g id="patch_3">
    <path d="M 118.133678 64.961477 
L 364.453746 64.961477 
L 364.453746 80.317007 
L 118.133678 80.317007 
z
" clip-path="url(#p8d882b9ef5)" style="fill: #17618b"/>
   </g>
   <g id="patch_4">
    <path d="M 118.133678 112.947506 
L 370.67553 112.947506 
L 370.67553 128.303035 
L 118.133678 128.303035 
z
" clip-path="url(#p8d882b9ef5)" style="fill: #17618b"/>
   </g>
   <g id="patch_5">
    <path d="M 118.133678 160.933535 
L 345.17243 160.933535 
L 345.17243 176.289064 
L 118.133678 176.289064 
z
" clip-path="url(#p8d882b9ef5)" style="fill: #17618b"/>
   </g>
   <g id="patch_6">
    <path d="M 0 0 
z
" clip-path="url(#p8d882b9ef5)" style="fill: #17618b"/>
   </g>
   <g id="patch_7">
    <path d="M 118.133678 82.236448 
L 406.15864 82.236448 
L 406.15864 97.591977 
L 118.133678 97.591977 
z
" clip-path="url(#p8d882b9ef5)" style="fill: url(#hd2658c1424)"/>
   </g>
   <g id="patch_8">
    <path d="M 118.133678 130.222476 
L 391.487414 130.222476 
L 391.487414 145.578006 
L 118.133678 145.578006 
z
" clip-path="url(#p8d882b9ef5)" style="fill: url(#hd2658c1424)"/>
   </g>
   <g id="patch_9">
    <path d="M 118.133678 178.208505 
L 340.936383 178.208505 
L 340.936383 193.564034 
L 118.133678 193.564034 
z
" clip-path="url(#p8d882b9ef5)" style="fill: url(#hd2658c1424)"/>
   </g>
   <g id="patch_10">
    <path d="M 118.133678 226.194534 
L 204.31926 226.194534 
L 204.31926 241.550063 
L 118.133678 241.550063 
z
" clip-path="url(#p8d882b9ef5)" style="fill: url(#hd2658c1424)"/>
   </g>
   <g id="matplotlib.axis_1">
    <g id="xtick_1">
     <g id="line2d_1">
      <defs>
       <path id="ma098041f87" d="M 0 0 
L 0 3.5 
" style="stroke: #000000; stroke-width: 0.8"/>
      </defs>
      <g>
       <use xlink:href="#ma098041f87" x="118.133678" y="250.379492" style="stroke: #000000; stroke-width: 0.8"/>
      </g>
     </g>
     <g id="text_1">
      <!-- 0.0 -->
      <g transform="translate(110.182115 264.977148) scale(0.1 -0.1)">
       <defs>
        <path id="DejaVuSans-13" d="M 2034 4250 
Q 1547 4250 1301 3770 
Q 1056 3291 1056 2328 
Q 1056 1369 1301 889 
Q 1547 409 2034 409 
Q 2525 409 2770 889 
Q 3016 1369 3016 2328 
Q 3016 3291 2770 3770 
Q 2525 4250 2034 4250 
z
M 2034 4750 
Q 2819 4750 3233 4129 
Q 3647 3509 3647 2328 
Q 3647 1150 3233 529 
Q 2819 -91 2034 -91 
Q 1250 -91 836 529 
Q 422 1150 422 2328 
Q 422 3509 836 4129 
Q 1250 4750 2034 4750 
z
" transform="scale(0.015625)"/>
        <path id="DejaVuSans-11" d="M 684 794 
L 1344 794 
L 1344 0 
L 684 0 
L 684 794 
z
" transform="scale(0.015625)"/>
       </defs>
       <use xlink:href="#DejaVuSans-13"/>
       <use xlink:href="#DejaVuSans-11" transform="translate(63.625 0)"/>
       <use xlink:href="#DejaVuSans-13" transform="translate(95.40625 0)"/>
      </g>
     </g>
    </g>
    <g id="xtick_2">
     <g id="line2d_2">
      <g>
       <use xlink:href="#ma098041f87" x="187.223431" y="250.379492" style="stroke: #000000; stroke-width: 0.8"/>
      </g>
     </g>
     <g id="text_2">
      <!-- 0.2 -->
      <g transform="translate(179.271868 264.977148) scale(0.1 -0.1)">
       <defs>
        <path id="DejaVuSans-15" d="M 1228 531 
L 3431 531 
L 3431 0 
L 469 0 
L 469 531 
Q 828 903 1448 1529 
Q 2069 2156 2228 2338 
Q 2531 2678 2651 2914 
Q 2772 3150 2772 3378 
Q 2772 3750 2511 3984 
Q 2250 4219 1831 4219 
Q 1534 4219 1204 4116 
Q 875 4013 500 3803 
L 500 4441 
Q 881 4594 1212 4672 
Q 1544 4750 1819 4750 
Q 2544 4750 2975 4387 
Q 3406 4025 3406 3419 
Q 3406 3131 3298 2873 
Q 3191 2616 2906 2266 
Q 2828 2175 2409 1742 
Q 1991 1309 1228 531 
z
" transform="scale(0.015625)"/>
       </defs>
       <use xlink:href="#DejaVuSans-13"/>
       <use xlink:href="#DejaVuSans-11" transform="translate(63.625 0)"/>
       <use xlink:href="#DejaVuSans-15" transform="translate(95.40625 0)"/>
      </g>
     </g>
    </g>
    <g id="xtick_3">
     <g id="line2d_3">
      <g>
       <use xlink:href="#ma098041f87" x="256.313184" y="250.379492" style="stroke: #000000; stroke-width: 0.8"/>
      </g>
     </g>
     <g id="text_3">
      <!-- 0.4 -->
      <g transform="translate(248.361622 264.977148) scale(0.1 -0.1)">
       <defs>
        <path id="DejaVuSans-17" d="M 2419 4116 
L 825 1625 
L 2419 1625 
L 2419 4116 
z
M 2253 4666 
L 3047 4666 
L 3047 1625 
L 3713 1625 
L 3713 1100 
L 3047 1100 
L 3047 0 
L 2419 0 
L 2419 1100 
L 313 1100 
L 313 1709 
L 2253 4666 
z
" transform="scale(0.015625)"/>
       </defs>
       <use xlink:href="#DejaVuSans-13"/>
       <use xlink:href="#DejaVuSans-11" transform="translate(63.625 0)"/>
       <use xlink:href="#DejaVuSans-17" transform="translate(95.40625 0)"/>
      </g>
     </g>
    </g>
    <g id="xtick_4">
     <g id="line2d_4">
      <g>
       <use xlink:href="#ma098041f87" x="325.402938" y="250.379492" style="stroke: #000000; stroke-width: 0.8"/>
      </g>
     </g>
     <g id="text_4">
      <!-- 0.6 -->
      <g transform="translate(317.451375 264.977148) scale(0.1 -0.1)">
       <defs>
        <path id="DejaVuSans-19" d="M 2113 2584 
Q 1688 2584 1439 2293 
Q 1191 2003 1191 1497 
Q 1191 994 1439 701 
Q 1688 409 2113 409 
Q 2538 409 2786 701 
Q 3034 994 3034 1497 
Q 3034 2003 2786 2293 
Q 2538 2584 2113 2584 
z
M 3366 4563 
L 3366 3988 
Q 3128 4100 2886 4159 
Q 2644 4219 2406 4219 
Q 1781 4219 1451 3797 
Q 1122 3375 1075 2522 
Q 1259 2794 1537 2939 
Q 1816 3084 2150 3084 
Q 2853 3084 3261 2657 
Q 3669 2231 3669 1497 
Q 3669 778 3244 343 
Q 2819 -91 2113 -91 
Q 1303 -91 875 529 
Q 447 1150 447 2328 
Q 447 3434 972 4092 
Q 1497 4750 2381 4750 
Q 2619 4750 2861 4703 
Q 3103 4656 3366 4563 
z
" transform="scale(0.015625)"/>
       </defs>
       <use xlink:href="#DejaVuSans-13"/>
       <use xlink:href="#DejaVuSans-11" transform="translate(63.625 0)"/>
       <use xlink:href="#DejaVuSans-19" transform="translate(95.40625 0)"/>
      </g>
     </g>
    </g>
    <g id="xtick_5">
     <g id="line2d_5">
      <g>
       <use xlink:href="#ma098041f87" x="394.492691" y="250.379492" style="stroke: #000000; stroke-width: 0.8"/>
      </g>
     </g>
     <g id="text_5">
      <!-- 0.8 -->
      <g transform="translate(386.541129 264.977148) scale(0.1 -0.1)">
       <defs>
        <path id="DejaVuSans-1b" d="M 2034 2216 
Q 1584 2216 1326 1975 
Q 1069 1734 1069 1313 
Q 1069 891 1326 650 
Q 1584 409 2034 409 
Q 2484 409 2743 651 
Q 3003 894 3003 1313 
Q 3003 1734 2745 1975 
Q 2488 2216 2034 2216 
z
M 1403 2484 
Q 997 2584 770 2862 
Q 544 3141 544 3541 
Q 544 4100 942 4425 
Q 1341 4750 2034 4750 
Q 2731 4750 3128 4425 
Q 3525 4100 3525 3541 
Q 3525 3141 3298 2862 
Q 3072 2584 2669 2484 
Q 3125 2378 3379 2068 
Q 3634 1759 3634 1313 
Q 3634 634 3220 271 
Q 2806 -91 2034 -91 
Q 1263 -91 848 271 
Q 434 634 434 1313 
Q 434 1759 690 2068 
Q 947 2378 1403 2484 
z
M 1172 3481 
Q 1172 3119 1398 2916 
Q 1625 2713 2034 2713 
Q 2441 2713 2670 2916 
Q 2900 3119 2900 3481 
Q 2900 3844 2670 4047 
Q 2441 4250 2034 4250 
Q 1625 4250 1398 4047 
Q 1172 3844 1172 3481 
z
" transform="scale(0.015625)"/>
       </defs>
       <use xlink:href="#DejaVuSans-13"/>
       <use xlink:href="#DejaVuSans-11" transform="translate(63.625 0)"/>
       <use xlink:href="#DejaVuSans-1b" transform="translate(95.40625 0)"/>
      </g>
     </g>
    </g>
    <g id="xtick_6">
     <g id="line2d_6">
      <g>
       <use xlink:href="#ma098041f87" x="463.582445" y="250.379492" style="stroke: #000000; stroke-width: 0.8"/>
      </g>
     </g>
     <g id="text_6">
      <!-- 1.0 -->
      <g transform="translate(455.630882 264.977148) scale(0.1 -0.1)">
       <defs>
        <path id="DejaVuSans-14" d="M 794 531 
L 1825 531 
L 1825 4091 
L 703 3866 
L 703 4441 
L 1819 4666 
L 2450 4666 
L 2450 531 
L 3481 531 
L 3481 0 
L 794 0 
L 794 531 
z
" transform="scale(0.015625)"/>
       </defs>
       <use xlink:href="#DejaVuSans-14"/>
       <use xlink:href="#DejaVuSans-11" transform="translate(63.625 0)"/>
       <use xlink:href="#DejaVuSans-13" transform="translate(95.40625 0)"/>
      </g>
     </g>
    </g>
    <g id="text_7">
     <!-- F1 macro; barras finas = desvio entre folds -->
     <g transform="translate(197.814609 279.737773) scale(0.11 -0.11)">
      <defs>
       <path id="DejaVuSans-29" d="M 628 4666 
L 3309 4666 
L 3309 4134 
L 1259 4134 
L 1259 2759 
L 3109 2759 
L 3109 2228 
L 1259 2228 
L 1259 0 
L 628 0 
L 628 4666 
z
" transform="scale(0.015625)"/>
       <path id="DejaVuSans-3" transform="scale(0.015625)"/>
       <path id="DejaVuSans-50" d="M 3328 2828 
Q 3544 3216 3844 3400 
Q 4144 3584 4550 3584 
Q 5097 3584 5394 3201 
Q 5691 2819 5691 2113 
L 5691 0 
L 5113 0 
L 5113 2094 
Q 5113 2597 4934 2840 
Q 4756 3084 4391 3084 
Q 3944 3084 3684 2787 
Q 3425 2491 3425 1978 
L 3425 0 
L 2847 0 
L 2847 2094 
Q 2847 2600 2669 2842 
Q 2491 3084 2119 3084 
Q 1678 3084 1418 2786 
Q 1159 2488 1159 1978 
L 1159 0 
L 581 0 
L 581 3500 
L 1159 3500 
L 1159 2956 
Q 1356 3278 1631 3431 
Q 1906 3584 2284 3584 
Q 2666 3584 2933 3390 
Q 3200 3197 3328 2828 
z
" transform="scale(0.015625)"/>
       <path id="DejaVuSans-44" d="M 2194 1759 
Q 1497 1759 1228 1600 
Q 959 1441 959 1056 
Q 959 750 1161 570 
Q 1363 391 1709 391 
Q 2188 391 2477 730 
Q 2766 1069 2766 1631 
L 2766 1759 
L 2194 1759 
z
M 3341 1997 
L 3341 0 
L 2766 0 
L 2766 531 
Q 2569 213 2275 61 
Q 1981 -91 1556 -91 
Q 1019 -91 701 211 
Q 384 513 384 1019 
Q 384 1609 779 1909 
Q 1175 2209 1959 2209 
L 2766 2209 
L 2766 2266 
Q 2766 2663 2505 2880 
Q 2244 3097 1772 3097 
Q 1472 3097 1187 3025 
Q 903 2953 641 2809 
L 641 3341 
Q 956 3463 1253 3523 
Q 1550 3584 1831 3584 
Q 2591 3584 2966 3190 
Q 3341 2797 3341 1997 
z
" transform="scale(0.015625)"/>
       <path id="DejaVuSans-46" d="M 3122 3366 
L 3122 2828 
Q 2878 2963 2633 3030 
Q 2388 3097 2138 3097 
Q 1578 3097 1268 2742 
Q 959 2388 959 1747 
Q 959 1106 1268 751 
Q 1578 397 2138 397 
Q 2388 397 2633 464 
Q 2878 531 3122 666 
L 3122 134 
Q 2881 22 2623 -34 
Q 2366 -91 2075 -91 
Q 1284 -91 818 406 
Q 353 903 353 1747 
Q 353 2603 823 3093 
Q 1294 3584 2113 3584 
Q 2378 3584 2631 3529 
Q 2884 3475 3122 3366 
z
" transform="scale(0.015625)"/>
       <path id="DejaVuSans-55" d="M 2631 2963 
Q 2534 3019 2420 3045 
Q 2306 3072 2169 3072 
Q 1681 3072 1420 2755 
Q 1159 2438 1159 1844 
L 1159 0 
L 581 0 
L 581 3500 
L 1159 3500 
L 1159 2956 
Q 1341 3275 1631 3429 
Q 1922 3584 2338 3584 
Q 2397 3584 2469 3576 
Q 2541 3569 2628 3553 
L 2631 2963 
z
" transform="scale(0.015625)"/>
       <path id="DejaVuSans-52" d="M 1959 3097 
Q 1497 3097 1228 2736 
Q 959 2375 959 1747 
Q 959 1119 1226 758 
Q 1494 397 1959 397 
Q 2419 397 2687 759 
Q 2956 1122 2956 1747 
Q 2956 2369 2687 2733 
Q 2419 3097 1959 3097 
z
M 1959 3584 
Q 2709 3584 3137 3096 
Q 3566 2609 3566 1747 
Q 3566 888 3137 398 
Q 2709 -91 1959 -91 
Q 1206 -91 779 398 
Q 353 888 353 1747 
Q 353 2609 779 3096 
Q 1206 3584 1959 3584 
z
" transform="scale(0.015625)"/>
       <path id="DejaVuSans-1e" d="M 750 3309 
L 1409 3309 
L 1409 2516 
L 750 2516 
L 750 3309 
z
M 750 794 
L 1409 794 
L 1409 256 
L 897 -744 
L 494 -744 
L 750 256 
L 750 794 
z
" transform="scale(0.015625)"/>
       <path id="DejaVuSans-45" d="M 3116 1747 
Q 3116 2381 2855 2742 
Q 2594 3103 2138 3103 
Q 1681 3103 1420 2742 
Q 1159 2381 1159 1747 
Q 1159 1113 1420 752 
Q 1681 391 2138 391 
Q 2594 391 2855 752 
Q 3116 1113 3116 1747 
z
M 1159 2969 
Q 1341 3281 1617 3432 
Q 1894 3584 2278 3584 
Q 2916 3584 3314 3078 
Q 3713 2572 3713 1747 
Q 3713 922 3314 415 
Q 2916 -91 2278 -91 
Q 1894 -91 1617 61 
Q 1341 213 1159 525 
L 1159 0 
L 581 0 
L 581 4863 
L 1159 4863 
L 1159 2969 
z
" transform="scale(0.015625)"/>
       <path id="DejaVuSans-56" d="M 2834 3397 
L 2834 2853 
Q 2591 2978 2328 3040 
Q 2066 3103 1784 3103 
Q 1356 3103 1142 2972 
Q 928 2841 928 2578 
Q 928 2378 1081 2264 
Q 1234 2150 1697 2047 
L 1894 2003 
Q 2506 1872 2764 1633 
Q 3022 1394 3022 966 
Q 3022 478 2636 193 
Q 2250 -91 1575 -91 
Q 1294 -91 989 -36 
Q 684 19 347 128 
L 347 722 
Q 666 556 975 473 
Q 1284 391 1588 391 
Q 1994 391 2212 530 
Q 2431 669 2431 922 
Q 2431 1156 2273 1281 
Q 2116 1406 1581 1522 
L 1381 1569 
Q 847 1681 609 1914 
Q 372 2147 372 2553 
Q 372 3047 722 3315 
Q 1072 3584 1716 3584 
Q 2034 3584 2315 3537 
Q 2597 3491 2834 3397 
z
" transform="scale(0.015625)"/>
       <path id="DejaVuSans-13af" d="M 3431 3500 
L 3431 0 
L 2853 0 
L 2853 3053 
L 1275 3053 
L 1275 0 
L 697 0 
L 697 3053 
L 147 3053 
L 147 3500 
L 697 3500 
L 697 3744 
Q 697 4316 967 4589 
Q 1238 4863 1797 4863 
L 2375 4863 
L 2375 4384 
L 1825 4384 
Q 1516 4384 1395 4259 
Q 1275 4134 1275 3809 
L 1275 3500 
L 3431 3500 
z
M 2853 4856 
L 3431 4856 
L 3431 4128 
L 2853 4128 
L 2853 4856 
z
" transform="scale(0.015625)"/>
       <path id="DejaVuSans-51" d="M 3513 2113 
L 3513 0 
L 2938 0 
L 2938 2094 
Q 2938 2591 2744 2837 
Q 2550 3084 2163 3084 
Q 1697 3084 1428 2787 
Q 1159 2491 1159 1978 
L 1159 0 
L 581 0 
L 581 3500 
L 1159 3500 
L 1159 2956 
Q 1366 3272 1645 3428 
Q 1925 3584 2291 3584 
Q 2894 3584 3203 3211 
Q 3513 2838 3513 2113 
z
" transform="scale(0.015625)"/>
       <path id="DejaVuSans-20" d="M 678 2906 
L 4684 2906 
L 4684 2381 
L 678 2381 
L 678 2906 
z
M 678 1631 
L 4684 1631 
L 4684 1100 
L 678 1100 
L 678 1631 
z
" transform="scale(0.015625)"/>
       <path id="DejaVuSans-47" d="M 2906 2969 
L 2906 4863 
L 3481 4863 
L 3481 0 
L 2906 0 
L 2906 525 
Q 2725 213 2448 61 
Q 2172 -91 1784 -91 
Q 1150 -91 751 415 
Q 353 922 353 1747 
Q 353 2572 751 3078 
Q 1150 3584 1784 3584 
Q 2172 3584 2448 3432 
Q 2725 3281 2906 2969 
z
M 947 1747 
Q 947 1113 1208 752 
Q 1469 391 1925 391 
Q 2381 391 2643 752 
Q 2906 1113 2906 1747 
Q 2906 2381 2643 2742 
Q 2381 3103 1925 3103 
Q 1469 3103 1208 2742 
Q 947 2381 947 1747 
z
" transform="scale(0.015625)"/>
       <path id="DejaVuSans-48" d="M 3597 1894 
L 3597 1613 
L 953 1613 
Q 991 1019 1311 708 
Q 1631 397 2203 397 
Q 2534 397 2845 478 
Q 3156 559 3463 722 
L 3463 178 
Q 3153 47 2828 -22 
Q 2503 -91 2169 -91 
Q 1331 -91 842 396 
Q 353 884 353 1716 
Q 353 2575 817 3079 
Q 1281 3584 2069 3584 
Q 2775 3584 3186 3129 
Q 3597 2675 3597 1894 
z
M 3022 2063 
Q 3016 2534 2758 2815 
Q 2500 3097 2075 3097 
Q 1594 3097 1305 2825 
Q 1016 2553 972 2059 
L 3022 2063 
z
" transform="scale(0.015625)"/>
       <path id="DejaVuSans-59" d="M 191 3500 
L 800 3500 
L 1894 563 
L 2988 3500 
L 3597 3500 
L 2284 0 
L 1503 0 
L 191 3500 
z
" transform="scale(0.015625)"/>
       <path id="DejaVuSans-4c" d="M 603 3500 
L 1178 3500 
L 1178 0 
L 603 0 
L 603 3500 
z
M 603 4863 
L 1178 4863 
L 1178 4134 
L 603 4134 
L 603 4863 
z
" transform="scale(0.015625)"/>
       <path id="DejaVuSans-57" d="M 1172 4494 
L 1172 3500 
L 2356 3500 
L 2356 3053 
L 1172 3053 
L 1172 1153 
Q 1172 725 1289 603 
Q 1406 481 1766 481 
L 2356 481 
L 2356 0 
L 1766 0 
Q 1100 0 847 248 
Q 594 497 594 1153 
L 594 3053 
L 172 3053 
L 172 3500 
L 594 3500 
L 594 4494 
L 1172 4494 
z
" transform="scale(0.015625)"/>
       <path id="DejaVuSans-49" d="M 2375 4863 
L 2375 4384 
L 1825 4384 
Q 1516 4384 1395 4259 
Q 1275 4134 1275 3809 
L 1275 3500 
L 2222 3500 
L 2222 3053 
L 1275 3053 
L 1275 0 
L 697 0 
L 697 3053 
L 147 3053 
L 147 3500 
L 697 3500 
L 697 3744 
Q 697 4328 969 4595 
Q 1241 4863 1831 4863 
L 2375 4863 
z
" transform="scale(0.015625)"/>
       <path id="DejaVuSans-4f" d="M 603 4863 
L 1178 4863 
L 1178 0 
L 603 0 
L 603 4863 
z
" transform="scale(0.015625)"/>
      </defs>
      <use xlink:href="#DejaVuSans-29"/>
      <use xlink:href="#DejaVuSans-14" transform="translate(57.515625 0)"/>
      <use xlink:href="#DejaVuSans-3" transform="translate(121.140625 0)"/>
      <use xlink:href="#DejaVuSans-50" transform="translate(152.921875 0)"/>
      <use xlink:href="#DejaVuSans-44" transform="translate(250.328125 0)"/>
      <use xlink:href="#DejaVuSans-46" transform="translate(311.609375 0)"/>
      <use xlink:href="#DejaVuSans-55" transform="translate(366.59375 0)"/>
      <use xlink:href="#DejaVuSans-52" transform="translate(405.5 0)"/>
      <use xlink:href="#DejaVuSans-1e" transform="translate(466.6875 0)"/>
      <use xlink:href="#DejaVuSans-3" transform="translate(500.375 0)"/>
      <use xlink:href="#DejaVuSans-45" transform="translate(532.15625 0)"/>
      <use xlink:href="#DejaVuSans-44" transform="translate(595.640625 0)"/>
      <use xlink:href="#DejaVuSans-55" transform="translate(656.921875 0)"/>
      <use xlink:href="#DejaVuSans-55" transform="translate(696.28125 0)"/>
      <use xlink:href="#DejaVuSans-44" transform="translate(737.390625 0)"/>
      <use xlink:href="#DejaVuSans-56" transform="translate(798.671875 0)"/>
      <use xlink:href="#DejaVuSans-3" transform="translate(850.765625 0)"/>
      <use xlink:href="#DejaVuSans-13af" transform="translate(882.546875 0)"/>
      <use xlink:href="#DejaVuSans-51" transform="translate(945.53125 0)"/>
      <use xlink:href="#DejaVuSans-44" transform="translate(1008.90625 0)"/>
      <use xlink:href="#DejaVuSans-56" transform="translate(1070.1875 0)"/>
      <use xlink:href="#DejaVuSans-3" transform="translate(1122.28125 0)"/>
      <use xlink:href="#DejaVuSans-20" transform="translate(1154.0625 0)"/>
      <use xlink:href="#DejaVuSans-3" transform="translate(1237.859375 0)"/>
      <use xlink:href="#DejaVuSans-47" transform="translate(1269.640625 0)"/>
      <use xlink:href="#DejaVuSans-48" transform="translate(1333.125 0)"/>
      <use xlink:href="#DejaVuSans-56" transform="translate(1394.65625 0)"/>
      <use xlink:href="#DejaVuSans-59" transform="translate(1446.75 0)"/>
      <use xlink:href="#DejaVuSans-4c" transform="translate(1505.9375 0)"/>
      <use xlink:href="#DejaVuSans-52" transform="translate(1533.71875 0)"/>
      <use xlink:href="#DejaVuSans-3" transform="translate(1594.90625 0)"/>
      <use xlink:href="#DejaVuSans-48" transform="translate(1626.6875 0)"/>
      <use xlink:href="#DejaVuSans-51" transform="translate(1688.21875 0)"/>
      <use xlink:href="#DejaVuSans-57" transform="translate(1751.59375 0)"/>
      <use xlink:href="#DejaVuSans-55" transform="translate(1790.796875 0)"/>
      <use xlink:href="#DejaVuSans-48" transform="translate(1829.703125 0)"/>
      <use xlink:href="#DejaVuSans-3" transform="translate(1891.234375 0)"/>
      <use xlink:href="#DejaVuSans-49" transform="translate(1923.015625 0)"/>
      <use xlink:href="#DejaVuSans-52" transform="translate(1958.21875 0)"/>
      <use xlink:href="#DejaVuSans-4f" transform="translate(2019.40625 0)"/>
      <use xlink:href="#DejaVuSans-47" transform="translate(2047.1875 0)"/>
      <use xlink:href="#DejaVuSans-56" transform="translate(2110.671875 0)"/>
     </g>
    </g>
   </g>
   <g id="matplotlib.axis_2">
    <g id="ytick_1">
     <g id="line2d_7">
      <defs>
       <path id="m56768d3326" d="M 0 0 
L -3.5 0 
" style="stroke: #000000; stroke-width: 0.8"/>
      </defs>
      <g>
       <use xlink:href="#m56768d3326" x="118.133678" y="81.276727" style="stroke: #000000; stroke-width: 0.8"/>
      </g>
     </g>
     <g id="text_8">
      <!-- Random Forest -->
      <g transform="translate(28.339771 85.455868) scale(0.11 -0.11)">
       <defs>
        <path id="DejaVuSans-35" d="M 2841 2188 
Q 3044 2119 3236 1894 
Q 3428 1669 3622 1275 
L 4263 0 
L 3584 0 
L 2988 1197 
Q 2756 1666 2539 1819 
Q 2322 1972 1947 1972 
L 1259 1972 
L 1259 0 
L 628 0 
L 628 4666 
L 2053 4666 
Q 2853 4666 3247 4331 
Q 3641 3997 3641 3322 
Q 3641 2881 3436 2590 
Q 3231 2300 2841 2188 
z
M 1259 4147 
L 1259 2491 
L 2053 2491 
Q 2509 2491 2742 2702 
Q 2975 2913 2975 3322 
Q 2975 3731 2742 3939 
Q 2509 4147 2053 4147 
L 1259 4147 
z
" transform="scale(0.015625)"/>
       </defs>
       <use xlink:href="#DejaVuSans-35"/>
       <use xlink:href="#DejaVuSans-44" transform="translate(67.28125 0)"/>
       <use xlink:href="#DejaVuSans-51" transform="translate(128.5625 0)"/>
       <use xlink:href="#DejaVuSans-47" transform="translate(191.9375 0)"/>
       <use xlink:href="#DejaVuSans-52" transform="translate(255.421875 0)"/>
       <use xlink:href="#DejaVuSans-50" transform="translate(316.609375 0)"/>
       <use xlink:href="#DejaVuSans-3" transform="translate(414.015625 0)"/>
       <use xlink:href="#DejaVuSans-29" transform="translate(445.796875 0)"/>
       <use xlink:href="#DejaVuSans-52" transform="translate(499.75 0)"/>
       <use xlink:href="#DejaVuSans-55" transform="translate(560.9375 0)"/>
       <use xlink:href="#DejaVuSans-48" transform="translate(599.84375 0)"/>
       <use xlink:href="#DejaVuSans-56" transform="translate(661.375 0)"/>
       <use xlink:href="#DejaVuSans-57" transform="translate(713.46875 0)"/>
      </g>
     </g>
    </g>
    <g id="ytick_2">
     <g id="line2d_8">
      <g>
       <use xlink:href="#m56768d3326" x="118.133678" y="129.262756" style="stroke: #000000; stroke-width: 0.8"/>
      </g>
     </g>
     <g id="text_9">
      <!-- Árvore de decisão * -->
      <g transform="translate(3.00024 134.363146) scale(0.11 -0.11)">
       <defs>
        <path id="DejaVuSans-83" d="M 2188 4044 
L 1331 1722 
L 3047 1722 
L 2188 4044 
z
M 1831 4666 
L 2547 4666 
L 4325 0 
L 3669 0 
L 3244 1197 
L 1141 1197 
L 716 0 
L 50 0 
L 1831 4666 
z
M 2360 5935 
L 2938 5935 
L 2225 5110 
L 1747 5110 
L 2360 5935 
z
" transform="scale(0.015625)"/>
        <path id="DejaVuSans-a5" d="M 2194 1759 
Q 1497 1759 1228 1600 
Q 959 1441 959 1056 
Q 959 750 1161 570 
Q 1363 391 1709 391 
Q 2188 391 2477 730 
Q 2766 1069 2766 1631 
L 2766 1759 
L 2194 1759 
z
M 3341 1997 
L 3341 0 
L 2766 0 
L 2766 531 
Q 2569 213 2275 61 
Q 1981 -91 1556 -91 
Q 1019 -91 701 211 
Q 384 513 384 1019 
Q 384 1609 779 1909 
Q 1175 2209 1959 2209 
L 2766 2209 
L 2766 2266 
Q 2766 2663 2505 2880 
Q 2244 3097 1772 3097 
Q 1472 3097 1187 3025 
Q 903 2953 641 2809 
L 641 3341 
Q 956 3463 1253 3523 
Q 1550 3584 1831 3584 
Q 2591 3584 2966 3190 
Q 3341 2797 3341 1997 
z
M 1844 4281 
L 1665 4453 
Q 1597 4516 1545 4545 
Q 1494 4575 1453 4575 
Q 1334 4575 1278 4461 
Q 1222 4347 1215 4091 
L 825 4091 
Q 831 4513 990 4742 
Q 1150 4972 1434 4972 
Q 1553 4972 1653 4928 
Q 1753 4884 1869 4781 
L 2047 4609 
Q 2115 4547 2167 4517 
Q 2219 4488 2259 4488 
Q 2378 4488 2434 4602 
Q 2490 4716 2497 4972 
L 2887 4972 
Q 2881 4550 2721 4320 
Q 2562 4091 2278 4091 
Q 2159 4091 2059 4134 
Q 1959 4178 1844 4281 
z
" transform="scale(0.015625)"/>
        <path id="DejaVuSans-d" d="M 3009 3897 
L 1888 3291 
L 3009 2681 
L 2828 2375 
L 1778 3009 
L 1778 1831 
L 1422 1831 
L 1422 3009 
L 372 2375 
L 191 2681 
L 1313 3291 
L 191 3897 
L 372 4206 
L 1422 3572 
L 1422 4750 
L 1778 4750 
L 1778 3572 
L 2828 4206 
L 3009 3897 
z
" transform="scale(0.015625)"/>
       </defs>
       <use xlink:href="#DejaVuSans-83"/>
       <use xlink:href="#DejaVuSans-55" transform="translate(68.40625 0)"/>
       <use xlink:href="#DejaVuSans-59" transform="translate(109.515625 0)"/>
       <use xlink:href="#DejaVuSans-52" transform="translate(168.703125 0)"/>
       <use xlink:href="#DejaVuSans-55" transform="translate(229.890625 0)"/>
       <use xlink:href="#DejaVuSans-48" transform="translate(268.796875 0)"/>
       <use xlink:href="#DejaVuSans-3" transform="translate(330.328125 0)"/>
       <use xlink:href="#DejaVuSans-47" transform="translate(362.109375 0)"/>
       <use xlink:href="#DejaVuSans-48" transform="translate(425.59375 0)"/>
       <use xlink:href="#DejaVuSans-3" transform="translate(487.125 0)"/>
       <use xlink:href="#DejaVuSans-47" transform="translate(518.90625 0)"/>
       <use xlink:href="#DejaVuSans-48" transform="translate(582.390625 0)"/>
       <use xlink:href="#DejaVuSans-46" transform="translate(643.921875 0)"/>
       <use xlink:href="#DejaVuSans-4c" transform="translate(698.90625 0)"/>
       <use xlink:href="#DejaVuSans-56" transform="translate(726.6875 0)"/>
       <use xlink:href="#DejaVuSans-a5" transform="translate(778.78125 0)"/>
       <use xlink:href="#DejaVuSans-52" transform="translate(840.0625 0)"/>
       <use xlink:href="#DejaVuSans-3" transform="translate(901.25 0)"/>
       <use xlink:href="#DejaVuSans-d" transform="translate(933.03125 0)"/>
      </g>
     </g>
    </g>
    <g id="ytick_3">
     <g id="line2d_9">
      <g>
       <use xlink:href="#m56768d3326" x="118.133678" y="177.248784" style="stroke: #000000; stroke-width: 0.8"/>
      </g>
     </g>
     <g id="text_10">
      <!-- KNN -->
      <g transform="translate(87.461334 181.427495) scale(0.11 -0.11)">
       <defs>
        <path id="DejaVuSans-2e" d="M 628 4666 
L 1259 4666 
L 1259 2694 
L 3353 4666 
L 4166 4666 
L 1850 2491 
L 4331 0 
L 3500 0 
L 1259 2247 
L 1259 0 
L 628 0 
L 628 4666 
z
" transform="scale(0.015625)"/>
        <path id="DejaVuSans-31" d="M 628 4666 
L 1478 4666 
L 3547 763 
L 3547 4666 
L 4159 4666 
L 4159 0 
L 3309 0 
L 1241 3903 
L 1241 0 
L 628 0 
L 628 4666 
z
" transform="scale(0.015625)"/>
       </defs>
       <use xlink:href="#DejaVuSans-2e"/>
       <use xlink:href="#DejaVuSans-31" transform="translate(65.578125 0)"/>
       <use xlink:href="#DejaVuSans-31" transform="translate(140.390625 0)"/>
      </g>
     </g>
    </g>
    <g id="ytick_4">
     <g id="line2d_10">
      <g>
       <use xlink:href="#m56768d3326" x="118.133678" y="225.234813" style="stroke: #000000; stroke-width: 0.8"/>
      </g>
     </g>
     <g id="text_11">
      <!-- Classe majoritária -->
      <g transform="translate(11.738365 229.633954) scale(0.11 -0.11)">
       <defs>
        <path id="DejaVuSans-26" d="M 4122 4306 
L 4122 3641 
Q 3803 3938 3442 4084 
Q 3081 4231 2675 4231 
Q 1875 4231 1450 3742 
Q 1025 3253 1025 2328 
Q 1025 1406 1450 917 
Q 1875 428 2675 428 
Q 3081 428 3442 575 
Q 3803 722 4122 1019 
L 4122 359 
Q 3791 134 3420 21 
Q 3050 -91 2638 -91 
Q 1578 -91 968 557 
Q 359 1206 359 2328 
Q 359 3453 968 4101 
Q 1578 4750 2638 4750 
Q 3056 4750 3426 4639 
Q 3797 4528 4122 4306 
z
" transform="scale(0.015625)"/>
        <path id="DejaVuSans-4d" d="M 603 3500 
L 1178 3500 
L 1178 -63 
Q 1178 -731 923 -1031 
Q 669 -1331 103 -1331 
L -116 -1331 
L -116 -844 
L 38 -844 
Q 366 -844 484 -692 
Q 603 -541 603 -63 
L 603 3500 
z
M 603 4863 
L 1178 4863 
L 1178 4134 
L 603 4134 
L 603 4863 
z
" transform="scale(0.015625)"/>
        <path id="DejaVuSans-a3" d="M 2194 1759 
Q 1497 1759 1228 1600 
Q 959 1441 959 1056 
Q 959 750 1161 570 
Q 1363 391 1709 391 
Q 2188 391 2477 730 
Q 2766 1069 2766 1631 
L 2766 1759 
L 2194 1759 
z
M 3341 1997 
L 3341 0 
L 2766 0 
L 2766 531 
Q 2569 213 2275 61 
Q 1981 -91 1556 -91 
Q 1019 -91 701 211 
Q 384 513 384 1019 
Q 384 1609 779 1909 
Q 1175 2209 1959 2209 
L 2766 2209 
L 2766 2266 
Q 2766 2663 2505 2880 
Q 2244 3097 1772 3097 
Q 1472 3097 1187 3025 
Q 903 2953 641 2809 
L 641 3341 
Q 956 3463 1253 3523 
Q 1550 3584 1831 3584 
Q 2591 3584 2966 3190 
Q 3341 2797 3341 1997 
z
M 2290 5119 
L 2912 5119 
L 1894 3944 
L 1415 3944 
L 2290 5119 
z
" transform="scale(0.015625)"/>
       </defs>
       <use xlink:href="#DejaVuSans-26"/>
       <use xlink:href="#DejaVuSans-4f" transform="translate(69.828125 0)"/>
       <use xlink:href="#DejaVuSans-44" transform="translate(97.609375 0)"/>
       <use xlink:href="#DejaVuSans-56" transform="translate(158.890625 0)"/>
       <use xlink:href="#DejaVuSans-56" transform="translate(210.984375 0)"/>
       <use xlink:href="#DejaVuSans-48" transform="translate(263.078125 0)"/>
       <use xlink:href="#DejaVuSans-3" transform="translate(324.609375 0)"/>
       <use xlink:href="#DejaVuSans-50" transform="translate(356.390625 0)"/>
       <use xlink:href="#DejaVuSans-44" transform="translate(453.796875 0)"/>
       <use xlink:href="#DejaVuSans-4d" transform="translate(515.078125 0)"/>
       <use xlink:href="#DejaVuSans-52" transform="translate(542.859375 0)"/>
       <use xlink:href="#DejaVuSans-55" transform="translate(604.046875 0)"/>
       <use xlink:href="#DejaVuSans-4c" transform="translate(645.15625 0)"/>
       <use xlink:href="#DejaVuSans-57" transform="translate(672.9375 0)"/>
       <use xlink:href="#DejaVuSans-a3" transform="translate(712.140625 0)"/>
       <use xlink:href="#DejaVuSans-55" transform="translate(773.421875 0)"/>
       <use xlink:href="#DejaVuSans-4c" transform="translate(814.53125 0)"/>
       <use xlink:href="#DejaVuSans-44" transform="translate(842.3125 0)"/>
      </g>
     </g>
    </g>
   </g>
   <g id="LineCollection_1">
    <path d="M 331.474574 72.639242 
L 397.432918 72.639242 
" clip-path="url(#p8d882b9ef5)" style="fill: none; stroke: #222222; stroke-width: 1.5"/>
    <path d="M 342.535706 120.625271 
L 398.815355 120.625271 
" clip-path="url(#p8d882b9ef5)" style="fill: none; stroke: #222222; stroke-width: 1.5"/>
    <path d="M 288.029247 168.611299 
L 402.315613 168.611299 
" clip-path="url(#p8d882b9ef5)" style="fill: none; stroke: #222222; stroke-width: 1.5"/>
    <path clip-path="url(#p8d882b9ef5)" style="fill: none; stroke: #222222; stroke-width: 1.5"/>
   </g>
   <g id="line2d_11">
    <defs>
     <path id="m578d35e5ef" d="M 0 3 
L 0 -3 
" style="stroke: #222222"/>
    </defs>
    <g clip-path="url(#p8d882b9ef5)">
     <use xlink:href="#m578d35e5ef" x="331.474574" y="72.639242" style="fill: #1f77b4; stroke: #222222"/>
     <use xlink:href="#m578d35e5ef" x="342.535706" y="120.625271" style="fill: #1f77b4; stroke: #222222"/>
     <use xlink:href="#m578d35e5ef" x="288.029247" y="168.611299" style="fill: #1f77b4; stroke: #222222"/>
    </g>
   </g>
   <g id="line2d_12">
    <g clip-path="url(#p8d882b9ef5)">
     <use xlink:href="#m578d35e5ef" x="397.432918" y="72.639242" style="fill: #1f77b4; stroke: #222222"/>
     <use xlink:href="#m578d35e5ef" x="398.815355" y="120.625271" style="fill: #1f77b4; stroke: #222222"/>
     <use xlink:href="#m578d35e5ef" x="402.315613" y="168.611299" style="fill: #1f77b4; stroke: #222222"/>
    </g>
   </g>
   <g id="patch_11">
    <path d="M 118.133678 250.379492 
L 118.133678 56.132048 
" style="fill: none; stroke: #000000; stroke-width: 0.8; stroke-linejoin: miter; stroke-linecap: square"/>
   </g>
   <g id="patch_12">
    <path d="M 118.133678 250.379492 
L 515.39976 250.379492 
" style="fill: none; stroke: #000000; stroke-width: 0.8; stroke-linejoin: miter; stroke-linecap: square"/>
   </g>
   <g id="text_12">
    <!-- 0,713 -->
    <g transform="translate(367.453746 75.236898) scale(0.1 -0.1)">
     <defs>
      <path id="DejaVuSans-f" d="M 750 794 
L 1409 794 
L 1409 256 
L 897 -744 
L 494 -744 
L 750 256 
L 750 794 
z
" transform="scale(0.015625)"/>
      <path id="DejaVuSans-1a" d="M 525 4666 
L 3525 4666 
L 3525 4397 
L 1831 0 
L 1172 0 
L 2766 4134 
L 525 4134 
L 525 4666 
z
" transform="scale(0.015625)"/>
      <path id="DejaVuSans-16" d="M 2597 2516 
Q 3050 2419 3304 2112 
Q 3559 1806 3559 1356 
Q 3559 666 3084 287 
Q 2609 -91 1734 -91 
Q 1441 -91 1130 -33 
Q 819 25 488 141 
L 488 750 
Q 750 597 1062 519 
Q 1375 441 1716 441 
Q 2309 441 2620 675 
Q 2931 909 2931 1356 
Q 2931 1769 2642 2001 
Q 2353 2234 1838 2234 
L 1294 2234 
L 1294 2753 
L 1863 2753 
Q 2328 2753 2575 2939 
Q 2822 3125 2822 3475 
Q 2822 3834 2567 4026 
Q 2313 4219 1838 4219 
Q 1578 4219 1281 4162 
Q 984 4106 628 3988 
L 628 4550 
Q 988 4650 1302 4700 
Q 1616 4750 1894 4750 
Q 2613 4750 3031 4423 
Q 3450 4097 3450 3541 
Q 3450 3153 3228 2886 
Q 3006 2619 2597 2516 
z
" transform="scale(0.015625)"/>
     </defs>
     <use xlink:href="#DejaVuSans-13"/>
     <use xlink:href="#DejaVuSans-f" transform="translate(63.625 0)"/>
     <use xlink:href="#DejaVuSans-1a" transform="translate(95.40625 0)"/>
     <use xlink:href="#DejaVuSans-14" transform="translate(159.03125 0)"/>
     <use xlink:href="#DejaVuSans-16" transform="translate(222.65625 0)"/>
    </g>
   </g>
   <g id="text_13">
    <!-- 0,731 -->
    <g transform="translate(373.67553 123.222927) scale(0.1 -0.1)">
     <use xlink:href="#DejaVuSans-13"/>
     <use xlink:href="#DejaVuSans-f" transform="translate(63.625 0)"/>
     <use xlink:href="#DejaVuSans-1a" transform="translate(95.40625 0)"/>
     <use xlink:href="#DejaVuSans-16" transform="translate(159.03125 0)"/>
     <use xlink:href="#DejaVuSans-14" transform="translate(222.65625 0)"/>
    </g>
   </g>
   <g id="text_14">
    <!-- 0,657 -->
    <g transform="translate(348.17243 171.208956) scale(0.1 -0.1)">
     <defs>
      <path id="DejaVuSans-18" d="M 691 4666 
L 3169 4666 
L 3169 4134 
L 1269 4134 
L 1269 2991 
Q 1406 3038 1543 3061 
Q 1681 3084 1819 3084 
Q 2600 3084 3056 2656 
Q 3513 2228 3513 1497 
Q 3513 744 3044 326 
Q 2575 -91 1722 -91 
Q 1428 -91 1123 -41 
Q 819 9 494 109 
L 494 744 
Q 775 591 1075 516 
Q 1375 441 1709 441 
Q 2250 441 2565 725 
Q 2881 1009 2881 1497 
Q 2881 1984 2565 2268 
Q 2250 2553 1709 2553 
Q 1456 2553 1204 2497 
Q 953 2441 691 2322 
L 691 4666 
z
" transform="scale(0.015625)"/>
     </defs>
     <use xlink:href="#DejaVuSans-13"/>
     <use xlink:href="#DejaVuSans-f" transform="translate(63.625 0)"/>
     <use xlink:href="#DejaVuSans-19" transform="translate(95.40625 0)"/>
     <use xlink:href="#DejaVuSans-18" transform="translate(159.03125 0)"/>
     <use xlink:href="#DejaVuSans-1a" transform="translate(222.65625 0)"/>
    </g>
   </g>
   <g id="text_15">
    <!-- 0,834 -->
    <g transform="translate(409.15864 92.511869) scale(0.1 -0.1)">
     <use xlink:href="#DejaVuSans-13"/>
     <use xlink:href="#DejaVuSans-f" transform="translate(63.625 0)"/>
     <use xlink:href="#DejaVuSans-1b" transform="translate(95.40625 0)"/>
     <use xlink:href="#DejaVuSans-16" transform="translate(159.03125 0)"/>
     <use xlink:href="#DejaVuSans-17" transform="translate(222.65625 0)"/>
    </g>
   </g>
   <g id="text_16">
    <!-- 0,791 -->
    <g transform="translate(394.487414 140.497897) scale(0.1 -0.1)">
     <defs>
      <path id="DejaVuSans-1c" d="M 703 97 
L 703 672 
Q 941 559 1184 500 
Q 1428 441 1663 441 
Q 2288 441 2617 861 
Q 2947 1281 2994 2138 
Q 2813 1869 2534 1725 
Q 2256 1581 1919 1581 
Q 1219 1581 811 2004 
Q 403 2428 403 3163 
Q 403 3881 828 4315 
Q 1253 4750 1959 4750 
Q 2769 4750 3195 4129 
Q 3622 3509 3622 2328 
Q 3622 1225 3098 567 
Q 2575 -91 1691 -91 
Q 1453 -91 1209 -44 
Q 966 3 703 97 
z
M 1959 2075 
Q 2384 2075 2632 2365 
Q 2881 2656 2881 3163 
Q 2881 3666 2632 3958 
Q 2384 4250 1959 4250 
Q 1534 4250 1286 3958 
Q 1038 3666 1038 3163 
Q 1038 2656 1286 2365 
Q 1534 2075 1959 2075 
z
" transform="scale(0.015625)"/>
     </defs>
     <use xlink:href="#DejaVuSans-13"/>
     <use xlink:href="#DejaVuSans-f" transform="translate(63.625 0)"/>
     <use xlink:href="#DejaVuSans-1a" transform="translate(95.40625 0)"/>
     <use xlink:href="#DejaVuSans-1c" transform="translate(159.03125 0)"/>
     <use xlink:href="#DejaVuSans-14" transform="translate(222.65625 0)"/>
    </g>
   </g>
   <g id="text_17">
    <!-- 0,645 -->
    <g transform="translate(343.936383 188.483926) scale(0.1 -0.1)">
     <use xlink:href="#DejaVuSans-13"/>
     <use xlink:href="#DejaVuSans-f" transform="translate(63.625 0)"/>
     <use xlink:href="#DejaVuSans-19" transform="translate(95.40625 0)"/>
     <use xlink:href="#DejaVuSans-17" transform="translate(159.03125 0)"/>
     <use xlink:href="#DejaVuSans-18" transform="translate(222.65625 0)"/>
    </g>
   </g>
   <g id="text_18">
    <!-- 0,249 -->
    <g transform="translate(207.31926 236.469955) scale(0.1 -0.1)">
     <use xlink:href="#DejaVuSans-13"/>
     <use xlink:href="#DejaVuSans-f" transform="translate(63.625 0)"/>
     <use xlink:href="#DejaVuSans-15" transform="translate(95.40625 0)"/>
     <use xlink:href="#DejaVuSans-17" transform="translate(159.03125 0)"/>
     <use xlink:href="#DejaVuSans-1c" transform="translate(222.65625 0)"/>
    </g>
   </g>
   <g id="text_19">
    <!-- SINAPI-ES | teste: 102 serviços -->
    <g transform="translate(224.507344 50.132048) scale(0.12 -0.12)">
     <defs>
      <path id="DejaVuSans-36" d="M 3425 4513 
L 3425 3897 
Q 3066 4069 2747 4153 
Q 2428 4238 2131 4238 
Q 1616 4238 1336 4038 
Q 1056 3838 1056 3469 
Q 1056 3159 1242 3001 
Q 1428 2844 1947 2747 
L 2328 2669 
Q 3034 2534 3370 2195 
Q 3706 1856 3706 1288 
Q 3706 609 3251 259 
Q 2797 -91 1919 -91 
Q 1588 -91 1214 -16 
Q 841 59 441 206 
L 441 856 
Q 825 641 1194 531 
Q 1563 422 1919 422 
Q 2459 422 2753 634 
Q 3047 847 3047 1241 
Q 3047 1584 2836 1778 
Q 2625 1972 2144 2069 
L 1759 2144 
Q 1053 2284 737 2584 
Q 422 2884 422 3419 
Q 422 4038 858 4394 
Q 1294 4750 2059 4750 
Q 2388 4750 2728 4690 
Q 3069 4631 3425 4513 
z
" transform="scale(0.015625)"/>
      <path id="DejaVuSans-2c" d="M 628 4666 
L 1259 4666 
L 1259 0 
L 628 0 
L 628 4666 
z
" transform="scale(0.015625)"/>
      <path id="DejaVuSans-24" d="M 2188 4044 
L 1331 1722 
L 3047 1722 
L 2188 4044 
z
M 1831 4666 
L 2547 4666 
L 4325 0 
L 3669 0 
L 3244 1197 
L 1141 1197 
L 716 0 
L 50 0 
L 1831 4666 
z
" transform="scale(0.015625)"/>
      <path id="DejaVuSans-33" d="M 1259 4147 
L 1259 2394 
L 2053 2394 
Q 2494 2394 2734 2622 
Q 2975 2850 2975 3272 
Q 2975 3691 2734 3919 
Q 2494 4147 2053 4147 
L 1259 4147 
z
M 628 4666 
L 2053 4666 
Q 2838 4666 3239 4311 
Q 3641 3956 3641 3272 
Q 3641 2581 3239 2228 
Q 2838 1875 2053 1875 
L 1259 1875 
L 1259 0 
L 628 0 
L 628 4666 
z
" transform="scale(0.015625)"/>
      <path id="DejaVuSans-10" d="M 313 2009 
L 1997 2009 
L 1997 1497 
L 313 1497 
L 313 2009 
z
" transform="scale(0.015625)"/>
      <path id="DejaVuSans-28" d="M 628 4666 
L 3578 4666 
L 3578 4134 
L 1259 4134 
L 1259 2753 
L 3481 2753 
L 3481 2222 
L 1259 2222 
L 1259 531 
L 3634 531 
L 3634 0 
L 628 0 
L 628 4666 
z
" transform="scale(0.015625)"/>
      <path id="DejaVuSans-5f" d="M 1344 4891 
L 1344 -1509 
L 813 -1509 
L 813 4891 
L 1344 4891 
z
" transform="scale(0.015625)"/>
      <path id="DejaVuSans-1d" d="M 750 794 
L 1409 794 
L 1409 0 
L 750 0 
L 750 794 
z
M 750 3309 
L 1409 3309 
L 1409 2516 
L 750 2516 
L 750 3309 
z
" transform="scale(0.015625)"/>
      <path id="DejaVuSans-a9" d="M 3122 3366 
L 3122 2828 
Q 2878 2963 2633 3030 
Q 2388 3097 2138 3097 
Q 1578 3097 1268 2742 
Q 959 2388 959 1747 
Q 959 1106 1268 751 
Q 1578 397 2138 397 
Q 2388 397 2633 464 
Q 2878 531 3122 666 
L 3122 134 
Q 2881 22 2623 -34 
Q 2366 -91 2075 -91 
Q 1284 -91 818 406 
Q 353 903 353 1747 
Q 353 2603 823 3093 
Q 1294 3584 2113 3584 
Q 2378 3584 2631 3529 
Q 2884 3475 3122 3366 
z
M 2310 0 
Q 2481 -194 2565 -358 
Q 2650 -522 2650 -672 
Q 2650 -950 2462 -1092 
Q 2275 -1234 1906 -1234 
Q 1763 -1234 1627 -1215 
Q 1491 -1197 1356 -1159 
L 1356 -750 
Q 1463 -803 1578 -826 
Q 1694 -850 1841 -850 
Q 2025 -850 2119 -775 
Q 2213 -700 2213 -556 
Q 2213 -463 2145 -327 
Q 2078 -191 1938 0 
L 2310 0 
z
" transform="scale(0.015625)"/>
     </defs>
     <use xlink:href="#DejaVuSans-36"/>
     <use xlink:href="#DejaVuSans-2c" transform="translate(63.484375 0)"/>
     <use xlink:href="#DejaVuSans-31" transform="translate(92.984375 0)"/>
     <use xlink:href="#DejaVuSans-24" transform="translate(167.796875 0)"/>
     <use xlink:href="#DejaVuSans-33" transform="translate(236.203125 0)"/>
     <use xlink:href="#DejaVuSans-2c" transform="translate(296.5 0)"/>
     <use xlink:href="#DejaVuSans-10" transform="translate(326 0)"/>
     <use xlink:href="#DejaVuSans-28" transform="translate(362.078125 0)"/>
     <use xlink:href="#DejaVuSans-36" transform="translate(425.265625 0)"/>
     <use xlink:href="#DejaVuSans-3" transform="translate(488.75 0)"/>
     <use xlink:href="#DejaVuSans-5f" transform="translate(520.53125 0)"/>
     <use xlink:href="#DejaVuSans-3" transform="translate(554.21875 0)"/>
     <use xlink:href="#DejaVuSans-57" transform="translate(586 0)"/>
     <use xlink:href="#DejaVuSans-48" transform="translate(625.203125 0)"/>
     <use xlink:href="#DejaVuSans-56" transform="translate(686.734375 0)"/>
     <use xlink:href="#DejaVuSans-57" transform="translate(738.828125 0)"/>
     <use xlink:href="#DejaVuSans-48" transform="translate(778.03125 0)"/>
     <use xlink:href="#DejaVuSans-1d" transform="translate(839.5625 0)"/>
     <use xlink:href="#DejaVuSans-3" transform="translate(873.25 0)"/>
     <use xlink:href="#DejaVuSans-14" transform="translate(905.03125 0)"/>
     <use xlink:href="#DejaVuSans-13" transform="translate(968.65625 0)"/>
     <use xlink:href="#DejaVuSans-15" transform="translate(1032.28125 0)"/>
     <use xlink:href="#DejaVuSans-3" transform="translate(1095.90625 0)"/>
     <use xlink:href="#DejaVuSans-56" transform="translate(1127.6875 0)"/>
     <use xlink:href="#DejaVuSans-48" transform="translate(1179.78125 0)"/>
     <use xlink:href="#DejaVuSans-55" transform="translate(1241.3125 0)"/>
     <use xlink:href="#DejaVuSans-59" transform="translate(1282.421875 0)"/>
     <use xlink:href="#DejaVuSans-4c" transform="translate(1341.609375 0)"/>
     <use xlink:href="#DejaVuSans-a9" transform="translate(1369.390625 0)"/>
     <use xlink:href="#DejaVuSans-52" transform="translate(1424.375 0)"/>
     <use xlink:href="#DejaVuSans-56" transform="translate(1485.5625 0)"/>
    </g>
   </g>
   <g id="legend_1">
    <g id="patch_13">
     <path d="M 338.360697 245.379492 
L 508.39976 245.379492 
Q 510.39976 245.379492 510.39976 243.379492 
L 510.39976 213.97793 
Q 510.39976 211.97793 508.39976 211.97793 
L 338.360697 211.97793 
Q 336.360697 211.97793 336.360697 213.97793 
L 336.360697 243.379492 
Q 336.360697 245.379492 338.360697 245.379492 
z
" style="fill: #ffffff; opacity: 0.8; stroke: #cccccc; stroke-linejoin: miter"/>
    </g>
    <g id="patch_14">
     <path d="M 340.360697 223.976367 
L 360.360697 223.976367 
L 360.360697 216.976367 
L 340.360697 216.976367 
z
" style="fill: #17618b"/>
    </g>
    <g id="text_20">
     <!-- Validação: média de 3 folds -->
     <g transform="translate(368.360697 223.976367) scale(0.1 -0.1)">
      <defs>
       <path id="DejaVuSans-39" d="M 1831 0 
L 50 4666 
L 709 4666 
L 2188 738 
L 3669 4666 
L 4325 4666 
L 2547 0 
L 1831 0 
z
" transform="scale(0.015625)"/>
       <path id="DejaVuSans-ab" d="M 3597 1894 
L 3597 1613 
L 953 1613 
Q 991 1019 1311 708 
Q 1631 397 2203 397 
Q 2534 397 2845 478 
Q 3156 559 3463 722 
L 3463 178 
Q 3153 47 2828 -22 
Q 2503 -91 2169 -91 
Q 1331 -91 842 396 
Q 353 884 353 1716 
Q 353 2575 817 3079 
Q 1281 3584 2069 3584 
Q 2775 3584 3186 3129 
Q 3597 2675 3597 1894 
z
M 3022 2063 
Q 3016 2534 2758 2815 
Q 2500 3097 2075 3097 
Q 1594 3097 1305 2825 
Q 1016 2553 972 2059 
L 3022 2063 
z
M 2468 5119 
L 3090 5119 
L 2072 3944 
L 1593 3944 
L 2468 5119 
z
" transform="scale(0.015625)"/>
      </defs>
      <use xlink:href="#DejaVuSans-39"/>
      <use xlink:href="#DejaVuSans-44" transform="translate(60.640625 0)"/>
      <use xlink:href="#DejaVuSans-4f" transform="translate(121.921875 0)"/>
      <use xlink:href="#DejaVuSans-4c" transform="translate(149.703125 0)"/>
      <use xlink:href="#DejaVuSans-47" transform="translate(177.484375 0)"/>
      <use xlink:href="#DejaVuSans-44" transform="translate(240.96875 0)"/>
      <use xlink:href="#DejaVuSans-a9" transform="translate(302.25 0)"/>
      <use xlink:href="#DejaVuSans-a5" transform="translate(357.234375 0)"/>
      <use xlink:href="#DejaVuSans-52" transform="translate(418.515625 0)"/>
      <use xlink:href="#DejaVuSans-1d" transform="translate(479.703125 0)"/>
      <use xlink:href="#DejaVuSans-3" transform="translate(513.390625 0)"/>
      <use xlink:href="#DejaVuSans-50" transform="translate(545.171875 0)"/>
      <use xlink:href="#DejaVuSans-ab" transform="translate(642.578125 0)"/>
      <use xlink:href="#DejaVuSans-47" transform="translate(704.109375 0)"/>
      <use xlink:href="#DejaVuSans-4c" transform="translate(767.59375 0)"/>
      <use xlink:href="#DejaVuSans-44" transform="translate(795.375 0)"/>
      <use xlink:href="#DejaVuSans-3" transform="translate(856.65625 0)"/>
      <use xlink:href="#DejaVuSans-47" transform="translate(888.4375 0)"/>
      <use xlink:href="#DejaVuSans-48" transform="translate(951.921875 0)"/>
      <use xlink:href="#DejaVuSans-3" transform="translate(1013.453125 0)"/>
      <use xlink:href="#DejaVuSans-16" transform="translate(1045.234375 0)"/>
      <use xlink:href="#DejaVuSans-3" transform="translate(1108.859375 0)"/>
      <use xlink:href="#DejaVuSans-49" transform="translate(1140.640625 0)"/>
      <use xlink:href="#DejaVuSans-52" transform="translate(1175.84375 0)"/>
      <use xlink:href="#DejaVuSans-4f" transform="translate(1237.03125 0)"/>
      <use xlink:href="#DejaVuSans-47" transform="translate(1264.8125 0)"/>
      <use xlink:href="#DejaVuSans-56" transform="translate(1328.296875 0)"/>
     </g>
    </g>
    <g id="patch_15">
     <path d="M 340.360697 238.977148 
L 360.360697 238.977148 
L 360.360697 231.977148 
L 340.360697 231.977148 
z
" style="fill: url(#hd2658c1424)"/>
    </g>
    <g id="text_21">
     <!-- Teste reservado -->
     <g transform="translate(368.360697 238.977148) scale(0.1 -0.1)">
      <defs>
       <path id="DejaVuSans-37" d="M -19 4666 
L 3928 4666 
L 3928 4134 
L 2272 4134 
L 2272 0 
L 1638 0 
L 1638 4134 
L -19 4134 
L -19 4666 
z
" transform="scale(0.015625)"/>
      </defs>
      <use xlink:href="#DejaVuSans-37"/>
      <use xlink:href="#DejaVuSans-48" transform="translate(44.09375 0)"/>
      <use xlink:href="#DejaVuSans-56" transform="translate(105.625 0)"/>
      <use xlink:href="#DejaVuSans-57" transform="translate(157.71875 0)"/>
      <use xlink:href="#DejaVuSans-48" transform="translate(196.921875 0)"/>
      <use xlink:href="#DejaVuSans-3" transform="translate(258.453125 0)"/>
      <use xlink:href="#DejaVuSans-55" transform="translate(290.234375 0)"/>
      <use xlink:href="#DejaVuSans-48" transform="translate(329.140625 0)"/>
      <use xlink:href="#DejaVuSans-56" transform="translate(390.671875 0)"/>
      <use xlink:href="#DejaVuSans-48" transform="translate(442.765625 0)"/>
      <use xlink:href="#DejaVuSans-55" transform="translate(504.296875 0)"/>
      <use xlink:href="#DejaVuSans-59" transform="translate(545.40625 0)"/>
      <use xlink:href="#DejaVuSans-44" transform="translate(604.59375 0)"/>
      <use xlink:href="#DejaVuSans-47" transform="translate(665.875 0)"/>
      <use xlink:href="#DejaVuSans-52" transform="translate(729.359375 0)"/>
     </g>
    </g>
   </g>
  </g>
  <g id="axes_2">
   <g id="patch_16">
    <path d="M 118.133678 497.798901 
L 515.39976 497.798901 
L 515.39976 303.551457 
L 118.133678 303.551457 
z
" style="fill: #ffffff"/>
   </g>
   <g id="patch_17">
    <path d="M 118.133678 312.380886 
L 322.09503 312.380886 
L 322.09503 327.736415 
L 118.133678 327.736415 
z
" clip-path="url(#p5ea2d1ffde)" style="fill: #17618b"/>
   </g>
   <g id="patch_18">
    <path d="M 118.133678 360.366915 
L 336.35778 360.366915 
L 336.35778 375.722444 
L 118.133678 375.722444 
z
" clip-path="url(#p5ea2d1ffde)" style="fill: #17618b"/>
   </g>
   <g id="patch_19">
    <path d="M 118.133678 408.352943 
L 295.391325 408.352943 
L 295.391325 423.708472 
L 118.133678 423.708472 
z
" clip-path="url(#p5ea2d1ffde)" style="fill: #17618b"/>
   </g>
   <g id="patch_20">
    <path d="M 0 0 
z
" clip-path="url(#p5ea2d1ffde)" style="fill: #17618b"/>
   </g>
   <g id="patch_21">
    <path d="M 118.133678 329.655856 
L 334.724571 329.655856 
L 334.724571 345.011385 
L 118.133678 345.011385 
z
" clip-path="url(#p5ea2d1ffde)" style="fill: url(#hd2658c1424)"/>
   </g>
   <g id="patch_22">
    <path d="M 118.133678 377.641885 
L 312.369523 377.641885 
L 312.369523 392.997414 
L 118.133678 392.997414 
z
" clip-path="url(#p5ea2d1ffde)" style="fill: url(#hd2658c1424)"/>
   </g>
   <g id="patch_23">
    <path d="M 118.133678 425.627914 
L 265.761356 425.627914 
L 265.761356 440.983443 
L 118.133678 440.983443 
z
" clip-path="url(#p5ea2d1ffde)" style="fill: url(#hd2658c1424)"/>
   </g>
   <g id="patch_24">
    <path d="M 118.133678 473.613942 
L 178.738724 473.613942 
L 178.738724 488.969471 
L 118.133678 488.969471 
z
" clip-path="url(#p5ea2d1ffde)" style="fill: url(#hd2658c1424)"/>
   </g>
   <g id="matplotlib.axis_3">
    <g id="xtick_7">
     <g id="line2d_13">
      <g>
       <use xlink:href="#ma098041f87" x="118.133678" y="497.798901" style="stroke: #000000; stroke-width: 0.8"/>
      </g>
     </g>
     <g id="text_22">
      <!-- 0.0 -->
      <g transform="translate(110.182115 512.396557) scale(0.1 -0.1)">
       <use xlink:href="#DejaVuSans-13"/>
       <use xlink:href="#DejaVuSans-11" transform="translate(63.625 0)"/>
       <use xlink:href="#DejaVuSans-13" transform="translate(95.40625 0)"/>
      </g>
     </g>
    </g>
    <g id="xtick_8">
     <g id="line2d_14">
      <g>
       <use xlink:href="#ma098041f87" x="187.223431" y="497.798901" style="stroke: #000000; stroke-width: 0.8"/>
      </g>
     </g>
     <g id="text_23">
      <!-- 0.2 -->
      <g transform="translate(179.271868 512.396557) scale(0.1 -0.1)">
       <use xlink:href="#DejaVuSans-13"/>
       <use xlink:href="#DejaVuSans-11" transform="translate(63.625 0)"/>
       <use xlink:href="#DejaVuSans-15" transform="translate(95.40625 0)"/>
      </g>
     </g>
    </g>
    <g id="xtick_9">
     <g id="line2d_15">
      <g>
       <use xlink:href="#ma098041f87" x="256.313184" y="497.798901" style="stroke: #000000; stroke-width: 0.8"/>
      </g>
     </g>
     <g id="text_24">
      <!-- 0.4 -->
      <g transform="translate(248.361622 512.396557) scale(0.1 -0.1)">
       <use xlink:href="#DejaVuSans-13"/>
       <use xlink:href="#DejaVuSans-11" transform="translate(63.625 0)"/>
       <use xlink:href="#DejaVuSans-17" transform="translate(95.40625 0)"/>
      </g>
     </g>
    </g>
    <g id="xtick_10">
     <g id="line2d_16">
      <g>
       <use xlink:href="#ma098041f87" x="325.402938" y="497.798901" style="stroke: #000000; stroke-width: 0.8"/>
      </g>
     </g>
     <g id="text_25">
      <!-- 0.6 -->
      <g transform="translate(317.451375 512.396557) scale(0.1 -0.1)">
       <use xlink:href="#DejaVuSans-13"/>
       <use xlink:href="#DejaVuSans-11" transform="translate(63.625 0)"/>
       <use xlink:href="#DejaVuSans-19" transform="translate(95.40625 0)"/>
      </g>
     </g>
    </g>
    <g id="xtick_11">
     <g id="line2d_17">
      <g>
       <use xlink:href="#ma098041f87" x="394.492691" y="497.798901" style="stroke: #000000; stroke-width: 0.8"/>
      </g>
     </g>
     <g id="text_26">
      <!-- 0.8 -->
      <g transform="translate(386.541129 512.396557) scale(0.1 -0.1)">
       <use xlink:href="#DejaVuSans-13"/>
       <use xlink:href="#DejaVuSans-11" transform="translate(63.625 0)"/>
       <use xlink:href="#DejaVuSans-1b" transform="translate(95.40625 0)"/>
      </g>
     </g>
    </g>
    <g id="xtick_12">
     <g id="line2d_18">
      <g>
       <use xlink:href="#ma098041f87" x="463.582445" y="497.798901" style="stroke: #000000; stroke-width: 0.8"/>
      </g>
     </g>
     <g id="text_27">
      <!-- 1.0 -->
      <g transform="translate(455.630882 512.396557) scale(0.1 -0.1)">
       <use xlink:href="#DejaVuSans-14"/>
       <use xlink:href="#DejaVuSans-11" transform="translate(63.625 0)"/>
       <use xlink:href="#DejaVuSans-13" transform="translate(95.40625 0)"/>
      </g>
     </g>
    </g>
    <g id="text_28">
     <!-- F1 macro; barras finas = desvio entre folds -->
     <g transform="translate(197.814609 527.157182) scale(0.11 -0.11)">
      <use xlink:href="#DejaVuSans-29"/>
      <use xlink:href="#DejaVuSans-14" transform="translate(57.515625 0)"/>
      <use xlink:href="#DejaVuSans-3" transform="translate(121.140625 0)"/>
      <use xlink:href="#DejaVuSans-50" transform="translate(152.921875 0)"/>
      <use xlink:href="#DejaVuSans-44" transform="translate(250.328125 0)"/>
      <use xlink:href="#DejaVuSans-46" transform="translate(311.609375 0)"/>
      <use xlink:href="#DejaVuSans-55" transform="translate(366.59375 0)"/>
      <use xlink:href="#DejaVuSans-52" transform="translate(405.5 0)"/>
      <use xlink:href="#DejaVuSans-1e" transform="translate(466.6875 0)"/>
      <use xlink:href="#DejaVuSans-3" transform="translate(500.375 0)"/>
      <use xlink:href="#DejaVuSans-45" transform="translate(532.15625 0)"/>
      <use xlink:href="#DejaVuSans-44" transform="translate(595.640625 0)"/>
      <use xlink:href="#DejaVuSans-55" transform="translate(656.921875 0)"/>
      <use xlink:href="#DejaVuSans-55" transform="translate(696.28125 0)"/>
      <use xlink:href="#DejaVuSans-44" transform="translate(737.390625 0)"/>
      <use xlink:href="#DejaVuSans-56" transform="translate(798.671875 0)"/>
      <use xlink:href="#DejaVuSans-3" transform="translate(850.765625 0)"/>
      <use xlink:href="#DejaVuSans-13af" transform="translate(882.546875 0)"/>
      <use xlink:href="#DejaVuSans-51" transform="translate(945.53125 0)"/>
      <use xlink:href="#DejaVuSans-44" transform="translate(1008.90625 0)"/>
      <use xlink:href="#DejaVuSans-56" transform="translate(1070.1875 0)"/>
      <use xlink:href="#DejaVuSans-3" transform="translate(1122.28125 0)"/>
      <use xlink:href="#DejaVuSans-20" transform="translate(1154.0625 0)"/>
      <use xlink:href="#DejaVuSans-3" transform="translate(1237.859375 0)"/>
      <use xlink:href="#DejaVuSans-47" transform="translate(1269.640625 0)"/>
      <use xlink:href="#DejaVuSans-48" transform="translate(1333.125 0)"/>
      <use xlink:href="#DejaVuSans-56" transform="translate(1394.65625 0)"/>
      <use xlink:href="#DejaVuSans-59" transform="translate(1446.75 0)"/>
      <use xlink:href="#DejaVuSans-4c" transform="translate(1505.9375 0)"/>
      <use xlink:href="#DejaVuSans-52" transform="translate(1533.71875 0)"/>
      <use xlink:href="#DejaVuSans-3" transform="translate(1594.90625 0)"/>
      <use xlink:href="#DejaVuSans-48" transform="translate(1626.6875 0)"/>
      <use xlink:href="#DejaVuSans-51" transform="translate(1688.21875 0)"/>
      <use xlink:href="#DejaVuSans-57" transform="translate(1751.59375 0)"/>
      <use xlink:href="#DejaVuSans-55" transform="translate(1790.796875 0)"/>
      <use xlink:href="#DejaVuSans-48" transform="translate(1829.703125 0)"/>
      <use xlink:href="#DejaVuSans-3" transform="translate(1891.234375 0)"/>
      <use xlink:href="#DejaVuSans-49" transform="translate(1923.015625 0)"/>
      <use xlink:href="#DejaVuSans-52" transform="translate(1958.21875 0)"/>
      <use xlink:href="#DejaVuSans-4f" transform="translate(2019.40625 0)"/>
      <use xlink:href="#DejaVuSans-47" transform="translate(2047.1875 0)"/>
      <use xlink:href="#DejaVuSans-56" transform="translate(2110.671875 0)"/>
     </g>
    </g>
   </g>
   <g id="matplotlib.axis_4">
    <g id="ytick_5">
     <g id="line2d_19">
      <g>
       <use xlink:href="#m56768d3326" x="118.133678" y="328.696136" style="stroke: #000000; stroke-width: 0.8"/>
      </g>
     </g>
     <g id="text_29">
      <!-- Random Forest -->
      <g transform="translate(28.339771 332.875276) scale(0.11 -0.11)">
       <use xlink:href="#DejaVuSans-35"/>
       <use xlink:href="#DejaVuSans-44" transform="translate(67.28125 0)"/>
       <use xlink:href="#DejaVuSans-51" transform="translate(128.5625 0)"/>
       <use xlink:href="#DejaVuSans-47" transform="translate(191.9375 0)"/>
       <use xlink:href="#DejaVuSans-52" transform="translate(255.421875 0)"/>
       <use xlink:href="#DejaVuSans-50" transform="translate(316.609375 0)"/>
       <use xlink:href="#DejaVuSans-3" transform="translate(414.015625 0)"/>
       <use xlink:href="#DejaVuSans-29" transform="translate(445.796875 0)"/>
       <use xlink:href="#DejaVuSans-52" transform="translate(499.75 0)"/>
       <use xlink:href="#DejaVuSans-55" transform="translate(560.9375 0)"/>
       <use xlink:href="#DejaVuSans-48" transform="translate(599.84375 0)"/>
       <use xlink:href="#DejaVuSans-56" transform="translate(661.375 0)"/>
       <use xlink:href="#DejaVuSans-57" transform="translate(713.46875 0)"/>
      </g>
     </g>
    </g>
    <g id="ytick_6">
     <g id="line2d_20">
      <g>
       <use xlink:href="#m56768d3326" x="118.133678" y="376.682164" style="stroke: #000000; stroke-width: 0.8"/>
      </g>
     </g>
     <g id="text_30">
      <!-- Árvore de decisão * -->
      <g transform="translate(3.00024 381.782555) scale(0.11 -0.11)">
       <use xlink:href="#DejaVuSans-83"/>
       <use xlink:href="#DejaVuSans-55" transform="translate(68.40625 0)"/>
       <use xlink:href="#DejaVuSans-59" transform="translate(109.515625 0)"/>
       <use xlink:href="#DejaVuSans-52" transform="translate(168.703125 0)"/>
       <use xlink:href="#DejaVuSans-55" transform="translate(229.890625 0)"/>
       <use xlink:href="#DejaVuSans-48" transform="translate(268.796875 0)"/>
       <use xlink:href="#DejaVuSans-3" transform="translate(330.328125 0)"/>
       <use xlink:href="#DejaVuSans-47" transform="translate(362.109375 0)"/>
       <use xlink:href="#DejaVuSans-48" transform="translate(425.59375 0)"/>
       <use xlink:href="#DejaVuSans-3" transform="translate(487.125 0)"/>
       <use xlink:href="#DejaVuSans-47" transform="translate(518.90625 0)"/>
       <use xlink:href="#DejaVuSans-48" transform="translate(582.390625 0)"/>
       <use xlink:href="#DejaVuSans-46" transform="translate(643.921875 0)"/>
       <use xlink:href="#DejaVuSans-4c" transform="translate(698.90625 0)"/>
       <use xlink:href="#DejaVuSans-56" transform="translate(726.6875 0)"/>
       <use xlink:href="#DejaVuSans-a5" transform="translate(778.78125 0)"/>
       <use xlink:href="#DejaVuSans-52" transform="translate(840.0625 0)"/>
       <use xlink:href="#DejaVuSans-3" transform="translate(901.25 0)"/>
       <use xlink:href="#DejaVuSans-d" transform="translate(933.03125 0)"/>
      </g>
     </g>
    </g>
    <g id="ytick_7">
     <g id="line2d_21">
      <g>
       <use xlink:href="#m56768d3326" x="118.133678" y="424.668193" style="stroke: #000000; stroke-width: 0.8"/>
      </g>
     </g>
     <g id="text_31">
      <!-- KNN -->
      <g transform="translate(87.461334 428.846904) scale(0.11 -0.11)">
       <use xlink:href="#DejaVuSans-2e"/>
       <use xlink:href="#DejaVuSans-31" transform="translate(65.578125 0)"/>
       <use xlink:href="#DejaVuSans-31" transform="translate(140.390625 0)"/>
      </g>
     </g>
    </g>
    <g id="ytick_8">
     <g id="line2d_22">
      <g>
       <use xlink:href="#m56768d3326" x="118.133678" y="472.654222" style="stroke: #000000; stroke-width: 0.8"/>
      </g>
     </g>
     <g id="text_32">
      <!-- Classe majoritária -->
      <g transform="translate(11.738365 477.053362) scale(0.11 -0.11)">
       <use xlink:href="#DejaVuSans-26"/>
       <use xlink:href="#DejaVuSans-4f" transform="translate(69.828125 0)"/>
       <use xlink:href="#DejaVuSans-44" transform="translate(97.609375 0)"/>
       <use xlink:href="#DejaVuSans-56" transform="translate(158.890625 0)"/>
       <use xlink:href="#DejaVuSans-56" transform="translate(210.984375 0)"/>
       <use xlink:href="#DejaVuSans-48" transform="translate(263.078125 0)"/>
       <use xlink:href="#DejaVuSans-3" transform="translate(324.609375 0)"/>
       <use xlink:href="#DejaVuSans-50" transform="translate(356.390625 0)"/>
       <use xlink:href="#DejaVuSans-44" transform="translate(453.796875 0)"/>
       <use xlink:href="#DejaVuSans-4d" transform="translate(515.078125 0)"/>
       <use xlink:href="#DejaVuSans-52" transform="translate(542.859375 0)"/>
       <use xlink:href="#DejaVuSans-55" transform="translate(604.046875 0)"/>
       <use xlink:href="#DejaVuSans-4c" transform="translate(645.15625 0)"/>
       <use xlink:href="#DejaVuSans-57" transform="translate(672.9375 0)"/>
       <use xlink:href="#DejaVuSans-a3" transform="translate(712.140625 0)"/>
       <use xlink:href="#DejaVuSans-55" transform="translate(773.421875 0)"/>
       <use xlink:href="#DejaVuSans-4c" transform="translate(814.53125 0)"/>
       <use xlink:href="#DejaVuSans-44" transform="translate(842.3125 0)"/>
      </g>
     </g>
    </g>
   </g>
   <g id="LineCollection_2">
    <path d="M 305.56569 320.05865 
L 338.624371 320.05865 
" clip-path="url(#p5ea2d1ffde)" style="fill: none; stroke: #222222; stroke-width: 1.5"/>
    <path d="M 300.787615 368.044679 
L 371.927945 368.044679 
" clip-path="url(#p5ea2d1ffde)" style="fill: none; stroke: #222222; stroke-width: 1.5"/>
    <path d="M 268.507176 416.030708 
L 322.275473 416.030708 
" clip-path="url(#p5ea2d1ffde)" style="fill: none; stroke: #222222; stroke-width: 1.5"/>
    <path clip-path="url(#p5ea2d1ffde)" style="fill: none; stroke: #222222; stroke-width: 1.5"/>
   </g>
   <g id="line2d_23">
    <g clip-path="url(#p5ea2d1ffde)">
     <use xlink:href="#m578d35e5ef" x="305.56569" y="320.05865" style="fill: #1f77b4; stroke: #222222"/>
     <use xlink:href="#m578d35e5ef" x="300.787615" y="368.044679" style="fill: #1f77b4; stroke: #222222"/>
     <use xlink:href="#m578d35e5ef" x="268.507176" y="416.030708" style="fill: #1f77b4; stroke: #222222"/>
    </g>
   </g>
   <g id="line2d_24">
    <g clip-path="url(#p5ea2d1ffde)">
     <use xlink:href="#m578d35e5ef" x="338.624371" y="320.05865" style="fill: #1f77b4; stroke: #222222"/>
     <use xlink:href="#m578d35e5ef" x="371.927945" y="368.044679" style="fill: #1f77b4; stroke: #222222"/>
     <use xlink:href="#m578d35e5ef" x="322.275473" y="416.030708" style="fill: #1f77b4; stroke: #222222"/>
    </g>
   </g>
   <g id="patch_25">
    <path d="M 118.133678 497.798901 
L 118.133678 303.551457 
" style="fill: none; stroke: #000000; stroke-width: 0.8; stroke-linejoin: miter; stroke-linecap: square"/>
   </g>
   <g id="patch_26">
    <path d="M 118.133678 497.798901 
L 515.39976 497.798901 
" style="fill: none; stroke: #000000; stroke-width: 0.8; stroke-linejoin: miter; stroke-linecap: square"/>
   </g>
   <g id="text_33">
    <!-- 0,590 -->
    <g transform="translate(325.09503 322.656307) scale(0.1 -0.1)">
     <use xlink:href="#DejaVuSans-13"/>
     <use xlink:href="#DejaVuSans-f" transform="translate(63.625 0)"/>
     <use xlink:href="#DejaVuSans-18" transform="translate(95.40625 0)"/>
     <use xlink:href="#DejaVuSans-1c" transform="translate(159.03125 0)"/>
     <use xlink:href="#DejaVuSans-13" transform="translate(222.65625 0)"/>
    </g>
   </g>
   <g id="text_34">
    <!-- 0,632 -->
    <g transform="translate(339.35778 370.642335) scale(0.1 -0.1)">
     <use xlink:href="#DejaVuSans-13"/>
     <use xlink:href="#DejaVuSans-f" transform="translate(63.625 0)"/>
     <use xlink:href="#DejaVuSans-19" transform="translate(95.40625 0)"/>
     <use xlink:href="#DejaVuSans-16" transform="translate(159.03125 0)"/>
     <use xlink:href="#DejaVuSans-15" transform="translate(222.65625 0)"/>
    </g>
   </g>
   <g id="text_35">
    <!-- 0,513 -->
    <g transform="translate(298.391325 418.628364) scale(0.1 -0.1)">
     <use xlink:href="#DejaVuSans-13"/>
     <use xlink:href="#DejaVuSans-f" transform="translate(63.625 0)"/>
     <use xlink:href="#DejaVuSans-18" transform="translate(95.40625 0)"/>
     <use xlink:href="#DejaVuSans-14" transform="translate(159.03125 0)"/>
     <use xlink:href="#DejaVuSans-16" transform="translate(222.65625 0)"/>
    </g>
   </g>
   <g id="text_36">
    <!-- 0,627 -->
    <g transform="translate(337.724571 339.931277) scale(0.1 -0.1)">
     <use xlink:href="#DejaVuSans-13"/>
     <use xlink:href="#DejaVuSans-f" transform="translate(63.625 0)"/>
     <use xlink:href="#DejaVuSans-19" transform="translate(95.40625 0)"/>
     <use xlink:href="#DejaVuSans-15" transform="translate(159.03125 0)"/>
     <use xlink:href="#DejaVuSans-1a" transform="translate(222.65625 0)"/>
    </g>
   </g>
   <g id="text_37">
    <!-- 0,562 -->
    <g transform="translate(315.369523 387.917306) scale(0.1 -0.1)">
     <use xlink:href="#DejaVuSans-13"/>
     <use xlink:href="#DejaVuSans-f" transform="translate(63.625 0)"/>
     <use xlink:href="#DejaVuSans-18" transform="translate(95.40625 0)"/>
     <use xlink:href="#DejaVuSans-19" transform="translate(159.03125 0)"/>
     <use xlink:href="#DejaVuSans-15" transform="translate(222.65625 0)"/>
    </g>
   </g>
   <g id="text_38">
    <!-- 0,427 -->
    <g transform="translate(268.761356 435.903334) scale(0.1 -0.1)">
     <use xlink:href="#DejaVuSans-13"/>
     <use xlink:href="#DejaVuSans-f" transform="translate(63.625 0)"/>
     <use xlink:href="#DejaVuSans-17" transform="translate(95.40625 0)"/>
     <use xlink:href="#DejaVuSans-15" transform="translate(159.03125 0)"/>
     <use xlink:href="#DejaVuSans-1a" transform="translate(222.65625 0)"/>
    </g>
   </g>
   <g id="text_39">
    <!-- 0,175 -->
    <g transform="translate(181.738724 483.889363) scale(0.1 -0.1)">
     <use xlink:href="#DejaVuSans-13"/>
     <use xlink:href="#DejaVuSans-f" transform="translate(63.625 0)"/>
     <use xlink:href="#DejaVuSans-14" transform="translate(95.40625 0)"/>
     <use xlink:href="#DejaVuSans-1a" transform="translate(159.03125 0)"/>
     <use xlink:href="#DejaVuSans-18" transform="translate(222.65625 0)"/>
    </g>
   </g>
   <g id="text_40">
    <!-- DER-ES / IOPES | teste: 14 serviços -->
    <g transform="translate(212.001094 297.551457) scale(0.12 -0.12)">
     <defs>
      <path id="DejaVuSans-27" d="M 1259 4147 
L 1259 519 
L 2022 519 
Q 2988 519 3436 956 
Q 3884 1394 3884 2338 
Q 3884 3275 3436 3711 
Q 2988 4147 2022 4147 
L 1259 4147 
z
M 628 4666 
L 1925 4666 
Q 3281 4666 3915 4102 
Q 4550 3538 4550 2338 
Q 4550 1131 3912 565 
Q 3275 0 1925 0 
L 628 0 
L 628 4666 
z
" transform="scale(0.015625)"/>
      <path id="DejaVuSans-12" d="M 1625 4666 
L 2156 4666 
L 531 -594 
L 0 -594 
L 1625 4666 
z
" transform="scale(0.015625)"/>
      <path id="DejaVuSans-32" d="M 2522 4238 
Q 1834 4238 1429 3725 
Q 1025 3213 1025 2328 
Q 1025 1447 1429 934 
Q 1834 422 2522 422 
Q 3209 422 3611 934 
Q 4013 1447 4013 2328 
Q 4013 3213 3611 3725 
Q 3209 4238 2522 4238 
z
M 2522 4750 
Q 3503 4750 4090 4092 
Q 4678 3434 4678 2328 
Q 4678 1225 4090 567 
Q 3503 -91 2522 -91 
Q 1538 -91 948 565 
Q 359 1222 359 2328 
Q 359 3434 948 4092 
Q 1538 4750 2522 4750 
z
" transform="scale(0.015625)"/>
     </defs>
     <use xlink:href="#DejaVuSans-27"/>
     <use xlink:href="#DejaVuSans-28" transform="translate(77 0)"/>
     <use xlink:href="#DejaVuSans-35" transform="translate(140.1875 0)"/>
     <use xlink:href="#DejaVuSans-10" transform="translate(205.625 0)"/>
     <use xlink:href="#DejaVuSans-28" transform="translate(241.703125 0)"/>
     <use xlink:href="#DejaVuSans-36" transform="translate(304.890625 0)"/>
     <use xlink:href="#DejaVuSans-3" transform="translate(368.375 0)"/>
     <use xlink:href="#DejaVuSans-12" transform="translate(400.15625 0)"/>
     <use xlink:href="#DejaVuSans-3" transform="translate(433.84375 0)"/>
     <use xlink:href="#DejaVuSans-2c" transform="translate(465.625 0)"/>
     <use xlink:href="#DejaVuSans-32" transform="translate(495.125 0)"/>
     <use xlink:href="#DejaVuSans-33" transform="translate(573.84375 0)"/>
     <use xlink:href="#DejaVuSans-28" transform="translate(634.140625 0)"/>
     <use xlink:href="#DejaVuSans-36" transform="translate(697.328125 0)"/>
     <use xlink:href="#DejaVuSans-3" transform="translate(760.8125 0)"/>
     <use xlink:href="#DejaVuSans-5f" transform="translate(792.59375 0)"/>
     <use xlink:href="#DejaVuSans-3" transform="translate(826.28125 0)"/>
     <use xlink:href="#DejaVuSans-57" transform="translate(858.0625 0)"/>
     <use xlink:href="#DejaVuSans-48" transform="translate(897.265625 0)"/>
     <use xlink:href="#DejaVuSans-56" transform="translate(958.796875 0)"/>
     <use xlink:href="#DejaVuSans-57" transform="translate(1010.890625 0)"/>
     <use xlink:href="#DejaVuSans-48" transform="translate(1050.09375 0)"/>
     <use xlink:href="#DejaVuSans-1d" transform="translate(1111.625 0)"/>
     <use xlink:href="#DejaVuSans-3" transform="translate(1145.3125 0)"/>
     <use xlink:href="#DejaVuSans-14" transform="translate(1177.09375 0)"/>
     <use xlink:href="#DejaVuSans-17" transform="translate(1240.71875 0)"/>
     <use xlink:href="#DejaVuSans-3" transform="translate(1304.34375 0)"/>
     <use xlink:href="#DejaVuSans-56" transform="translate(1336.125 0)"/>
     <use xlink:href="#DejaVuSans-48" transform="translate(1388.21875 0)"/>
     <use xlink:href="#DejaVuSans-55" transform="translate(1449.75 0)"/>
     <use xlink:href="#DejaVuSans-59" transform="translate(1490.859375 0)"/>
     <use xlink:href="#DejaVuSans-4c" transform="translate(1550.046875 0)"/>
     <use xlink:href="#DejaVuSans-a9" transform="translate(1577.828125 0)"/>
     <use xlink:href="#DejaVuSans-52" transform="translate(1632.8125 0)"/>
     <use xlink:href="#DejaVuSans-56" transform="translate(1694 0)"/>
    </g>
   </g>
   <g id="legend_2">
    <g id="patch_27">
     <path d="M 338.360697 492.798901 
L 508.39976 492.798901 
Q 510.39976 492.798901 510.39976 490.798901 
L 510.39976 461.397338 
Q 510.39976 459.397338 508.39976 459.397338 
L 338.360697 459.397338 
Q 336.360697 459.397338 336.360697 461.397338 
L 336.360697 490.798901 
Q 336.360697 492.798901 338.360697 492.798901 
z
" style="fill: #ffffff; opacity: 0.8; stroke: #cccccc; stroke-linejoin: miter"/>
    </g>
    <g id="patch_28">
     <path d="M 340.360697 471.395776 
L 360.360697 471.395776 
L 360.360697 464.395776 
L 340.360697 464.395776 
z
" style="fill: #17618b"/>
    </g>
    <g id="text_41">
     <!-- Validação: média de 3 folds -->
     <g transform="translate(368.360697 471.395776) scale(0.1 -0.1)">
      <use xlink:href="#DejaVuSans-39"/>
      <use xlink:href="#DejaVuSans-44" transform="translate(60.640625 0)"/>
      <use xlink:href="#DejaVuSans-4f" transform="translate(121.921875 0)"/>
      <use xlink:href="#DejaVuSans-4c" transform="translate(149.703125 0)"/>
      <use xlink:href="#DejaVuSans-47" transform="translate(177.484375 0)"/>
      <use xlink:href="#DejaVuSans-44" transform="translate(240.96875 0)"/>
      <use xlink:href="#DejaVuSans-a9" transform="translate(302.25 0)"/>
      <use xlink:href="#DejaVuSans-a5" transform="translate(357.234375 0)"/>
      <use xlink:href="#DejaVuSans-52" transform="translate(418.515625 0)"/>
      <use xlink:href="#DejaVuSans-1d" transform="translate(479.703125 0)"/>
      <use xlink:href="#DejaVuSans-3" transform="translate(513.390625 0)"/>
      <use xlink:href="#DejaVuSans-50" transform="translate(545.171875 0)"/>
      <use xlink:href="#DejaVuSans-ab" transform="translate(642.578125 0)"/>
      <use xlink:href="#DejaVuSans-47" transform="translate(704.109375 0)"/>
      <use xlink:href="#DejaVuSans-4c" transform="translate(767.59375 0)"/>
      <use xlink:href="#DejaVuSans-44" transform="translate(795.375 0)"/>
      <use xlink:href="#DejaVuSans-3" transform="translate(856.65625 0)"/>
      <use xlink:href="#DejaVuSans-47" transform="translate(888.4375 0)"/>
      <use xlink:href="#DejaVuSans-48" transform="translate(951.921875 0)"/>
      <use xlink:href="#DejaVuSans-3" transform="translate(1013.453125 0)"/>
      <use xlink:href="#DejaVuSans-16" transform="translate(1045.234375 0)"/>
      <use xlink:href="#DejaVuSans-3" transform="translate(1108.859375 0)"/>
      <use xlink:href="#DejaVuSans-49" transform="translate(1140.640625 0)"/>
      <use xlink:href="#DejaVuSans-52" transform="translate(1175.84375 0)"/>
      <use xlink:href="#DejaVuSans-4f" transform="translate(1237.03125 0)"/>
      <use xlink:href="#DejaVuSans-47" transform="translate(1264.8125 0)"/>
      <use xlink:href="#DejaVuSans-56" transform="translate(1328.296875 0)"/>
     </g>
    </g>
    <g id="patch_29">
     <path d="M 340.360697 486.396557 
L 360.360697 486.396557 
L 360.360697 479.396557 
L 340.360697 479.396557 
z
" style="fill: url(#hd2658c1424)"/>
    </g>
    <g id="text_42">
     <!-- Teste reservado -->
     <g transform="translate(368.360697 486.396557) scale(0.1 -0.1)">
      <use xlink:href="#DejaVuSans-37"/>
      <use xlink:href="#DejaVuSans-48" transform="translate(44.09375 0)"/>
      <use xlink:href="#DejaVuSans-56" transform="translate(105.625 0)"/>
      <use xlink:href="#DejaVuSans-57" transform="translate(157.71875 0)"/>
      <use xlink:href="#DejaVuSans-48" transform="translate(196.921875 0)"/>
      <use xlink:href="#DejaVuSans-3" transform="translate(258.453125 0)"/>
      <use xlink:href="#DejaVuSans-55" transform="translate(290.234375 0)"/>
      <use xlink:href="#DejaVuSans-48" transform="translate(329.140625 0)"/>
      <use xlink:href="#DejaVuSans-56" transform="translate(390.671875 0)"/>
      <use xlink:href="#DejaVuSans-48" transform="translate(442.765625 0)"/>
      <use xlink:href="#DejaVuSans-55" transform="translate(504.296875 0)"/>
      <use xlink:href="#DejaVuSans-59" transform="translate(545.40625 0)"/>
      <use xlink:href="#DejaVuSans-44" transform="translate(604.59375 0)"/>
      <use xlink:href="#DejaVuSans-47" transform="translate(665.875 0)"/>
      <use xlink:href="#DejaVuSans-52" transform="translate(729.359375 0)"/>
     </g>
    </g>
   </g>
  </g>
  <g id="text_43">
   <!-- Classificação: validação escolhe, teste avalia -->
   <g transform="translate(94.528594 14.413072) scale(0.13 -0.13)">
    <defs>
     <path id="DejaVuSans-Bold-26" d="M 4288 256 
Q 3956 84 3597 -3 
Q 3238 -91 2847 -91 
Q 1681 -91 1000 561 
Q 319 1213 319 2328 
Q 319 3447 1000 4098 
Q 1681 4750 2847 4750 
Q 3238 4750 3597 4662 
Q 3956 4575 4288 4403 
L 4288 3438 
Q 3953 3666 3628 3772 
Q 3303 3878 2944 3878 
Q 2300 3878 1931 3465 
Q 1563 3053 1563 2328 
Q 1563 1606 1931 1193 
Q 2300 781 2944 781 
Q 3303 781 3628 887 
Q 3953 994 4288 1222 
L 4288 256 
z
" transform="scale(0.015625)"/>
     <path id="DejaVuSans-Bold-4f" d="M 538 4863 
L 1656 4863 
L 1656 0 
L 538 0 
L 538 4863 
z
" transform="scale(0.015625)"/>
     <path id="DejaVuSans-Bold-44" d="M 2106 1575 
Q 1756 1575 1579 1456 
Q 1403 1338 1403 1106 
Q 1403 894 1545 773 
Q 1688 653 1941 653 
Q 2256 653 2472 879 
Q 2688 1106 2688 1447 
L 2688 1575 
L 2106 1575 
z
M 3816 1997 
L 3816 0 
L 2688 0 
L 2688 519 
Q 2463 200 2181 54 
Q 1900 -91 1497 -91 
Q 953 -91 614 226 
Q 275 544 275 1050 
Q 275 1666 698 1953 
Q 1122 2241 2028 2241 
L 2688 2241 
L 2688 2328 
Q 2688 2594 2478 2717 
Q 2269 2841 1825 2841 
Q 1466 2841 1156 2769 
Q 847 2697 581 2553 
L 581 3406 
Q 941 3494 1303 3539 
Q 1666 3584 2028 3584 
Q 2975 3584 3395 3211 
Q 3816 2838 3816 1997 
z
" transform="scale(0.015625)"/>
     <path id="DejaVuSans-Bold-56" d="M 3272 3391 
L 3272 2541 
Q 2913 2691 2578 2766 
Q 2244 2841 1947 2841 
Q 1628 2841 1473 2761 
Q 1319 2681 1319 2516 
Q 1319 2381 1436 2309 
Q 1553 2238 1856 2203 
L 2053 2175 
Q 2913 2066 3209 1816 
Q 3506 1566 3506 1031 
Q 3506 472 3093 190 
Q 2681 -91 1863 -91 
Q 1516 -91 1145 -36 
Q 775 19 384 128 
L 384 978 
Q 719 816 1070 734 
Q 1422 653 1784 653 
Q 2113 653 2278 743 
Q 2444 834 2444 1013 
Q 2444 1163 2330 1236 
Q 2216 1309 1875 1350 
L 1678 1375 
Q 931 1469 631 1722 
Q 331 1975 331 2491 
Q 331 3047 712 3315 
Q 1094 3584 1881 3584 
Q 2191 3584 2531 3537 
Q 2872 3491 3272 3391 
z
" transform="scale(0.015625)"/>
     <path id="DejaVuSans-Bold-4c" d="M 538 3500 
L 1656 3500 
L 1656 0 
L 538 0 
L 538 3500 
z
M 538 4863 
L 1656 4863 
L 1656 3950 
L 538 3950 
L 538 4863 
z
" transform="scale(0.015625)"/>
     <path id="DejaVuSans-Bold-13ab" d="M 3078 4863 
L 4206 4863 
L 4206 3950 
L 3078 3950 
L 3078 4863 
z
M 2847 4863 
L 2847 4128 
L 2228 4128 
Q 1994 4128 1903 4042 
Q 1813 3956 1813 3744 
L 1813 3500 
L 4206 3500 
L 4206 0 
L 3078 0 
L 3078 2700 
L 1813 2700 
L 1813 0 
L 684 0 
L 684 2700 
L 134 2700 
L 134 3500 
L 684 3500 
L 684 3744 
Q 684 4316 1003 4589 
Q 1322 4863 1991 4863 
L 2847 4863 
z
" transform="scale(0.015625)"/>
     <path id="DejaVuSans-Bold-46" d="M 3366 3391 
L 3366 2478 
Q 3138 2634 2908 2709 
Q 2678 2784 2431 2784 
Q 1963 2784 1702 2511 
Q 1441 2238 1441 1747 
Q 1441 1256 1702 982 
Q 1963 709 2431 709 
Q 2694 709 2930 787 
Q 3166 866 3366 1019 
L 3366 103 
Q 3103 6 2833 -42 
Q 2563 -91 2291 -91 
Q 1344 -91 809 395 
Q 275 881 275 1747 
Q 275 2613 809 3098 
Q 1344 3584 2291 3584 
Q 2566 3584 2833 3536 
Q 3100 3488 3366 3391 
z
" transform="scale(0.015625)"/>
     <path id="DejaVuSans-Bold-a9" d="M 3366 3391 
L 3366 2478 
Q 3138 2634 2908 2709 
Q 2678 2784 2431 2784 
Q 1963 2784 1702 2511 
Q 1441 2238 1441 1747 
Q 1441 1256 1702 982 
Q 1963 709 2431 709 
Q 2694 709 2930 787 
Q 3166 866 3366 1019 
L 3366 103 
Q 3103 6 2833 -42 
Q 2563 -91 2291 -91 
Q 1344 -91 809 395 
Q 275 881 275 1747 
Q 275 2613 809 3098 
Q 1344 3584 2291 3584 
Q 2566 3584 2833 3536 
Q 3100 3488 3366 3391 
z
M 2456 0 
Q 2638 -194 2723 -359 
Q 2809 -525 2809 -672 
Q 2809 -969 2617 -1111 
Q 2425 -1253 2028 -1253 
Q 1878 -1253 1718 -1233 
Q 1559 -1213 1397 -1172 
L 1394 -697 
Q 1550 -747 1679 -770 
Q 1809 -794 1913 -794 
Q 2094 -794 2195 -722 
Q 2297 -650 2297 -525 
Q 2297 -444 2230 -316 
Q 2163 -188 2022 0 
L 2456 0 
z
" transform="scale(0.015625)"/>
     <path id="DejaVuSans-Bold-a5" d="M 2106 1575 
Q 1756 1575 1579 1456 
Q 1403 1338 1403 1106 
Q 1403 894 1545 773 
Q 1688 653 1941 653 
Q 2256 653 2472 879 
Q 2688 1106 2688 1447 
L 2688 1575 
L 2106 1575 
z
M 3816 1997 
L 3816 0 
L 2688 0 
L 2688 519 
Q 2463 200 2181 54 
Q 1900 -91 1497 -91 
Q 953 -91 614 226 
Q 275 544 275 1050 
Q 275 1666 698 1953 
Q 1122 2241 2028 2241 
L 2688 2241 
L 2688 2328 
Q 2688 2594 2478 2717 
Q 2269 2841 1825 2841 
Q 1466 2841 1156 2769 
Q 847 2697 581 2553 
L 581 3406 
Q 941 3494 1303 3539 
Q 1666 3584 2028 3584 
Q 2975 3584 3395 3211 
Q 3816 2838 3816 1997 
z
M 2187 4263 
L 2015 4378 
Q 2003 4384 1984 4397 
Q 1837 4494 1759 4494 
Q 1647 4494 1587 4397 
Q 1528 4300 1528 4116 
L 1528 4091 
L 1094 4091 
Q 1094 4516 1254 4747 
Q 1415 4978 1706 4978 
Q 1819 4978 1933 4936 
Q 2047 4894 2175 4800 
L 2365 4666 
Q 2434 4619 2492 4594 
Q 2550 4569 2597 4569 
Q 2709 4569 2771 4669 
Q 2834 4769 2834 4947 
L 2834 4972 
L 3269 4972 
Q 3269 4547 3108 4315 
Q 2947 4084 2656 4084 
Q 2544 4084 2439 4121 
Q 2334 4159 2187 4263 
z
" transform="scale(0.015625)"/>
     <path id="DejaVuSans-Bold-52" d="M 2203 2784 
Q 1831 2784 1636 2517 
Q 1441 2250 1441 1747 
Q 1441 1244 1636 976 
Q 1831 709 2203 709 
Q 2569 709 2762 976 
Q 2956 1244 2956 1747 
Q 2956 2250 2762 2517 
Q 2569 2784 2203 2784 
z
M 2203 3584 
Q 3106 3584 3614 3096 
Q 4122 2609 4122 1747 
Q 4122 884 3614 396 
Q 3106 -91 2203 -91 
Q 1297 -91 786 396 
Q 275 884 275 1747 
Q 275 2609 786 3096 
Q 1297 3584 2203 3584 
z
" transform="scale(0.015625)"/>
     <path id="DejaVuSans-Bold-1d" d="M 716 3500 
L 1844 3500 
L 1844 2291 
L 716 2291 
L 716 3500 
z
M 716 1209 
L 1844 1209 
L 1844 0 
L 716 0 
L 716 1209 
z
" transform="scale(0.015625)"/>
     <path id="DejaVuSans-Bold-3" transform="scale(0.015625)"/>
     <path id="DejaVuSans-Bold-59" d="M 97 3500 
L 1216 3500 
L 2088 1081 
L 2956 3500 
L 4078 3500 
L 2700 0 
L 1472 0 
L 97 3500 
z
" transform="scale(0.015625)"/>
     <path id="DejaVuSans-Bold-47" d="M 2919 2988 
L 2919 4863 
L 4044 4863 
L 4044 0 
L 2919 0 
L 2919 506 
Q 2688 197 2409 53 
Q 2131 -91 1766 -91 
Q 1119 -91 703 423 
Q 288 938 288 1747 
Q 288 2556 703 3070 
Q 1119 3584 1766 3584 
Q 2128 3584 2408 3439 
Q 2688 3294 2919 2988 
z
M 2181 722 
Q 2541 722 2730 984 
Q 2919 1247 2919 1747 
Q 2919 2247 2730 2509 
Q 2541 2772 2181 2772 
Q 1825 2772 1636 2509 
Q 1447 2247 1447 1747 
Q 1447 1247 1636 984 
Q 1825 722 2181 722 
z
" transform="scale(0.015625)"/>
     <path id="DejaVuSans-Bold-48" d="M 4031 1759 
L 4031 1441 
L 1416 1441 
Q 1456 1047 1700 850 
Q 1944 653 2381 653 
Q 2734 653 3104 758 
Q 3475 863 3866 1075 
L 3866 213 
Q 3469 63 3072 -14 
Q 2675 -91 2278 -91 
Q 1328 -91 801 392 
Q 275 875 275 1747 
Q 275 2603 792 3093 
Q 1309 3584 2216 3584 
Q 3041 3584 3536 3087 
Q 4031 2591 4031 1759 
z
M 2881 2131 
Q 2881 2450 2695 2645 
Q 2509 2841 2209 2841 
Q 1884 2841 1681 2658 
Q 1478 2475 1428 2131 
L 2881 2131 
z
" transform="scale(0.015625)"/>
     <path id="DejaVuSans-Bold-4b" d="M 4056 2131 
L 4056 0 
L 2931 0 
L 2931 347 
L 2931 1625 
Q 2931 2084 2911 2256 
Q 2891 2428 2841 2509 
Q 2775 2619 2662 2680 
Q 2550 2741 2406 2741 
Q 2056 2741 1856 2470 
Q 1656 2200 1656 1722 
L 1656 0 
L 538 0 
L 538 4863 
L 1656 4863 
L 1656 2988 
Q 1909 3294 2193 3439 
Q 2478 3584 2822 3584 
Q 3428 3584 3742 3212 
Q 4056 2841 4056 2131 
z
" transform="scale(0.015625)"/>
     <path id="DejaVuSans-Bold-f" d="M 653 1209 
L 1778 1209 
L 1778 256 
L 1006 -909 
L 341 -909 
L 653 256 
L 653 1209 
z
" transform="scale(0.015625)"/>
     <path id="DejaVuSans-Bold-57" d="M 1759 4494 
L 1759 3500 
L 2913 3500 
L 2913 2700 
L 1759 2700 
L 1759 1216 
Q 1759 972 1856 886 
Q 1953 800 2241 800 
L 2816 800 
L 2816 0 
L 1856 0 
Q 1194 0 917 276 
Q 641 553 641 1216 
L 641 2700 
L 84 2700 
L 84 3500 
L 641 3500 
L 641 4494 
L 1759 4494 
z
" transform="scale(0.015625)"/>
    </defs>
    <use xlink:href="#DejaVuSans-Bold-26"/>
    <use xlink:href="#DejaVuSans-Bold-4f" transform="translate(73.390625 0)"/>
    <use xlink:href="#DejaVuSans-Bold-44" transform="translate(107.671875 0)"/>
    <use xlink:href="#DejaVuSans-Bold-56" transform="translate(175.15625 0)"/>
    <use xlink:href="#DejaVuSans-Bold-56" transform="translate(234.671875 0)"/>
    <use xlink:href="#DejaVuSans-Bold-4c" transform="translate(294.1875 0)"/>
    <use xlink:href="#DejaVuSans-Bold-13ab" transform="translate(328.46875 0)"/>
    <use xlink:href="#DejaVuSans-Bold-46" transform="translate(402.59375 0)"/>
    <use xlink:href="#DejaVuSans-Bold-44" transform="translate(461.875 0)"/>
    <use xlink:href="#DejaVuSans-Bold-a9" transform="translate(529.359375 0)"/>
    <use xlink:href="#DejaVuSans-Bold-a5" transform="translate(588.640625 0)"/>
    <use xlink:href="#DejaVuSans-Bold-52" transform="translate(656.125 0)"/>
    <use xlink:href="#DejaVuSans-Bold-1d" transform="translate(724.828125 0)"/>
    <use xlink:href="#DejaVuSans-Bold-3" transform="translate(764.8125 0)"/>
    <use xlink:href="#DejaVuSans-Bold-59" transform="translate(799.625 0)"/>
    <use xlink:href="#DejaVuSans-Bold-44" transform="translate(864.8125 0)"/>
    <use xlink:href="#DejaVuSans-Bold-4f" transform="translate(932.296875 0)"/>
    <use xlink:href="#DejaVuSans-Bold-4c" transform="translate(966.578125 0)"/>
    <use xlink:href="#DejaVuSans-Bold-47" transform="translate(1000.859375 0)"/>
    <use xlink:href="#DejaVuSans-Bold-44" transform="translate(1072.4375 0)"/>
    <use xlink:href="#DejaVuSans-Bold-a9" transform="translate(1139.921875 0)"/>
    <use xlink:href="#DejaVuSans-Bold-a5" transform="translate(1199.203125 0)"/>
    <use xlink:href="#DejaVuSans-Bold-52" transform="translate(1266.6875 0)"/>
    <use xlink:href="#DejaVuSans-Bold-3" transform="translate(1335.390625 0)"/>
    <use xlink:href="#DejaVuSans-Bold-48" transform="translate(1370.203125 0)"/>
    <use xlink:href="#DejaVuSans-Bold-56" transform="translate(1438.03125 0)"/>
    <use xlink:href="#DejaVuSans-Bold-46" transform="translate(1497.546875 0)"/>
    <use xlink:href="#DejaVuSans-Bold-52" transform="translate(1556.828125 0)"/>
    <use xlink:href="#DejaVuSans-Bold-4f" transform="translate(1625.53125 0)"/>
    <use xlink:href="#DejaVuSans-Bold-4b" transform="translate(1659.8125 0)"/>
    <use xlink:href="#DejaVuSans-Bold-48" transform="translate(1731 0)"/>
    <use xlink:href="#DejaVuSans-Bold-f" transform="translate(1798.828125 0)"/>
    <use xlink:href="#DejaVuSans-Bold-3" transform="translate(1836.8125 0)"/>
    <use xlink:href="#DejaVuSans-Bold-57" transform="translate(1871.625 0)"/>
    <use xlink:href="#DejaVuSans-Bold-48" transform="translate(1919.421875 0)"/>
    <use xlink:href="#DejaVuSans-Bold-56" transform="translate(1987.25 0)"/>
    <use xlink:href="#DejaVuSans-Bold-57" transform="translate(2046.765625 0)"/>
    <use xlink:href="#DejaVuSans-Bold-48" transform="translate(2094.5625 0)"/>
    <use xlink:href="#DejaVuSans-Bold-3" transform="translate(2162.390625 0)"/>
    <use xlink:href="#DejaVuSans-Bold-44" transform="translate(2197.203125 0)"/>
    <use xlink:href="#DejaVuSans-Bold-59" transform="translate(2264.6875 0)"/>
    <use xlink:href="#DejaVuSans-Bold-44" transform="translate(2329.875 0)"/>
    <use xlink:href="#DejaVuSans-Bold-4f" transform="translate(2397.359375 0)"/>
    <use xlink:href="#DejaVuSans-Bold-4c" transform="translate(2431.640625 0)"/>
    <use xlink:href="#DejaVuSans-Bold-44" transform="translate(2465.921875 0)"/>
   </g>
   <!-- F1 macro (0 a 1) | maior é melhor | * selecionado na validação -->
   <g transform="translate(32.006719 30.536627) scale(0.13 -0.13)">
    <defs>
     <path id="DejaVuSans-Bold-29" d="M 588 4666 
L 3834 4666 
L 3834 3756 
L 1791 3756 
L 1791 2888 
L 3713 2888 
L 3713 1978 
L 1791 1978 
L 1791 0 
L 588 0 
L 588 4666 
z
" transform="scale(0.015625)"/>
     <path id="DejaVuSans-Bold-14" d="M 750 831 
L 1813 831 
L 1813 3847 
L 722 3622 
L 722 4441 
L 1806 4666 
L 2950 4666 
L 2950 831 
L 4013 831 
L 4013 0 
L 750 0 
L 750 831 
z
" transform="scale(0.015625)"/>
     <path id="DejaVuSans-Bold-50" d="M 3781 2919 
Q 3994 3244 4286 3414 
Q 4578 3584 4928 3584 
Q 5531 3584 5847 3212 
Q 6163 2841 6163 2131 
L 6163 0 
L 5038 0 
L 5038 1825 
Q 5041 1866 5042 1909 
Q 5044 1953 5044 2034 
Q 5044 2406 4934 2573 
Q 4825 2741 4581 2741 
Q 4263 2741 4089 2478 
Q 3916 2216 3909 1719 
L 3909 0 
L 2784 0 
L 2784 1825 
Q 2784 2406 2684 2573 
Q 2584 2741 2328 2741 
Q 2006 2741 1831 2477 
Q 1656 2213 1656 1722 
L 1656 0 
L 531 0 
L 531 3500 
L 1656 3500 
L 1656 2988 
Q 1863 3284 2130 3434 
Q 2397 3584 2719 3584 
Q 3081 3584 3359 3409 
Q 3638 3234 3781 2919 
z
" transform="scale(0.015625)"/>
     <path id="DejaVuSans-Bold-55" d="M 3138 2547 
Q 2991 2616 2845 2648 
Q 2700 2681 2553 2681 
Q 2122 2681 1889 2404 
Q 1656 2128 1656 1613 
L 1656 0 
L 538 0 
L 538 3500 
L 1656 3500 
L 1656 2925 
Q 1872 3269 2151 3426 
Q 2431 3584 2822 3584 
Q 2878 3584 2943 3579 
Q 3009 3575 3134 3559 
L 3138 2547 
z
" transform="scale(0.015625)"/>
     <path id="DejaVuSans-Bold-b" d="M 2413 -844 
L 1484 -844 
Q 1006 -72 778 623 
Q 550 1319 550 2003 
Q 550 2688 779 3389 
Q 1009 4091 1484 4856 
L 2413 4856 
Q 2013 4116 1813 3408 
Q 1613 2700 1613 2009 
Q 1613 1319 1811 609 
Q 2009 -100 2413 -844 
z
" transform="scale(0.015625)"/>
     <path id="DejaVuSans-Bold-13" d="M 2944 2338 
Q 2944 3213 2780 3570 
Q 2616 3928 2228 3928 
Q 1841 3928 1675 3570 
Q 1509 3213 1509 2338 
Q 1509 1453 1675 1090 
Q 1841 728 2228 728 
Q 2613 728 2778 1090 
Q 2944 1453 2944 2338 
z
M 4147 2328 
Q 4147 1169 3647 539 
Q 3147 -91 2228 -91 
Q 1306 -91 806 539 
Q 306 1169 306 2328 
Q 306 3491 806 4120 
Q 1306 4750 2228 4750 
Q 3147 4750 3647 4120 
Q 4147 3491 4147 2328 
z
" transform="scale(0.015625)"/>
     <path id="DejaVuSans-Bold-c" d="M 513 -844 
Q 913 -100 1113 609 
Q 1313 1319 1313 2009 
Q 1313 2700 1113 3408 
Q 913 4116 513 4856 
L 1441 4856 
Q 1916 4091 2145 3389 
Q 2375 2688 2375 2003 
Q 2375 1319 2147 623 
Q 1919 -72 1441 -844 
L 513 -844 
z
" transform="scale(0.015625)"/>
     <path id="DejaVuSans-Bold-5f" d="M 1522 4891 
L 1522 -1509 
L 813 -1509 
L 813 4891 
L 1522 4891 
z
" transform="scale(0.015625)"/>
     <path id="DejaVuSans-Bold-ab" d="M 4031 1759 
L 4031 1441 
L 1416 1441 
Q 1456 1047 1700 850 
Q 1944 653 2381 653 
Q 2734 653 3104 758 
Q 3475 863 3866 1075 
L 3866 213 
Q 3469 63 3072 -14 
Q 2675 -91 2278 -91 
Q 1328 -91 801 392 
Q 275 875 275 1747 
Q 275 2603 792 3093 
Q 1309 3584 2216 3584 
Q 3041 3584 3536 3087 
Q 4031 2591 4031 1759 
z
M 2881 2131 
Q 2881 2450 2695 2645 
Q 2509 2841 2209 2841 
Q 1884 2841 1681 2658 
Q 1478 2475 1428 2131 
L 2881 2131 
z
M 2700 5119 
L 3584 5119 
L 2431 3944 
L 1819 3944 
L 2700 5119 
z
" transform="scale(0.015625)"/>
     <path id="DejaVuSans-Bold-d" d="M 3219 3803 
L 2188 3263 
L 3219 2719 
L 2981 2278 
L 1941 2853 
L 1941 1778 
L 1409 1778 
L 1409 2853 
L 366 2278 
L 128 2719 
L 1172 3263 
L 128 3803 
L 366 4244 
L 1409 3675 
L 1409 4750 
L 1941 4750 
L 1941 3675 
L 2981 4244 
L 3219 3803 
z
" transform="scale(0.015625)"/>
     <path id="DejaVuSans-Bold-51" d="M 4056 2131 
L 4056 0 
L 2931 0 
L 2931 347 
L 2931 1631 
Q 2931 2084 2911 2256 
Q 2891 2428 2841 2509 
Q 2775 2619 2662 2680 
Q 2550 2741 2406 2741 
Q 2056 2741 1856 2470 
Q 1656 2200 1656 1722 
L 1656 0 
L 538 0 
L 538 3500 
L 1656 3500 
L 1656 2988 
Q 1909 3294 2193 3439 
Q 2478 3584 2822 3584 
Q 3428 3584 3742 3212 
Q 4056 2841 4056 2131 
z
" transform="scale(0.015625)"/>
    </defs>
    <use xlink:href="#DejaVuSans-Bold-29"/>
    <use xlink:href="#DejaVuSans-Bold-14" transform="translate(68.3125 0)"/>
    <use xlink:href="#DejaVuSans-Bold-3" transform="translate(137.890625 0)"/>
    <use xlink:href="#DejaVuSans-Bold-50" transform="translate(172.703125 0)"/>
    <use xlink:href="#DejaVuSans-Bold-44" transform="translate(276.90625 0)"/>
    <use xlink:href="#DejaVuSans-Bold-46" transform="translate(344.390625 0)"/>
    <use xlink:href="#DejaVuSans-Bold-55" transform="translate(403.671875 0)"/>
    <use xlink:href="#DejaVuSans-Bold-52" transform="translate(452.984375 0)"/>
    <use xlink:href="#DejaVuSans-Bold-3" transform="translate(521.6875 0)"/>
    <use xlink:href="#DejaVuSans-Bold-b" transform="translate(556.5 0)"/>
    <use xlink:href="#DejaVuSans-Bold-13" transform="translate(602.203125 0)"/>
    <use xlink:href="#DejaVuSans-Bold-3" transform="translate(671.78125 0)"/>
    <use xlink:href="#DejaVuSans-Bold-44" transform="translate(706.59375 0)"/>
    <use xlink:href="#DejaVuSans-Bold-3" transform="translate(774.078125 0)"/>
    <use xlink:href="#DejaVuSans-Bold-14" transform="translate(808.890625 0)"/>
    <use xlink:href="#DejaVuSans-Bold-c" transform="translate(878.46875 0)"/>
    <use xlink:href="#DejaVuSans-Bold-3" transform="translate(924.171875 0)"/>
    <use xlink:href="#DejaVuSans-Bold-5f" transform="translate(958.984375 0)"/>
    <use xlink:href="#DejaVuSans-Bold-3" transform="translate(995.515625 0)"/>
    <use xlink:href="#DejaVuSans-Bold-50" transform="translate(1030.328125 0)"/>
    <use xlink:href="#DejaVuSans-Bold-44" transform="translate(1134.53125 0)"/>
    <use xlink:href="#DejaVuSans-Bold-4c" transform="translate(1202.015625 0)"/>
    <use xlink:href="#DejaVuSans-Bold-52" transform="translate(1236.296875 0)"/>
    <use xlink:href="#DejaVuSans-Bold-55" transform="translate(1305 0)"/>
    <use xlink:href="#DejaVuSans-Bold-3" transform="translate(1354.3125 0)"/>
    <use xlink:href="#DejaVuSans-Bold-ab" transform="translate(1389.125 0)"/>
    <use xlink:href="#DejaVuSans-Bold-3" transform="translate(1456.953125 0)"/>
    <use xlink:href="#DejaVuSans-Bold-50" transform="translate(1491.765625 0)"/>
    <use xlink:href="#DejaVuSans-Bold-48" transform="translate(1595.96875 0)"/>
    <use xlink:href="#DejaVuSans-Bold-4f" transform="translate(1663.796875 0)"/>
    <use xlink:href="#DejaVuSans-Bold-4b" transform="translate(1698.078125 0)"/>
    <use xlink:href="#DejaVuSans-Bold-52" transform="translate(1769.265625 0)"/>
    <use xlink:href="#DejaVuSans-Bold-55" transform="translate(1837.96875 0)"/>
    <use xlink:href="#DejaVuSans-Bold-3" transform="translate(1887.28125 0)"/>
    <use xlink:href="#DejaVuSans-Bold-5f" transform="translate(1922.09375 0)"/>
    <use xlink:href="#DejaVuSans-Bold-3" transform="translate(1958.625 0)"/>
    <use xlink:href="#DejaVuSans-Bold-d" transform="translate(1993.4375 0)"/>
    <use xlink:href="#DejaVuSans-Bold-3" transform="translate(2045.734375 0)"/>
    <use xlink:href="#DejaVuSans-Bold-56" transform="translate(2080.546875 0)"/>
    <use xlink:href="#DejaVuSans-Bold-48" transform="translate(2140.0625 0)"/>
    <use xlink:href="#DejaVuSans-Bold-4f" transform="translate(2207.890625 0)"/>
    <use xlink:href="#DejaVuSans-Bold-48" transform="translate(2242.171875 0)"/>
    <use xlink:href="#DejaVuSans-Bold-46" transform="translate(2310 0)"/>
    <use xlink:href="#DejaVuSans-Bold-4c" transform="translate(2369.28125 0)"/>
    <use xlink:href="#DejaVuSans-Bold-52" transform="translate(2403.5625 0)"/>
    <use xlink:href="#DejaVuSans-Bold-51" transform="translate(2472.265625 0)"/>
    <use xlink:href="#DejaVuSans-Bold-44" transform="translate(2543.453125 0)"/>
    <use xlink:href="#DejaVuSans-Bold-47" transform="translate(2610.9375 0)"/>
    <use xlink:href="#DejaVuSans-Bold-52" transform="translate(2682.515625 0)"/>
    <use xlink:href="#DejaVuSans-Bold-3" transform="translate(2751.21875 0)"/>
    <use xlink:href="#DejaVuSans-Bold-51" transform="translate(2786.03125 0)"/>
    <use xlink:href="#DejaVuSans-Bold-44" transform="translate(2857.21875 0)"/>
    <use xlink:href="#DejaVuSans-Bold-3" transform="translate(2924.703125 0)"/>
    <use xlink:href="#DejaVuSans-Bold-59" transform="translate(2959.515625 0)"/>
    <use xlink:href="#DejaVuSans-Bold-44" transform="translate(3024.703125 0)"/>
    <use xlink:href="#DejaVuSans-Bold-4f" transform="translate(3092.1875 0)"/>
    <use xlink:href="#DejaVuSans-Bold-4c" transform="translate(3126.46875 0)"/>
    <use xlink:href="#DejaVuSans-Bold-47" transform="translate(3160.75 0)"/>
    <use xlink:href="#DejaVuSans-Bold-44" transform="translate(3232.328125 0)"/>
    <use xlink:href="#DejaVuSans-Bold-a9" transform="translate(3299.8125 0)"/>
    <use xlink:href="#DejaVuSans-Bold-a5" transform="translate(3359.09375 0)"/>
    <use xlink:href="#DejaVuSans-Bold-52" transform="translate(3426.578125 0)"/>
   </g>
  </g>
 </g>
 <defs>
  <clipPath id="p8d882b9ef5">
   <rect x="118.133678" y="56.132048" width="397.266082" height="194.247444"/>
  </clipPath>
  <clipPath id="p5ea2d1ffde">
   <rect x="118.133678" y="303.551457" width="397.266082" height="194.247444"/>
  </clipPath>
 </defs>
 <defs>
  <pattern id="hd2658c1424" patternUnits="userSpaceOnUse" x="0" y="0" width="72" height="72">
   <rect x="0" y="0" width="73" height="73" fill="#d87821"/>
   <path d="M -36 36 
L 36 -36 
M -30 42 
L 42 -30 
M -24 48 
L 48 -24 
M -18 54 
L 54 -18 
M -12 60 
L 60 -12 
M -6 66 
L 66 -6 
M 0 72 
L 72 0 
M 6 78 
L 78 6 
M 12 84 
L 84 12 
M 18 90 
L 90 18 
M 24 96 
L 96 24 
M 30 102 
L 102 30 
M 36 108 
L 108 36 
" style="fill: #000000; stroke: #000000; stroke-width: 1.0; stroke-linecap: butt; stroke-linejoin: miter"/>
  </pattern>
 </defs>
</svg>
