<?xml version="1.0" encoding="utf-8" standalone="no"?>
<!DOCTYPE svg PUBLIC "-//W3C//DTD SVG 1.1//EN"
  "http://www.w3.org/Graphics/SVG/1.1/DTD/svg11.dtd">
<svg xmlns:xlink="http://www.w3.org/1999/xlink" width="526.79952pt" height="303.59952pt" viewBox="0 0 526.79952 303.59952" xmlns="http://www.w3.org/2000/svg" version="1.1">
 <metadata>
  <rdf:RDF xmlns:dc="http://purl.org/dc/elements/1.1/" xmlns:cc="http://creativecommons.org/ns#" xmlns:rdf="http://www.w3.org/1999/02/22-rdf-syntax-ns#">
   <cc:Work>
    <dc:type rdf:resource="http://purl.org/dc/dcmitype/StillImage"/>
    <dc:date>2026-09-28T19:19:03.609295</dc:date>
    <dc:format>image/svg+xml</dc:format>
    <dc:creator>
     <cc:Agent>
      <dc:title>Matplotlib v3.11.2, https://matplotlib.org/</dc:title>
     </cc:Agent>
    </dc:creator>
   </cc:Work>
  </rdf:RDF>
 </metadata>
 <defs>
  <style type="text/css">*{stroke-linejoin: round; stroke-linecap: butt}</style>
 </defs>
 <g id="figure_1">
  <g id="patch_1">
   <path d="M 0 303.59952 
L 526.79952 303.59952 
L 526.79952 0 
L 0 0 
z
" style="fill: #ffffff"/>
  </g>
  <g id="axes_1">
   <g id="patch_2">
    <path d="M 45.416406 263.958661 
L 519.59952 263.958661 
L 519.59952 44.984464 
L 45.416406 44.984464 
z
" style="fill: #ffffff"/>
   </g>
   <g id="PathCollection_1">
    <defs>
     <path id="mc987518211" d="M 0 2.645751 
C 0.701661 2.645751 1.374679 2.366978 1.870829 1.870829 
C 2.366978 1.374679 2.645751 0.701661 2.645751 0 
C 2.645751 -0.701661 2.366978 -1.374679 1.870829 -1.870829 
C 1.374679 -2.366978 0.701661 -2.645751 0 -2.645751 
C -0.701661 -2.645751 -1.374679 -2.366978 -1.870829 -1.870829 
C -2.366978 -1.374679 -2.645751 -0.701661 -2.645751 0 
C -2.645751 0.701661 -2.366978 1.374679 -1.870829 1.870829 
C -1.374679 2.366978 -0.701661 2.645751 0 2.645751 
z
" style="stroke: #ffffff; stroke-opacity: 0.65; stroke-width: 0.3"/>
    </defs>
    <g clip-path="url(#pb89ce38526)">
     <use xlink:href="#mc987518211" x="182.532897" y="105.496931" style="fill: #17618b; fill-opacity: 0.65; stroke: #ffffff; stroke-opacity: 0.65; stroke-width: 0.3"/>
     <use xlink:href="#mc987518211" x="66.970184" y="254.005288" style="fill: #17618b; fill-opacity: 0.65; stroke: #ffffff; stroke-opacity: 0.65; stroke-width: 0.3"/>
     <use xlink:href="#mc987518211" x="217.805266" y="211.281838" style="fill: #17618b; fill-opacity: 0.65; stroke: #ffffff; stroke-opacity: 0.65; stroke-width: 0.3"/>
     <use xlink:href="#mc987518211" x="221.032056" y="91.250108" style="fill: #17618b; fill-opacity: 0.65; stroke: #ffffff; stroke-opacity: 0.65; stroke-width: 0.3"/>
     <use xlink:href="#mc987518211" x="243.511581" y="84.862086" style="fill: #17618b; fill-opacity: 0.65; stroke: #ffffff; stroke-opacity: 0.65; stroke-width: 0.3"/>
     <use xlink:href="#mc987518211" x="267.160688" y="54.937837" style="fill: #17618b; fill-opacity: 0.65; stroke: #ffffff; stroke-opacity: 0.65; stroke-width: 0.3"/>
     <use xlink:href="#mc987518211" x="179.036997" y="113.584244" style="fill: #17618b; fill-opacity: 0.65; stroke: #ffffff; stroke-opacity: 0.65; stroke-width: 0.3"/>
     <use xlink:href="#mc987518211" x="171.208499" y="214.392703" style="fill: #17618b; fill-opacity: 0.65; stroke: #ffffff; stroke-opacity: 0.65; stroke-width: 0.3"/>
     <use xlink:href="#mc987518211" x="173.783255" y="228.465462" style="fill: #17618b; fill-opacity: 0.65; stroke: #ffffff; stroke-opacity: 0.65; stroke-width: 0.3"/>
     <use xlink:href="#mc987518211" x="182.451642" y="86.642135" style="fill: #17618b; fill-opacity: 0.65; stroke: #ffffff; stroke-opacity: 0.65; stroke-width: 0.3"/>
     <use xlink:href="#mc987518211" x="158.999257" y="230.625896" style="fill: #17618b; fill-opacity: 0.65; stroke: #ffffff; stroke-opacity: 0.65; stroke-width: 0.3"/>
     <use xlink:href="#mc987518211" x="175.996089" y="199.997855" style="fill: #17618b; fill-opacity: 0.65; stroke: #ffffff; stroke-opacity: 0.65; stroke-width: 0.3"/>
     <use xlink:href="#mc987518211" x="216.660951" y="94.697473" style="fill: #17618b; fill-opacity: 0.65; stroke: #ffffff; stroke-opacity: 0.65; stroke-width: 0.3"/>
     <use xlink:href="#mc987518211" x="220.213869" y="70.926348" style="fill: #17618b; fill-opacity: 0.65; stroke: #ffffff; stroke-opacity: 0.65; stroke-width: 0.3"/>
     <use xlink:href="#mc987518211" x="236.906223" y="87.149803" style="fill: #17618b; fill-opacity: 0.65; stroke: #ffffff; stroke-opacity: 0.65; stroke-width: 0.3"/>
     <use xlink:href="#mc987518211" x="245.5062" y="102.205635" style="fill: #17618b; fill-opacity: 0.65; stroke: #ffffff; stroke-opacity: 0.65; stroke-width: 0.3"/>
     <use xlink:href="#mc987518211" x="187.831287" y="125.632026" style="fill: #17618b; fill-opacity: 0.65; stroke: #ffffff; stroke-opacity: 0.65; stroke-width: 0.3"/>
     <use xlink:href="#mc987518211" x="185.55015" y="123.08685" style="fill: #17618b; fill-opacity: 0.65; stroke: #ffffff; stroke-opacity: 0.65; stroke-width: 0.3"/>
     <use xlink:href="#mc987518211" x="190.010772" y="129.065567" style="fill: #17618b; fill-opacity: 0.65; stroke: #ffffff; stroke-opacity: 0.65; stroke-width: 0.3"/>
     <use xlink:href="#mc987518211" x="223.506371" y="174.363061" style="fill: #17618b; fill-opacity: 0.65; stroke: #ffffff; stroke-opacity: 0.65; stroke-width: 0.3"/>
     <use xlink:href="#mc987518211" x="218.956971" y="151.975975" style="fill: #17618b; fill-opacity: 0.65; stroke: #ffffff; stroke-opacity: 0.65; stroke-width: 0.3"/>
     <use xlink:href="#mc987518211" x="216.567896" y="172.441173" style="fill: #17618b; fill-opacity: 0.65; stroke: #ffffff; stroke-opacity: 0.65; stroke-width: 0.3"/>
     <use xlink:href="#mc987518211" x="212.010513" y="150.078089" style="fill: #17618b; fill-opacity: 0.65; stroke: #ffffff; stroke-opacity: 0.65; stroke-width: 0.3"/>
     <use xlink:href="#mc987518211" x="224.282513" y="173.401309" style="fill: #17618b; fill-opacity: 0.65; stroke: #ffffff; stroke-opacity: 0.65; stroke-width: 0.3"/>
     <use xlink:href="#mc987518211" x="224.459785" y="107.605849" style="fill: #17618b; fill-opacity: 0.65; stroke: #ffffff; stroke-opacity: 0.65; stroke-width: 0.3"/>
     <use xlink:href="#mc987518211" x="286.189906" y="222.464548" style="fill: #17618b; fill-opacity: 0.65; stroke: #ffffff; stroke-opacity: 0.65; stroke-width: 0.3"/>
     <use xlink:href="#mc987518211" x="213.993819" y="146.345296" style="fill: #17618b; fill-opacity: 0.65; stroke: #ffffff; stroke-opacity: 0.65; stroke-width: 0.3"/>
     <use xlink:href="#mc987518211" x="225.706058" y="139.924446" style="fill: #17618b; fill-opacity: 0.65; stroke: #ffffff; stroke-opacity: 0.65; stroke-width: 0.3"/>
     <use xlink:href="#mc987518211" x="66.970184" y="254.005288" style="fill: #17618b; fill-opacity: 0.65; stroke: #ffffff; stroke-opacity: 0.65; stroke-width: 0.3"/>
     <use xlink:href="#mc987518211" x="66.970184" y="254.005288" style="fill: #17618b; fill-opacity: 0.65; stroke: #ffffff; stroke-opacity: 0.65; stroke-width: 0.3"/>
     <use xlink:href="#mc987518211" x="179.447453" y="91.796735" style="fill: #17618b; fill-opacity: 0.65; stroke: #ffffff; stroke-opacity: 0.65; stroke-width: 0.3"/>
     <use xlink:href="#mc987518211" x="188.178744" y="62.151032" style="fill: #17618b; fill-opacity: 0.65; stroke: #ffffff; stroke-opacity: 0.65; stroke-width: 0.3"/>
     <use xlink:href="#mc987518211" x="166.469234" y="127.425016" style="fill: #17618b; fill-opacity: 0.65; stroke: #ffffff; stroke-opacity: 0.65; stroke-width: 0.3"/>
     <use xlink:href="#mc987518211" x="199.415771" y="93.807495" style="fill: #17618b; fill-opacity: 0.65; stroke: #ffffff; stroke-opacity: 0.65; stroke-width: 0.3"/>
     <use xlink:href="#mc987518211" x="188.933293" y="197.456693" style="fill: #17618b; fill-opacity: 0.65; stroke: #ffffff; stroke-opacity: 0.65; stroke-width: 0.3"/>
     <use xlink:href="#mc987518211" x="181.637266" y="219.393657" style="fill: #17618b; fill-opacity: 0.65; stroke: #ffffff; stroke-opacity: 0.65; stroke-width: 0.3"/>
     <use xlink:href="#mc987518211" x="172.943739" y="205.297261" style="fill: #17618b; fill-opacity: 0.65; stroke: #ffffff; stroke-opacity: 0.65; stroke-width: 0.3"/>
     <use xlink:href="#mc987518211" x="199.415771" y="93.807495" style="fill: #17618b; fill-opacity: 0.65; stroke: #ffffff; stroke-opacity: 0.65; stroke-width: 0.3"/>
     <use xlink:href="#mc987518211" x="200.847007" y="103.464321" style="fill: #17618b; fill-opacity: 0.65; stroke: #ffffff; stroke-opacity: 0.65; stroke-width: 0.3"/>
     <use xlink:href="#mc987518211" x="180.140554" y="129.656649" style="fill: #17618b; fill-opacity: 0.65; stroke: #ffffff; stroke-opacity: 0.65; stroke-width: 0.3"/>
     <use xlink:href="#mc987518211" x="194.232519" y="123.352104" style="fill: #17618b; fill-opacity: 0.65; stroke: #ffffff; stroke-opacity: 0.65; stroke-width: 0.3"/>
     <use xlink:href="#mc987518211" x="204.683769" y="106.459063" style="fill: #17618b; fill-opacity: 0.65; stroke: #ffffff; stroke-opacity: 0.65; stroke-width: 0.3"/>
     <use xlink:href="#mc987518211" x="207.632342" y="133.671472" style="fill: #17618b; fill-opacity: 0.65; stroke: #ffffff; stroke-opacity: 0.65; stroke-width: 0.3"/>
     <use xlink:href="#mc987518211" x="203.714221" y="109.386322" style="fill: #17618b; fill-opacity: 0.65; stroke: #ffffff; stroke-opacity: 0.65; stroke-width: 0.3"/>
     <use xlink:href="#mc987518211" x="155.696944" y="72.310393" style="fill: #17618b; fill-opacity: 0.65; stroke: #ffffff; stroke-opacity: 0.65; stroke-width: 0.3"/>
     <use xlink:href="#mc987518211" x="195.091338" y="75.736034" style="fill: #17618b; fill-opacity: 0.65; stroke: #ffffff; stroke-opacity: 0.65; stroke-width: 0.3"/>
     <use xlink:href="#mc987518211" x="159.467716" y="130.055535" style="fill: #17618b; fill-opacity: 0.65; stroke: #ffffff; stroke-opacity: 0.65; stroke-width: 0.3"/>
     <use xlink:href="#mc987518211" x="203.193788" y="103.667561" style="fill: #17618b; fill-opacity: 0.65; stroke: #ffffff; stroke-opacity: 0.65; stroke-width: 0.3"/>
     <use xlink:href="#mc987518211" x="206.324827" y="129.895065" style="fill: #17618b; fill-opacity: 0.65; stroke: #ffffff; stroke-opacity: 0.65; stroke-width: 0.3"/>
     <use xlink:href="#mc987518211" x="202.059656" y="106.653389" style="fill: #17618b; fill-opacity: 0.65; stroke: #ffffff; stroke-opacity: 0.65; stroke-width: 0.3"/>
     <use xlink:href="#mc987518211" x="161.350527" y="124.818655" style="fill: #17618b; fill-opacity: 0.65; stroke: #ffffff; stroke-opacity: 0.65; stroke-width: 0.3"/>
     <use xlink:href="#mc987518211" x="151.658965" y="162.259817" style="fill: #17618b; fill-opacity: 0.65; stroke: #ffffff; stroke-opacity: 0.65; stroke-width: 0.3"/>
     <use xlink:href="#mc987518211" x="159.158453" y="144.558723" style="fill: #17618b; fill-opacity: 0.65; stroke: #ffffff; stroke-opacity: 0.65; stroke-width: 0.3"/>
     <use xlink:href="#mc987518211" x="196.439014" y="123.746879" style="fill: #17618b; fill-opacity: 0.65; stroke: #ffffff; stroke-opacity: 0.65; stroke-width: 0.3"/>
     <use xlink:href="#mc987518211" x="215.48645" y="90.957419" style="fill: #17618b; fill-opacity: 0.65; stroke: #ffffff; stroke-opacity: 0.65; stroke-width: 0.3"/>
     <use xlink:href="#mc987518211" x="165.988171" y="87.128761" style="fill: #17618b; fill-opacity: 0.65; stroke: #ffffff; stroke-opacity: 0.65; stroke-width: 0.3"/>
     <use xlink:href="#mc987518211" x="203.193788" y="103.667561" style="fill: #17618b; fill-opacity: 0.65; stroke: #ffffff; stroke-opacity: 0.65; stroke-width: 0.3"/>
     <use xlink:href="#mc987518211" x="196.373572" y="169.006588" style="fill: #17618b; fill-opacity: 0.65; stroke: #ffffff; stroke-opacity: 0.65; stroke-width: 0.3"/>
     <use xlink:href="#mc987518211" x="190.342021" y="178.386856" style="fill: #17618b; fill-opacity: 0.65; stroke: #ffffff; stroke-opacity: 0.65; stroke-width: 0.3"/>
     <use xlink:href="#mc987518211" x="189.367106" y="142.828556" style="fill: #17618b; fill-opacity: 0.65; stroke: #ffffff; stroke-opacity: 0.65; stroke-width: 0.3"/>
     <use xlink:href="#mc987518211" x="190.799882" y="138.520631" style="fill: #17618b; fill-opacity: 0.65; stroke: #ffffff; stroke-opacity: 0.65; stroke-width: 0.3"/>
     <use xlink:href="#mc987518211" x="137.354642" y="203.498906" style="fill: #17618b; fill-opacity: 0.65; stroke: #ffffff; stroke-opacity: 0.65; stroke-width: 0.3"/>
     <use xlink:href="#mc987518211" x="224.957113" y="115.514402" style="fill: #17618b; fill-opacity: 0.65; stroke: #ffffff; stroke-opacity: 0.65; stroke-width: 0.3"/>
     <use xlink:href="#mc987518211" x="183.720116" y="191.025511" style="fill: #17618b; fill-opacity: 0.65; stroke: #ffffff; stroke-opacity: 0.65; stroke-width: 0.3"/>
     <use xlink:href="#mc987518211" x="182.203047" y="89.813394" style="fill: #17618b; fill-opacity: 0.65; stroke: #ffffff; stroke-opacity: 0.65; stroke-width: 0.3"/>
     <use xlink:href="#mc987518211" x="195.037683" y="63.342537" style="fill: #17618b; fill-opacity: 0.65; stroke: #ffffff; stroke-opacity: 0.65; stroke-width: 0.3"/>
     <use xlink:href="#mc987518211" x="178.787871" y="167.657082" style="fill: #17618b; fill-opacity: 0.65; stroke: #ffffff; stroke-opacity: 0.65; stroke-width: 0.3"/>
    </g>
   </g>
   <g id="PathCollection_2">
    <defs>
     <path id="mdf2314756e" d="M -2.645751 2.645751 
L 2.645751 2.645751 
L 2.645751 -2.645751 
L -2.645751 -2.645751 
z
" style="stroke: #ffffff; stroke-opacity: 0.65; stroke-width: 0.3"/>
    </defs>
    <g clip-path="url(#pb89ce38526)">
     <use xlink:href="#mdf2314756e" x="477.823722" y="231.507617" style="fill: #d87821; fill-opacity: 0.65; stroke: #ffffff; stroke-opacity: 0.65; stroke-width: 0.3"/>
     <use xlink:href="#mdf2314756e" x="498.045742" y="236.11977" style="fill: #d87821; fill-opacity: 0.65; stroke: #ffffff; stroke-opacity: 0.65; stroke-width: 0.3"/>
     <use xlink:href="#mdf2314756e" x="365.114883" y="178.957385" style="fill: #d87821; fill-opacity: 0.65; stroke: #ffffff; stroke-opacity: 0.65; stroke-width: 0.3"/>
    </g>
   </g>
   <g id="matplotlib.axis_1">
    <g id="xtick_1">
     <g id="line2d_1">
      <path d="M 53.389082 263.958661 
L 53.389082 44.984464 
" clip-path="url(#pb89ce38526)" style="fill: none; stroke: #b0b0b0; stroke-opacity: 0.15; stroke-width: 0.8; stroke-linecap: square"/>
     </g>
     <g id="line2d_2">
      <defs>
       <path id="m8afacfeb47" d="M 0 0 
L 0 3.5 
" style="stroke: #000000; stroke-width: 0.8"/>
      </defs>
      <g>
       <use xlink:href="#m8afacfeb47" x="53.389082" y="263.958661" style="stroke: #000000; stroke-width: 0.8"/>
      </g>
     </g>
     <g id="text_1">
      <!-- −4 -->
      <g transform="translate(46.017989 278.556317) scale(0.1 -0.1)">
       <defs>
        <path id="DejaVuSans-c9c" d="M 678 2272 
L 4684 2272 
L 4684 1741 
L 678 1741 
L 678 2272 
z
" transform="scale(0.015625)"/>
        <path id="DejaVuSans-17" d="M 2419 4116 
L 825 1625 
L 2419 1625 
L 2419 4116 
z
M 2253 4666 
L 3047 4666 
L 3047 1625 
L 3713 1625 
L 3713 1100 
L 3047 1100 
L 3047 0 
L 2419 0 
L 2419 1100 
L 313 1100 
L 313 1709 
L 2253 4666 
z
" transform="scale(0.015625)"/>
       </defs>
       <use xlink:href="#DejaVuSans-c9c"/>
       <use xlink:href="#DejaVuSans-17" transform="translate(83.796875 0)"/>
      </g>
     </g>
    </g>
    <g id="xtick_2">
     <g id="line2d_3">
      <path d="M 127.805332 263.958661 
L 127.805332 44.984464 
" clip-path="url(#pb89ce38526)" style="fill: none; stroke: #b0b0b0; stroke-opacity: 0.15; stroke-width: 0.8; stroke-linecap: square"/>
     </g>
     <g id="line2d_4">
      <g>
       <use xlink:href="#m8afacfeb47" x="127.805332" y="263.958661" style="stroke: #000000; stroke-width: 0.8"/>
      </g>
     </g>
     <g id="text_2">
      <!-- −2 -->
      <g transform="translate(120.434239 278.556317) scale(0.1 -0.1)">
       <defs>
        <path id="DejaVuSans-15" d="M 1228 531 
L 3431 531 
L 3431 0 
L 469 0 
L 469 531 
Q 828 903 1448 1529 
Q 2069 2156 2228 2338 
Q 2531 2678 2651 2914 
Q 2772 3150 2772 3378 
Q 2772 3750 2511 3984 
Q 2250 4219 1831 4219 
Q 1534 4219 1204 4116 
Q 875 4013 500 3803 
L 500 4441 
Q 881 4594 1212 4672 
Q 1544 4750 1819 4750 
Q 2544 4750 2975 4387 
Q 3406 4025 3406 3419 
Q 3406 3131 3298 2873 
Q 3191 2616 2906 2266 
Q 2828 2175 2409 1742 
Q 1991 1309 1228 531 
z
" transform="scale(0.015625)"/>
       </defs>
       <use xlink:href="#DejaVuSans-c9c"/>
       <use xlink:href="#DejaVuSans-15" transform="translate(83.796875 0)"/>
      </g>
     </g>
    </g>
    <g id="xtick_3">
     <g id="line2d_5">
      <path d="M 202.221583 263.958661 
L 202.221583 44.984464 
" clip-path="url(#pb89ce38526)" style="fill: none; stroke: #b0b0b0; stroke-opacity: 0.15; stroke-width: 0.8; stroke-linecap: square"/>
     </g>
     <g id="line2d_6">
      <g>
       <use xlink:href="#m8afacfeb47" x="202.221583" y="263.958661" style="stroke: #000000; stroke-width: 0.8"/>
      </g>
     </g>
     <g id="text_3">
      <!-- 0 -->
      <g transform="translate(199.040333 278.556317) scale(0.1 -0.1)">
       <defs>
        <path id="DejaVuSans-13" d="M 2034 4250 
Q 1547 4250 1301 3770 
Q 1056 3291 1056 2328 
Q 1056 1369 1301 889 
Q 1547 409 2034 409 
Q 2525 409 2770 889 
Q 3016 1369 3016 2328 
Q 3016 3291 2770 3770 
Q 2525 4250 2034 4250 
z
M 2034 4750 
Q 2819 4750 3233 4129 
Q 3647 3509 3647 2328 
Q 3647 1150 3233 529 
Q 2819 -91 2034 -91 
Q 1250 -91 836 529 
Q 422 1150 422 2328 
Q 422 3509 836 4129 
Q 1250 4750 2034 4750 
z
" transform="scale(0.015625)"/>
       </defs>
       <use xlink:href="#DejaVuSans-13"/>
      </g>
     </g>
    </g>
    <g id="xtick_4">
     <g id="line2d_7">
      <path d="M 276.637833 263.958661 
L 276.637833 44.984464 
" clip-path="url(#pb89ce38526)" style="fill: none; stroke: #b0b0b0; stroke-opacity: 0.15; stroke-width: 0.8; stroke-linecap: square"/>
     </g>
     <g id="line2d_8">
      <g>
       <use xlink:href="#m8afacfeb47" x="276.637833" y="263.958661" style="stroke: #000000; stroke-width: 0.8"/>
      </g>
     </g>
     <g id="text_4">
      <!-- 2 -->
      <g transform="translate(273.456583 278.556317) scale(0.1 -0.1)">
       <use xlink:href="#DejaVuSans-15"/>
      </g>
     </g>
    </g>
    <g id="xtick_5">
     <g id="line2d_9">
      <path d="M 351.054083 263.958661 
L 351.054083 44.984464 
" clip-path="url(#pb89ce38526)" style="fill: none; stroke: #b0b0b0; stroke-opacity: 0.15; stroke-width: 0.8; stroke-linecap: square"/>
     </g>
     <g id="line2d_10">
      <g>
       <use xlink:href="#m8afacfeb47" x="351.054083" y="263.958661" style="stroke: #000000; stroke-width: 0.8"/>
      </g>
     </g>
     <g id="text_5">
      <!-- 4 -->
      <g transform="translate(347.872833 278.556317) scale(0.1 -0.1)">
       <use xlink:href="#DejaVuSans-17"/>
      </g>
     </g>
    </g>
    <g id="xtick_6">
     <g id="line2d_11">
      <path d="M 425.470333 263.958661 
L 425.470333 44.984464 
" clip-path="url(#pb89ce38526)" style="fill: none; stroke: #b0b0b0; stroke-opacity: 0.15; stroke-width: 0.8; stroke-linecap: square"/>
     </g>
     <g id="line2d_12">
      <g>
       <use xlink:href="#m8afacfeb47" x="425.470333" y="263.958661" style="stroke: #000000; stroke-width: 0.8"/>
      </g>
     </g>
     <g id="text_6">
      <!-- 6 -->
      <g transform="translate(422.289083 278.556317) scale(0.1 -0.1)">
       <defs>
        <path id="DejaVuSans-19" d="M 2113 2584 
Q 1688 2584 1439 2293 
Q 1191 2003 1191 1497 
Q 1191 994 1439 701 
Q 1688 409 2113 409 
Q 2538 409 2786 701 
Q 3034 994 3034 1497 
Q 3034 2003 2786 2293 
Q 2538 2584 2113 2584 
z
M 3366 4563 
L 3366 3988 
Q 3128 4100 2886 4159 
Q 2644 4219 2406 4219 
Q 1781 4219 1451 3797 
Q 1122 3375 1075 2522 
Q 1259 2794 1537 2939 
Q 1816 3084 2150 3084 
Q 2853 3084 3261 2657 
Q 3669 2231 3669 1497 
Q 3669 778 3244 343 
Q 2819 -91 2113 -91 
Q 1303 -91 875 529 
Q 447 1150 447 2328 
Q 447 3434 972 4092 
Q 1497 4750 2381 4750 
Q 2619 4750 2861 4703 
Q 3103 4656 3366 4563 
z
" transform="scale(0.015625)"/>
       </defs>
       <use xlink:href="#DejaVuSans-19"/>
      </g>
     </g>
    </g>
    <g id="xtick_7">
     <g id="line2d_13">
      <path d="M 499.886583 263.958661 
L 499.886583 44.984464 
" clip-path="url(#pb89ce38526)" style="fill: none; stroke: #b0b0b0; stroke-opacity: 0.15; stroke-width: 0.8; stroke-linecap: square"/>
     </g>
     <g id="line2d_14">
      <g>
       <use xlink:href="#m8afacfeb47" x="499.886583" y="263.958661" style="stroke: #000000; stroke-width: 0.8"/>
      </g>
     </g>
     <g id="text_7">
      <!-- 8 -->
      <g transform="translate(496.705333 278.556317) scale(0.1 -0.1)">
       <defs>
        <path id="DejaVuSans-1b" d="M 2034 2216 
Q 1584 2216 1326 1975 
Q 1069 1734 1069 1313 
Q 1069 891 1326 650 
Q 1584 409 2034 409 
Q 2484 409 2743 651 
Q 3003 894 3003 1313 
Q 3003 1734 2745 1975 
Q 2488 2216 2034 2216 
z
M 1403 2484 
Q 997 2584 770 2862 
Q 544 3141 544 3541 
Q 544 4100 942 4425 
Q 1341 4750 2034 4750 
Q 2731 4750 3128 4425 
Q 3525 4100 3525 3541 
Q 3525 3141 3298 2862 
Q 3072 2584 2669 2484 
Q 3125 2378 3379 2068 
Q 3634 1759 3634 1313 
Q 3634 634 3220 271 
Q 2806 -91 2034 -91 
Q 1263 -91 848 271 
Q 434 634 434 1313 
Q 434 1759 690 2068 
Q 947 2378 1403 2484 
z
M 1172 3481 
Q 1172 3119 1398 2916 
Q 1625 2713 2034 2713 
Q 2441 2713 2670 2916 
Q 2900 3119 2900 3481 
Q 2900 3844 2670 4047 
Q 2441 4250 2034 4250 
Q 1625 4250 1398 4047 
Q 1172 3844 1172 3481 
z
" transform="scale(0.015625)"/>
       </defs>
       <use xlink:href="#DejaVuSans-1b"/>
      </g>
     </g>
    </g>
    <g id="text_8">
     <!-- Componente 1 (43,2% da variância) -->
     <g transform="translate(182.881479 293.756942) scale(0.11 -0.11)">
      <defs>
       <path id="DejaVuSans-26" d="M 4122 4306 
L 4122 3641 
Q 3803 3938 3442 4084 
Q 3081 4231 2675 4231 
Q 1875 4231 1450 3742 
Q 1025 3253 1025 2328 
Q 1025 1406 1450 917 
Q 1875 428 2675 428 
Q 3081 428 3442 575 
Q 3803 722 4122 1019 
L 4122 359 
Q 3791 134 3420 21 
Q 3050 -91 2638 -91 
Q 1578 -91 968 557 
Q 359 1206 359 2328 
Q 359 3453 968 4101 
Q 1578 4750 2638 4750 
Q 3056 4750 3426 4639 
Q 3797 4528 4122 4306 
z
" transform="scale(0.015625)"/>
       <path id="DejaVuSans-52" d="M 1959 3097 
Q 1497 3097 1228 2736 
Q 959 2375 959 1747 
Q 959 1119 1226 758 
Q 1494 397 1959 397 
Q 2419 397 2687 759 
Q 2956 1122 2956 1747 
Q 2956 2369 2687 2733 
Q 2419 3097 1959 3097 
z
M 1959 3584 
Q 2709 3584 3137 3096 
Q 3566 2609 3566 1747 
Q 3566 888 3137 398 
Q 2709 -91 1959 -91 
Q 1206 -91 779 398 
Q 353 888 353 1747 
Q 353 2609 779 3096 
Q 1206 3584 1959 3584 
z
" transform="scale(0.015625)"/>
       <path id="DejaVuSans-50" d="M 3328 2828 
Q 3544 3216 3844 3400 
Q 4144 3584 4550 3584 
Q 5097 3584 5394 3201 
Q 5691 2819 5691 2113 
L 5691 0 
L 5113 0 
L 5113 2094 
Q 5113 2597 4934 2840 
Q 4756 3084 4391 3084 
Q 3944 3084 3684 2787 
Q 3425 2491 3425 1978 
L 3425 0 
L 2847 0 
L 2847 2094 
Q 2847 2600 2669 2842 
Q 2491 3084 2119 3084 
Q 1678 3084 1418 2786 
Q 1159 2488 1159 1978 
L 1159 0 
L 581 0 
L 581 3500 
L 1159 3500 
L 1159 2956 
Q 1356 3278 1631 3431 
Q 1906 3584 2284 3584 
Q 2666 3584 2933 3390 
Q 3200 3197 3328 2828 
z
" transform="scale(0.015625)"/>
       <path id="DejaVuSans-53" d="M 1159 525 
L 1159 -1331 
L 581 -1331 
L 581 3500 
L 1159 3500 
L 1159 2969 
Q 1341 3281 1617 3432 
Q 1894 3584 2278 3584 
Q 2916 3584 3314 3078 
Q 3713 2572 3713 1747 
Q 3713 922 3314 415 
Q 2916 -91 2278 -91 
Q 1894 -91 1617 61 
Q 1341 213 1159 525 
z
M 3116 1747 
Q 3116 2381 2855 2742 
Q 2594 3103 2138 3103 
Q 1681 3103 1420 2742 
Q 1159 2381 1159 1747 
Q 1159 1113 1420 752 
Q 1681 391 2138 391 
Q 2594 391 2855 752 
Q 3116 1113 3116 1747 
z
" transform="scale(0.015625)"/>
       <path id="DejaVuSans-51" d="M 3513 2113 
L 3513 0 
L 2938 0 
L 2938 2094 
Q 2938 2591 2744 2837 
Q 2550 3084 2163 3084 
Q 1697 3084 1428 2787 
Q 1159 2491 1159 1978 
L 1159 0 
L 581 0 
L 581 3500 
L 1159 3500 
L 1159 2956 
Q 1366 3272 1645 3428 
Q 1925 3584 2291 3584 
Q 2894 3584 3203 3211 
Q 3513 2838 3513 2113 
z
" transform="scale(0.015625)"/>
       <path id="DejaVuSans-48" d="M 3597 1894 
L 3597 1613 
L 953 1613 
Q 991 1019 1311 708 
Q 1631 397 2203 397 
Q 2534 397 2845 478 
Q 3156 559 3463 722 
L 3463 178 
Q 3153 47 2828 -22 
Q 2503 -91 2169 -91 
Q 1331 -91 842 396 
Q 353 884 353 1716 
Q 353 2575 817 3079 
Q 1281 3584 2069 3584 
Q 2775 3584 3186 3129 
Q 3597 2675 3597 1894 
z
M 3022 2063 
Q 3016 2534 2758 2815 
Q 2500 3097 2075 3097 
Q 1594 3097 1305 2825 
Q 1016 2553 972 2059 
L 3022 2063 
z
" transform="scale(0.015625)"/>
       <path id="DejaVuSans-57" d="M 1172 4494 
L 1172 3500 
L 2356 3500 
L 2356 3053 
L 1172 3053 
L 1172 1153 
Q 1172 725 1289 603 
Q 1406 481 1766 481 
L 2356 481 
L 2356 0 
L 1766 0 
Q 1100 0 847 248 
Q 594 497 594 1153 
L 594 3053 
L 172 3053 
L 172 3500 
L 594 3500 
L 594 4494 
L 1172 4494 
z
" transform="scale(0.015625)"/>
       <path id="DejaVuSans-3" transform="scale(0.015625)"/>
       <path id="DejaVuSans-14" d="M 794 531 
L 1825 531 
L 1825 4091 
L 703 3866 
L 703 4441 
L 1819 4666 
L 2450 4666 
L 2450 531 
L 3481 531 
L 3481 0 
L 794 0 
L 794 531 
z
" transform="scale(0.015625)"/>
       <path id="DejaVuSans-b" d="M 1984 4856 
Q 1566 4138 1362 3434 
Q 1159 2731 1159 2009 
Q 1159 1288 1364 580 
Q 1569 -128 1984 -844 
L 1484 -844 
Q 1016 -109 783 600 
Q 550 1309 550 2009 
Q 550 2706 781 3412 
Q 1013 4119 1484 4856 
L 1984 4856 
z
" transform="scale(0.015625)"/>
       <path id="DejaVuSans-16" d="M 2597 2516 
Q 3050 2419 3304 2112 
Q 3559 1806 3559 1356 
Q 3559 666 3084 287 
Q 2609 -91 1734 -91 
Q 1441 -91 1130 -33 
Q 819 25 488 141 
L 488 750 
Q 750 597 1062 519 
Q 1375 441 1716 441 
Q 2309 441 2620 675 
Q 2931 909 2931 1356 
Q 2931 1769 2642 2001 
Q 2353 2234 1838 2234 
L 1294 2234 
L 1294 2753 
L 1863 2753 
Q 2328 2753 2575 2939 
Q 2822 3125 2822 3475 
Q 2822 3834 2567 4026 
Q 2313 4219 1838 4219 
Q 1578 4219 1281 4162 
Q 984 4106 628 3988 
L 628 4550 
Q 988 4650 1302 4700 
Q 1616 4750 1894 4750 
Q 2613 4750 3031 4423 
Q 3450 4097 3450 3541 
Q 3450 3153 3228 2886 
Q 3006 2619 2597 2516 
z
" transform="scale(0.015625)"/>
       <path id="DejaVuSans-f" d="M 750 794 
L 1409 794 
L 1409 256 
L 897 -744 
L 494 -744 
L 750 256 
L 750 794 
z
" transform="scale(0.015625)"/>
       <path id="DejaVuSans-8" d="M 4653 2053 
Q 4381 2053 4226 1822 
Q 4072 1591 4072 1178 
Q 4072 772 4226 539 
Q 4381 306 4653 306 
Q 4919 306 5073 539 
Q 5228 772 5228 1178 
Q 5228 1588 5073 1820 
Q 4919 2053 4653 2053 
z
M 4653 2450 
Q 5147 2450 5437 2106 
Q 5728 1763 5728 1178 
Q 5728 594 5436 251 
Q 5144 -91 4653 -91 
Q 4153 -91 3862 251 
Q 3572 594 3572 1178 
Q 3572 1766 3864 2108 
Q 4156 2450 4653 2450 
z
M 1428 4353 
Q 1159 4353 1004 4120 
Q 850 3888 850 3481 
Q 850 3069 1003 2837 
Q 1156 2606 1428 2606 
Q 1700 2606 1854 2837 
Q 2009 3069 2009 3481 
Q 2009 3884 1853 4118 
Q 1697 4353 1428 4353 
z
M 4250 4750 
L 4750 4750 
L 1831 -91 
L 1331 -91 
L 4250 4750 
z
M 1428 4750 
Q 1922 4750 2215 4408 
Q 2509 4066 2509 3481 
Q 2509 2891 2217 2550 
Q 1925 2209 1428 2209 
Q 931 2209 642 2551 
Q 353 2894 353 3481 
Q 353 4063 643 4406 
Q 934 4750 1428 4750 
z
" transform="scale(0.015625)"/>
       <path id="DejaVuSans-47" d="M 2906 2969 
L 2906 4863 
L 3481 4863 
L 3481 0 
L 2906 0 
L 2906 525 
Q 2725 213 2448 61 
Q 2172 -91 1784 -91 
Q 1150 -91 751 415 
Q 353 922 353 1747 
Q 353 2572 751 3078 
Q 1150 3584 1784 3584 
Q 2172 3584 2448 3432 
Q 2725 3281 2906 2969 
z
M 947 1747 
Q 947 1113 1208 752 
Q 1469 391 1925 391 
Q 2381 391 2643 752 
Q 2906 1113 2906 1747 
Q 2906 2381 2643 2742 
Q 2381 3103 1925 3103 
Q 1469 3103 1208 2742 
Q 947 2381 947 1747 
z
" transform="scale(0.015625)"/>
       <path id="DejaVuSans-44" d="M 2194 1759 
Q 1497 1759 1228 1600 
Q 959 1441 959 1056 
Q 959 750 1161 570 
Q 1363 391 1709 391 
Q 2188 391 2477 730 
Q 2766 1069 2766 1631 
L 2766 1759 
L 2194 1759 
z
M 3341 1997 
L 3341 0 
L 2766 0 
L 2766 531 
Q 2569 213 2275 61 
Q 1981 -91 1556 -91 
Q 1019 -91 701 211 
Q 384 513 384 1019 
Q 384 1609 779 1909 
Q 1175 2209 1959 2209 
L 2766 2209 
L 2766 2266 
Q 2766 2663 2505 2880 
Q 2244 3097 1772 3097 
Q 1472 3097 1187 3025 
Q 903 2953 641 2809 
L 641 3341 
Q 956 3463 1253 3523 
Q 1550 3584 1831 3584 
Q 2591 3584 2966 3190 
Q 3341 2797 3341 1997 
z
" transform="scale(0.015625)"/>
       <path id="DejaVuSans-59" d="M 191 3500 
L 800 3500 
L 1894 563 
L 2988 3500 
L 3597 3500 
L 2284 0 
L 1503 0 
L 191 3500 
z
" transform="scale(0.015625)"/>
       <path id="DejaVuSans-55" d="M 2631 2963 
Q 2534 3019 2420 3045 
Q 2306 3072 2169 3072 
Q 1681 3072 1420 2755 
Q 1159 2438 1159 1844 
L 1159 0 
L 581 0 
L 581 3500 
L 1159 3500 
L 1159 2956 
Q 1341 3275 1631 3429 
Q 1922 3584 2338 3584 
Q 2397 3584 2469 3576 
Q 2541 3569 2628 3553 
L 2631 2963 
z
" transform="scale(0.015625)"/>
       <path id="DejaVuSans-4c" d="M 603 3500 
L 1178 3500 
L 1178 0 
L 603 0 
L 603 3500 
z
M 603 4863 
L 1178 4863 
L 1178 4134 
L 603 4134 
L 603 4863 
z
" transform="scale(0.015625)"/>
       <path id="DejaVuSans-a4" d="M 2194 1759 
Q 1497 1759 1228 1600 
Q 959 1441 959 1056 
Q 959 750 1161 570 
Q 1363 391 1709 391 
Q 2188 391 2477 730 
Q 2766 1069 2766 1631 
L 2766 1759 
L 2194 1759 
z
M 3341 1997 
L 3341 0 
L 2766 0 
L 2766 531 
Q 2569 213 2275 61 
Q 1981 -91 1556 -91 
Q 1019 -91 701 211 
Q 384 513 384 1019 
Q 384 1609 779 1909 
Q 1175 2209 1959 2209 
L 2766 2209 
L 2766 2266 
Q 2766 2663 2505 2880 
Q 2244 3097 1772 3097 
Q 1472 3097 1187 3025 
Q 903 2953 641 2809 
L 641 3341 
Q 956 3463 1253 3523 
Q 1550 3584 1831 3584 
Q 2591 3584 2966 3190 
Q 3341 2797 3341 1997 
z
M 1625 5119 
L 2087 5119 
L 2853 3944 
L 2419 3944 
L 1856 4709 
L 1294 3944 
L 859 3944 
L 1625 5119 
z
" transform="scale(0.015625)"/>
       <path id="DejaVuSans-46" d="M 3122 3366 
L 3122 2828 
Q 2878 2963 2633 3030 
Q 2388 3097 2138 3097 
Q 1578 3097 1268 2742 
Q 959 2388 959 1747 
Q 959 1106 1268 751 
Q 1578 397 2138 397 
Q 2388 397 2633 464 
Q 2878 531 3122 666 
L 3122 134 
Q 2881 22 2623 -34 
Q 2366 -91 2075 -91 
Q 1284 -91 818 406 
Q 353 903 353 1747 
Q 353 2603 823 3093 
Q 1294 3584 2113 3584 
Q 2378 3584 2631 3529 
Q 2884 3475 3122 3366 
z
" transform="scale(0.015625)"/>
       <path id="DejaVuSans-c" d="M 513 4856 
L 1013 4856 
Q 1481 4119 1714 3412 
Q 1947 2706 1947 2009 
Q 1947 1309 1714 600 
Q 1481 -109 1013 -844 
L 513 -844 
Q 928 -128 1133 580 
Q 1338 1288 1338 2009 
Q 1338 2731 1133 3434 
Q 928 4138 513 4856 
z
" transform="scale(0.015625)"/>
      </defs>
      <use xlink:href="#DejaVuSans-26"/>
      <use xlink:href="#DejaVuSans-52" transform="translate(69.828125 0)"/>
      <use xlink:href="#DejaVuSans-50" transform="translate(131.015625 0)"/>
      <use xlink:href="#DejaVuSans-53" transform="translate(228.421875 0)"/>
      <use xlink:href="#DejaVuSans-52" transform="translate(291.90625 0)"/>
      <use xlink:href="#DejaVuSans-51" transform="translate(353.09375 0)"/>
      <use xlink:href="#DejaVuSans-48" transform="translate(416.46875 0)"/>
      <use xlink:href="#DejaVuSans-51" transform="translate(478 0)"/>
      <use xlink:href="#DejaVuSans-57" transform="translate(541.375 0)"/>
      <use xlink:href="#DejaVuSans-48" transform="translate(580.578125 0)"/>
      <use xlink:href="#DejaVuSans-3" transform="translate(642.109375 0)"/>
      <use xlink:href="#DejaVuSans-14" transform="translate(673.890625 0)"/>
      <use xlink:href="#DejaVuSans-3" transform="translate(737.515625 0)"/>
      <use xlink:href="#DejaVuSans-b" transform="translate(769.296875 0)"/>
      <use xlink:href="#DejaVuSans-17" transform="translate(808.3125 0)"/>
      <use xlink:href="#DejaVuSans-16" transform="translate(871.9375 0)"/>
      <use xlink:href="#DejaVuSans-f" transform="translate(935.5625 0)"/>
      <use xlink:href="#DejaVuSans-15" transform="translate(967.34375 0)"/>
      <use xlink:href="#DejaVuSans-8" transform="translate(1030.96875 0)"/>
      <use xlink:href="#DejaVuSans-3" transform="translate(1125.984375 0)"/>
      <use xlink:href="#DejaVuSans-47" transform="translate(1157.765625 0)"/>
      <use xlink:href="#DejaVuSans-44" transform="translate(1221.25 0)"/>
      <use xlink:href="#DejaVuSans-3" transform="translate(1282.53125 0)"/>
      <use xlink:href="#DejaVuSans-59" transform="translate(1314.3125 0)"/>
      <use xlink:href="#DejaVuSans-44" transform="translate(1373.5 0)"/>
      <use xlink:href="#DejaVuSans-55" transform="translate(1434.78125 0)"/>
      <use xlink:href="#DejaVuSans-4c" transform="translate(1475.890625 0)"/>
      <use xlink:href="#DejaVuSans-a4" transform="translate(1503.671875 0)"/>
      <use xlink:href="#DejaVuSans-51" transform="translate(1564.953125 0)"/>
      <use xlink:href="#DejaVuSans-46" transform="translate(1628.328125 0)"/>
      <use xlink:href="#DejaVuSans-4c" transform="translate(1683.3125 0)"/>
      <use xlink:href="#DejaVuSans-44" transform="translate(1711.09375 0)"/>
      <use xlink:href="#DejaVuSans-c" transform="translate(1772.375 0)"/>
     </g>
    </g>
   </g>
   <g id="matplotlib.axis_2">
    <g id="ytick_1">
     <g id="line2d_15">
      <path d="M 45.416406 253.284458 
L 519.59952 253.284458 
" clip-path="url(#pb89ce38526)" style="fill: none; stroke: #b0b0b0; stroke-opacity: 0.15; stroke-width: 0.8; stroke-linecap: square"/>
     </g>
     <g id="line2d_16">
      <defs>
       <path id="m1b381316de" d="M 0 0 
L -3.5 0 
" style="stroke: #000000; stroke-width: 0.8"/>
      </defs>
      <g>
       <use xlink:href="#m1b381316de" x="45.416406" y="253.284458" style="stroke: #000000; stroke-width: 0.8"/>
      </g>
     </g>
     <g id="text_9">
      <!-- −3 -->
      <g transform="translate(22.2 257.463168) scale(0.11 -0.11)">
       <use xlink:href="#DejaVuSans-c9c"/>
       <use xlink:href="#DejaVuSans-16" transform="translate(83.796875 0)"/>
      </g>
     </g>
    </g>
    <g id="ytick_2">
     <g id="line2d_17">
      <path d="M 45.416406 216.06429 
L 519.59952 216.06429 
" clip-path="url(#pb89ce38526)" style="fill: none; stroke: #b0b0b0; stroke-opacity: 0.15; stroke-width: 0.8; stroke-linecap: square"/>
     </g>
     <g id="line2d_18">
      <g>
       <use xlink:href="#m1b381316de" x="45.416406" y="216.06429" style="stroke: #000000; stroke-width: 0.8"/>
      </g>
     </g>
     <g id="text_10">
      <!-- −2 -->
      <g transform="translate(22.2 220.243001) scale(0.11 -0.11)">
       <use xlink:href="#DejaVuSans-c9c"/>
       <use xlink:href="#DejaVuSans-15" transform="translate(83.796875 0)"/>
      </g>
     </g>
    </g>
    <g id="ytick_3">
     <g id="line2d_19">
      <path d="M 45.416406 178.844122 
L 519.59952 178.844122 
" clip-path="url(#pb89ce38526)" style="fill: none; stroke: #b0b0b0; stroke-opacity: 0.15; stroke-width: 0.8; stroke-linecap: square"/>
     </g>
     <g id="line2d_20">
      <g>
       <use xlink:href="#m1b381316de" x="45.416406" y="178.844122" style="stroke: #000000; stroke-width: 0.8"/>
      </g>
     </g>
     <g id="text_11">
      <!-- −1 -->
      <g transform="translate(22.2 183.022833) scale(0.11 -0.11)">
       <use xlink:href="#DejaVuSans-c9c"/>
       <use xlink:href="#DejaVuSans-14" transform="translate(83.796875 0)"/>
      </g>
     </g>
    </g>
    <g id="ytick_4">
     <g id="line2d_21">
      <path d="M 45.416406 141.623954 
L 519.59952 141.623954 
" clip-path="url(#pb89ce38526)" style="fill: none; stroke: #b0b0b0; stroke-opacity: 0.15; stroke-width: 0.8; stroke-linecap: square"/>
     </g>
     <g id="line2d_22">
      <g>
       <use xlink:href="#m1b381316de" x="45.416406" y="141.623954" style="stroke: #000000; stroke-width: 0.8"/>
      </g>
     </g>
     <g id="text_12">
      <!-- 0 -->
      <g transform="translate(31.417656 145.802665) scale(0.11 -0.11)">
       <use xlink:href="#DejaVuSans-13"/>
      </g>
     </g>
    </g>
    <g id="ytick_5">
     <g id="line2d_23">
      <path d="M 45.416406 104.403786 
L 519.59952 104.403786 
" clip-path="url(#pb89ce38526)" style="fill: none; stroke: #b0b0b0; stroke-opacity: 0.15; stroke-width: 0.8; stroke-linecap: square"/>
     </g>
     <g id="line2d_24">
      <g>
       <use xlink:href="#m1b381316de" x="45.416406" y="104.403786" style="stroke: #000000; stroke-width: 0.8"/>
      </g>
     </g>
     <g id="text_13">
      <!-- 1 -->
      <g transform="translate(31.417656 108.582497) scale(0.11 -0.11)">
       <use xlink:href="#DejaVuSans-14"/>
      </g>
     </g>
    </g>
    <g id="ytick_6">
     <g id="line2d_25">
      <path d="M 45.416406 67.183618 
L 519.59952 67.183618 
" clip-path="url(#pb89ce38526)" style="fill: none; stroke: #b0b0b0; stroke-opacity: 0.15; stroke-width: 0.8; stroke-linecap: square"/>
     </g>
     <g id="line2d_26">
      <g>
       <use xlink:href="#m1b381316de" x="45.416406" y="67.183618" style="stroke: #000000; stroke-width: 0.8"/>
      </g>
     </g>
     <g id="text_14">
      <!-- 2 -->
      <g transform="translate(31.417656 71.362329) scale(0.11 -0.11)">
       <use xlink:href="#DejaVuSans-15"/>
      </g>
     </g>
    </g>
    <g id="text_15">
     <!-- Componente 2 (29,0%) -->
     <g transform="translate(15.557422 218.546562) rotate(-90) scale(0.11 -0.11)">
      <defs>
       <path id="DejaVuSans-1c" d="M 703 97 
L 703 672 
Q 941 559 1184 500 
Q 1428 441 1663 441 
Q 2288 441 2617 861 
Q 2947 1281 2994 2138 
Q 2813 1869 2534 1725 
Q 2256 1581 1919 1581 
Q 1219 1581 811 2004 
Q 403 2428 403 3163 
Q 403 3881 828 4315 
Q 1253 4750 1959 4750 
Q 2769 4750 3195 4129 
Q 3622 3509 3622 2328 
Q 3622 1225 3098 567 
Q 2575 -91 1691 -91 
Q 1453 -91 1209 -44 
Q 966 3 703 97 
z
M 1959 2075 
Q 2384 2075 2632 2365 
Q 2881 2656 2881 3163 
Q 2881 3666 2632 3958 
Q 2384 4250 1959 4250 
Q 1534 4250 1286 3958 
Q 1038 3666 1038 3163 
Q 1038 2656 1286 2365 
Q 1534 2075 1959 2075 
z
" transform="scale(0.015625)"/>
      </defs>
      <use xlink:href="#DejaVuSans-26"/>
      <use xlink:href="#DejaVuSans-52" transform="translate(69.828125 0)"/>
      <use xlink:href="#DejaVuSans-50" transform="translate(131.015625 0)"/>
      <use xlink:href="#DejaVuSans-53" transform="translate(228.421875 0)"/>
      <use xlink:href="#DejaVuSans-52" transform="translate(291.90625 0)"/>
      <use xlink:href="#DejaVuSans-51" transform="translate(353.09375 0)"/>
      <use xlink:href="#DejaVuSans-48" transform="translate(416.46875 0)"/>
      <use xlink:href="#DejaVuSans-51" transform="translate(478 0)"/>
      <use xlink:href="#DejaVuSans-57" transform="translate(541.375 0)"/>
      <use xlink:href="#DejaVuSans-48" transform="translate(580.578125 0)"/>
      <use xlink:href="#DejaVuSans-3" transform="translate(642.109375 0)"/>
      <use xlink:href="#DejaVuSans-15" transform="translate(673.890625 0)"/>
      <use xlink:href="#DejaVuSans-3" transform="translate(737.515625 0)"/>
      <use xlink:href="#DejaVuSans-b" transform="translate(769.296875 0)"/>
      <use xlink:href="#DejaVuSans-15" transform="translate(808.3125 0)"/>
      <use xlink:href="#DejaVuSans-1c" transform="translate(871.9375 0)"/>
      <use xlink:href="#DejaVuSans-f" transform="translate(935.5625 0)"/>
      <use xlink:href="#DejaVuSans-13" transform="translate(967.34375 0)"/>
      <use xlink:href="#DejaVuSans-8" transform="translate(1030.96875 0)"/>
      <use xlink:href="#DejaVuSans-c" transform="translate(1125.984375 0)"/>
     </g>
    </g>
   </g>
   <g id="patch_3">
    <path d="M 45.416406 263.958661 
L 45.416406 44.984464 
" style="fill: none; stroke: #000000; stroke-width: 0.8; stroke-linejoin: miter; stroke-linecap: square"/>
   </g>
   <g id="patch_4">
    <path d="M 45.416406 263.958661 
L 519.59952 263.958661 
" style="fill: none; stroke: #000000; stroke-width: 0.8; stroke-linejoin: miter; stroke-linecap: square"/>
   </g>
   <g id="legend_1">
    <g id="patch_5">
     <path d="M 401.971395 82.986027 
L 512.59952 82.986027 
Q 514.59952 82.986027 514.59952 80.986027 
L 514.59952 51.984464 
Q 514.59952 49.984464 512.59952 49.984464 
L 401.971395 49.984464 
Q 399.971395 49.984464 399.971395 51.984464 
L 399.971395 80.986027 
Q 399.971395 82.986027 401.971395 82.986027 
z
" style="fill: #ffffff; opacity: 0.8; stroke: #cccccc; stroke-linejoin: miter"/>
    </g>
    <g id="PathCollection_3">
     <g>
      <use xlink:href="#mc987518211" x="413.971395" y="58.957902" style="fill: #17618b; fill-opacity: 0.65; stroke: #ffffff; stroke-opacity: 0.65; stroke-width: 0.3"/>
     </g>
    </g>
    <g id="text_16">
     <!-- Grupo 0 (n=67) -->
     <g transform="translate(431.971395 61.582902) scale(0.1 -0.1)">
      <defs>
       <path id="DejaVuSans-2a" d="M 3809 666 
L 3809 1919 
L 2778 1919 
L 2778 2438 
L 4434 2438 
L 4434 434 
Q 4069 175 3628 42 
Q 3188 -91 2688 -91 
Q 1594 -91 976 548 
Q 359 1188 359 2328 
Q 359 3472 976 4111 
Q 1594 4750 2688 4750 
Q 3144 4750 3555 4637 
Q 3966 4525 4313 4306 
L 4313 3634 
Q 3963 3931 3569 4081 
Q 3175 4231 2741 4231 
Q 1884 4231 1454 3753 
Q 1025 3275 1025 2328 
Q 1025 1384 1454 906 
Q 1884 428 2741 428 
Q 3075 428 3337 486 
Q 3600 544 3809 666 
z
" transform="scale(0.015625)"/>
       <path id="DejaVuSans-58" d="M 544 1381 
L 544 3500 
L 1119 3500 
L 1119 1403 
Q 1119 906 1312 657 
Q 1506 409 1894 409 
Q 2359 409 2629 706 
Q 2900 1003 2900 1516 
L 2900 3500 
L 3475 3500 
L 3475 0 
L 2900 0 
L 2900 538 
Q 2691 219 2414 64 
Q 2138 -91 1772 -91 
Q 1169 -91 856 284 
Q 544 659 544 1381 
z
M 1991 3584 
L 1991 3584 
z
" transform="scale(0.015625)"/>
       <path id="DejaVuSans-20" d="M 678 2906 
L 4684 2906 
L 4684 2381 
L 678 2381 
L 678 2906 
z
M 678 1631 
L 4684 1631 
L 4684 1100 
L 678 1100 
L 678 1631 
z
" transform="scale(0.015625)"/>
       <path id="DejaVuSans-1a" d="M 525 4666 
L 3525 4666 
L 3525 4397 
L 1831 0 
L 1172 0 
L 2766 4134 
L 525 4134 
L 525 4666 
z
" transform="scale(0.015625)"/>
      </defs>
      <use xlink:href="#DejaVuSans-2a"/>
      <use xlink:href="#DejaVuSans-55" transform="translate(77.484375 0)"/>
      <use xlink:href="#DejaVuSans-58" transform="translate(118.59375 0)"/>
      <use xlink:href="#DejaVuSans-53" transform="translate(181.96875 0)"/>
      <use xlink:href="#DejaVuSans-52" transform="translate(245.453125 0)"/>
      <use xlink:href="#DejaVuSans-3" transform="translate(306.640625 0)"/>
      <use xlink:href="#DejaVuSans-13" transform="translate(338.421875 0)"/>
      <use xlink:href="#DejaVuSans-3" transform="translate(402.046875 0)"/>
      <use xlink:href="#DejaVuSans-b" transform="translate(433.828125 0)"/>
      <use xlink:href="#DejaVuSans-51" transform="translate(472.84375 0)"/>
      <use xlink:href="#DejaVuSans-20" transform="translate(536.21875 0)"/>
      <use xlink:href="#DejaVuSans-19" transform="translate(620.015625 0)"/>
      <use xlink:href="#DejaVuSans-1a" transform="translate(683.640625 0)"/>
      <use xlink:href="#DejaVuSans-c" transform="translate(747.265625 0)"/>
     </g>
    </g>
    <g id="PathCollection_4">
     <g>
      <use xlink:href="#mdf2314756e" x="413.971395" y="73.958683" style="fill: #d87821; fill-opacity: 0.65; stroke: #ffffff; stroke-opacity: 0.65; stroke-width: 0.3"/>
     </g>
    </g>
    <g id="text_17">
     <!-- Grupo 1 (n=3) -->
     <g transform="translate(431.971395 76.583683) scale(0.1 -0.1)">
      <use xlink:href="#DejaVuSans-2a"/>
      <use xlink:href="#DejaVuSans-55" transform="translate(77.484375 0)"/>
      <use xlink:href="#DejaVuSans-58" transform="translate(118.59375 0)"/>
      <use xlink:href="#DejaVuSans-53" transform="translate(181.96875 0)"/>
      <use xlink:href="#DejaVuSans-52" transform="translate(245.453125 0)"/>
      <use xlink:href="#DejaVuSans-3" transform="translate(306.640625 0)"/>
      <use xlink:href="#DejaVuSans-14" transform="translate(338.421875 0)"/>
      <use xlink:href="#DejaVuSans-3" transform="translate(402.046875 0)"/>
      <use xlink:href="#DejaVuSans-b" transform="translate(433.828125 0)"/>
      <use xlink:href="#DejaVuSans-51" transform="translate(472.84375 0)"/>
      <use xlink:href="#DejaVuSans-20" transform="translate(536.21875 0)"/>
      <use xlink:href="#DejaVuSans-16" transform="translate(620.015625 0)"/>
      <use xlink:href="#DejaVuSans-c" transform="translate(683.640625 0)"/>
     </g>
    </g>
   </g>
  </g>
  <g id="text_18">
   <!-- DER-ES / IOPES | mapa dos perfis de recursos -->
   <g transform="translate(97.355229 18.436113) scale(0.13 -0.13)">
    <defs>
     <path id="DejaVuSans-Bold-27" d="M 1791 3756 
L 1791 909 
L 2222 909 
Q 2959 909 3348 1275 
Q 3738 1641 3738 2338 
Q 3738 3031 3350 3393 
Q 2963 3756 2222 3756 
L 1791 3756 
z
M 588 4666 
L 1856 4666 
Q 2919 4666 3439 4514 
Q 3959 4363 4331 4000 
Q 4659 3684 4818 3271 
Q 4978 2859 4978 2338 
Q 4978 1809 4818 1395 
Q 4659 981 4331 666 
Q 3956 303 3431 151 
Q 2906 0 1856 0 
L 588 0 
L 588 4666 
z
" transform="scale(0.015625)"/>
     <path id="DejaVuSans-Bold-28" d="M 588 4666 
L 3834 4666 
L 3834 3756 
L 1791 3756 
L 1791 2888 
L 3713 2888 
L 3713 1978 
L 1791 1978 
L 1791 909 
L 3903 909 
L 3903 0 
L 588 0 
L 588 4666 
z
" transform="scale(0.015625)"/>
     <path id="DejaVuSans-Bold-35" d="M 2297 2597 
Q 2675 2597 2839 2737 
Q 3003 2878 3003 3200 
Q 3003 3519 2839 3656 
Q 2675 3794 2297 3794 
L 1791 3794 
L 1791 2597 
L 2297 2597 
z
M 1791 1766 
L 1791 0 
L 588 0 
L 588 4666 
L 2425 4666 
Q 3347 4666 3776 4356 
Q 4206 4047 4206 3378 
Q 4206 2916 3982 2619 
Q 3759 2322 3309 2181 
Q 3556 2125 3751 1926 
Q 3947 1728 4147 1325 
L 4800 0 
L 3519 0 
L 2950 1159 
Q 2778 1509 2601 1637 
Q 2425 1766 2131 1766 
L 1791 1766 
z
" transform="scale(0.015625)"/>
     <path id="DejaVuSans-Bold-10" d="M 347 2297 
L 2309 2297 
L 2309 1388 
L 347 1388 
L 347 2297 
z
" transform="scale(0.015625)"/>
     <path id="DejaVuSans-Bold-36" d="M 3834 4519 
L 3834 3531 
Q 3450 3703 3084 3790 
Q 2719 3878 2394 3878 
Q 1963 3878 1756 3759 
Q 1550 3641 1550 3391 
Q 1550 3203 1689 3098 
Q 1828 2994 2194 2919 
L 2706 2816 
Q 3484 2659 3812 2340 
Q 4141 2022 4141 1434 
Q 4141 663 3683 286 
Q 3225 -91 2284 -91 
Q 1841 -91 1394 -6 
Q 947 78 500 244 
L 500 1259 
Q 947 1022 1364 901 
Q 1781 781 2169 781 
Q 2563 781 2772 912 
Q 2981 1044 2981 1288 
Q 2981 1506 2839 1625 
Q 2697 1744 2272 1838 
L 1806 1941 
Q 1106 2091 782 2419 
Q 459 2747 459 3303 
Q 459 4000 909 4375 
Q 1359 4750 2203 4750 
Q 2588 4750 2994 4692 
Q 3400 4634 3834 4519 
z
" transform="scale(0.015625)"/>
     <path id="DejaVuSans-Bold-3" transform="scale(0.015625)"/>
     <path id="DejaVuSans-Bold-12" d="M 1644 4666 
L 2338 4666 
L 691 -594 
L 0 -594 
L 1644 4666 
z
" transform="scale(0.015625)"/>
     <path id="DejaVuSans-Bold-2c" d="M 588 4666 
L 1791 4666 
L 1791 0 
L 588 0 
L 588 4666 
z
" transform="scale(0.015625)"/>
     <path id="DejaVuSans-Bold-32" d="M 2719 3878 
Q 2169 3878 1866 3472 
Q 1563 3066 1563 2328 
Q 1563 1594 1866 1187 
Q 2169 781 2719 781 
Q 3272 781 3575 1187 
Q 3878 1594 3878 2328 
Q 3878 3066 3575 3472 
Q 3272 3878 2719 3878 
z
M 2719 4750 
Q 3844 4750 4481 4106 
Q 5119 3463 5119 2328 
Q 5119 1197 4481 553 
Q 3844 -91 2719 -91 
Q 1597 -91 958 553 
Q 319 1197 319 2328 
Q 319 3463 958 4106 
Q 1597 4750 2719 4750 
z
" transform="scale(0.015625)"/>
     <path id="DejaVuSans-Bold-33" d="M 588 4666 
L 2584 4666 
Q 3475 4666 3951 4270 
Q 4428 3875 4428 3144 
Q 4428 2409 3951 2014 
Q 3475 1619 2584 1619 
L 1791 1619 
L 1791 0 
L 588 0 
L 588 4666 
z
M 1791 3794 
L 1791 2491 
L 2456 2491 
Q 2806 2491 2997 2661 
Q 3188 2831 3188 3144 
Q 3188 3456 2997 3625 
Q 2806 3794 2456 3794 
L 1791 3794 
z
" transform="scale(0.015625)"/>
     <path id="DejaVuSans-Bold-5f" d="M 1522 4891 
L 1522 -1509 
L 813 -1509 
L 813 4891 
L 1522 4891 
z
" transform="scale(0.015625)"/>
     <path id="DejaVuSans-Bold-50" d="M 3781 2919 
Q 3994 3244 4286 3414 
Q 4578 3584 4928 3584 
Q 5531 3584 5847 3212 
Q 6163 2841 6163 2131 
L 6163 0 
L 5038 0 
L 5038 1825 
Q 5041 1866 5042 1909 
Q 5044 1953 5044 2034 
Q 5044 2406 4934 2573 
Q 4825 2741 4581 2741 
Q 4263 2741 4089 2478 
Q 3916 2216 3909 1719 
L 3909 0 
L 2784 0 
L 2784 1825 
Q 2784 2406 2684 2573 
Q 2584 2741 2328 2741 
Q 2006 2741 1831 2477 
Q 1656 2213 1656 1722 
L 1656 0 
L 531 0 
L 531 3500 
L 1656 3500 
L 1656 2988 
Q 1863 3284 2130 3434 
Q 2397 3584 2719 3584 
Q 3081 3584 3359 3409 
Q 3638 3234 3781 2919 
z
" transform="scale(0.015625)"/>
     <path id="DejaVuSans-Bold-44" d="M 2106 1575 
Q 1756 1575 1579 1456 
Q 1403 1338 1403 1106 
Q 1403 894 1545 773 
Q 1688 653 1941 653 
Q 2256 653 2472 879 
Q 2688 1106 2688 1447 
L 2688 1575 
L 2106 1575 
z
M 3816 1997 
L 3816 0 
L 2688 0 
L 2688 519 
Q 2463 200 2181 54 
Q 1900 -91 1497 -91 
Q 953 -91 614 226 
Q 275 544 275 1050 
Q 275 1666 698 1953 
Q 1122 2241 2028 2241 
L 2688 2241 
L 2688 2328 
Q 2688 2594 2478 2717 
Q 2269 2841 1825 2841 
Q 1466 2841 1156 2769 
Q 847 2697 581 2553 
L 581 3406 
Q 941 3494 1303 3539 
Q 1666 3584 2028 3584 
Q 2975 3584 3395 3211 
Q 3816 2838 3816 1997 
z
" transform="scale(0.015625)"/>
     <path id="DejaVuSans-Bold-53" d="M 1656 506 
L 1656 -1331 
L 538 -1331 
L 538 3500 
L 1656 3500 
L 1656 2988 
Q 1888 3294 2169 3439 
Q 2450 3584 2816 3584 
Q 3463 3584 3878 3070 
Q 4294 2556 4294 1747 
Q 4294 938 3878 423 
Q 3463 -91 2816 -91 
Q 2450 -91 2169 54 
Q 1888 200 1656 506 
z
M 2400 2772 
Q 2041 2772 1848 2508 
Q 1656 2244 1656 1747 
Q 1656 1250 1848 986 
Q 2041 722 2400 722 
Q 2759 722 2948 984 
Q 3138 1247 3138 1747 
Q 3138 2247 2948 2509 
Q 2759 2772 2400 2772 
z
" transform="scale(0.015625)"/>
     <path id="DejaVuSans-Bold-47" d="M 2919 2988 
L 2919 4863 
L 4044 4863 
L 4044 0 
L 2919 0 
L 2919 506 
Q 2688 197 2409 53 
Q 2131 -91 1766 -91 
Q 1119 -91 703 423 
Q 288 938 288 1747 
Q 288 2556 703 3070 
Q 1119 3584 1766 3584 
Q 2128 3584 2408 3439 
Q 2688 3294 2919 2988 
z
M 2181 722 
Q 2541 722 2730 984 
Q 2919 1247 2919 1747 
Q 2919 2247 2730 2509 
Q 2541 2772 2181 2772 
Q 1825 2772 1636 2509 
Q 1447 2247 1447 1747 
Q 1447 1247 1636 984 
Q 1825 722 2181 722 
z
" transform="scale(0.015625)"/>
     <path id="DejaVuSans-Bold-52" d="M 2203 2784 
Q 1831 2784 1636 2517 
Q 1441 2250 1441 1747 
Q 1441 1244 1636 976 
Q 1831 709 2203 709 
Q 2569 709 2762 976 
Q 2956 1244 2956 1747 
Q 2956 2250 2762 2517 
Q 2569 2784 2203 2784 
z
M 2203 3584 
Q 3106 3584 3614 3096 
Q 4122 2609 4122 1747 
Q 4122 884 3614 396 
Q 3106 -91 2203 -91 
Q 1297 -91 786 396 
Q 275 884 275 1747 
Q 275 2609 786 3096 
Q 1297 3584 2203 3584 
z
" transform="scale(0.015625)"/>
     <path id="DejaVuSans-Bold-56" d="M 3272 3391 
L 3272 2541 
Q 2913 2691 2578 2766 
Q 2244 2841 1947 2841 
Q 1628 2841 1473 2761 
Q 1319 2681 1319 2516 
Q 1319 2381 1436 2309 
Q 1553 2238 1856 2203 
L 2053 2175 
Q 2913 2066 3209 1816 
Q 3506 1566 3506 1031 
Q 3506 472 3093 190 
Q 2681 -91 1863 -91 
Q 1516 -91 1145 -36 
Q 775 19 384 128 
L 384 978 
Q 719 816 1070 734 
Q 1422 653 1784 653 
Q 2113 653 2278 743 
Q 2444 834 2444 1013 
Q 2444 1163 2330 1236 
Q 2216 1309 1875 1350 
L 1678 1375 
Q 931 1469 631 1722 
Q 331 1975 331 2491 
Q 331 3047 712 3315 
Q 1094 3584 1881 3584 
Q 2191 3584 2531 3537 
Q 2872 3491 3272 3391 
z
" transform="scale(0.015625)"/>
     <path id="DejaVuSans-Bold-48" d="M 4031 1759 
L 4031 1441 
L 1416 1441 
Q 1456 1047 1700 850 
Q 1944 653 2381 653 
Q 2734 653 3104 758 
Q 3475 863 3866 1075 
L 3866 213 
Q 3469 63 3072 -14 
Q 2675 -91 2278 -91 
Q 1328 -91 801 392 
Q 275 875 275 1747 
Q 275 2603 792 3093 
Q 1309 3584 2216 3584 
Q 3041 3584 3536 3087 
Q 4031 2591 4031 1759 
z
M 2881 2131 
Q 2881 2450 2695 2645 
Q 2509 2841 2209 2841 
Q 1884 2841 1681 2658 
Q 1478 2475 1428 2131 
L 2881 2131 
z
" transform="scale(0.015625)"/>
     <path id="DejaVuSans-Bold-55" d="M 3138 2547 
Q 2991 2616 2845 2648 
Q 2700 2681 2553 2681 
Q 2122 2681 1889 2404 
Q 1656 2128 1656 1613 
L 1656 0 
L 538 0 
L 538 3500 
L 1656 3500 
L 1656 2925 
Q 1872 3269 2151 3426 
Q 2431 3584 2822 3584 
Q 2878 3584 2943 3579 
Q 3009 3575 3134 3559 
L 3138 2547 
z
" transform="scale(0.015625)"/>
     <path id="DejaVuSans-Bold-13ab" d="M 3078 4863 
L 4206 4863 
L 4206 3950 
L 3078 3950 
L 3078 4863 
z
M 2847 4863 
L 2847 4128 
L 2228 4128 
Q 1994 4128 1903 4042 
Q 1813 3956 1813 3744 
L 1813 3500 
L 4206 3500 
L 4206 0 
L 3078 0 
L 3078 2700 
L 1813 2700 
L 1813 0 
L 684 0 
L 684 2700 
L 134 2700 
L 134 3500 
L 684 3500 
L 684 3744 
Q 684 4316 1003 4589 
Q 1322 4863 1991 4863 
L 2847 4863 
z
" transform="scale(0.015625)"/>
     <path id="DejaVuSans-Bold-46" d="M 3366 3391 
L 3366 2478 
Q 3138 2634 2908 2709 
Q 2678 2784 2431 2784 
Q 1963 2784 1702 2511 
Q 1441 2238 1441 1747 
Q 1441 1256 1702 982 
Q 1963 709 2431 709 
Q 2694 709 2930 787 
Q 3166 866 3366 1019 
L 3366 103 
Q 3103 6 2833 -42 
Q 2563 -91 2291 -91 
Q 1344 -91 809 395 
Q 275 881 275 1747 
Q 275 2613 809 3098 
Q 1344 3584 2291 3584 
Q 2566 3584 2833 3536 
Q 3100 3488 3366 3391 
z
" transform="scale(0.015625)"/>
     <path id="DejaVuSans-Bold-58" d="M 500 1363 
L 500 3500 
L 1625 3500 
L 1625 3150 
Q 1625 2866 1622 2436 
Q 1619 2006 1619 1863 
Q 1619 1441 1641 1255 
Q 1663 1069 1716 984 
Q 1784 875 1895 815 
Q 2006 756 2150 756 
Q 2500 756 2700 1025 
Q 2900 1294 2900 1772 
L 2900 3500 
L 4019 3500 
L 4019 0 
L 2900 0 
L 2900 506 
Q 2647 200 2364 54 
Q 2081 -91 1741 -91 
Q 1134 -91 817 281 
Q 500 653 500 1363 
z
" transform="scale(0.015625)"/>
    </defs>
    <use xlink:href="#DejaVuSans-Bold-27"/>
    <use xlink:href="#DejaVuSans-Bold-28" transform="translate(83.015625 0)"/>
    <use xlink:href="#DejaVuSans-Bold-35" transform="translate(151.328125 0)"/>
    <use xlink:href="#DejaVuSans-Bold-10" transform="translate(228.328125 0)"/>
    <use xlink:href="#DejaVuSans-Bold-28" transform="translate(269.828125 0)"/>
    <use xlink:href="#DejaVuSans-Bold-36" transform="translate(338.140625 0)"/>
    <use xlink:href="#DejaVuSans-Bold-3" transform="translate(410.15625 0)"/>
    <use xlink:href="#DejaVuSans-Bold-12" transform="translate(444.96875 0)"/>
    <use xlink:href="#DejaVuSans-Bold-3" transform="translate(481.5 0)"/>
    <use xlink:href="#DejaVuSans-Bold-2c" transform="translate(516.3125 0)"/>
    <use xlink:href="#DejaVuSans-Bold-32" transform="translate(553.515625 0)"/>
    <use xlink:href="#DejaVuSans-Bold-33" transform="translate(638.53125 0)"/>
    <use xlink:href="#DejaVuSans-Bold-28" transform="translate(711.828125 0)"/>
    <use xlink:href="#DejaVuSans-Bold-36" transform="translate(780.140625 0)"/>
    <use xlink:href="#DejaVuSans-Bold-3" transform="translate(852.15625 0)"/>
    <use xlink:href="#DejaVuSans-Bold-5f" transform="translate(886.96875 0)"/>
    <use xlink:href="#DejaVuSans-Bold-3" transform="translate(923.5 0)"/>
    <use xlink:href="#DejaVuSans-Bold-50" transform="translate(958.3125 0)"/>
    <use xlink:href="#DejaVuSans-Bold-44" transform="translate(1062.515625 0)"/>
    <use xlink:href="#DejaVuSans-Bold-53" transform="translate(1130 0)"/>
    <use xlink:href="#DejaVuSans-Bold-44" transform="translate(1201.578125 0)"/>
    <use xlink:href="#DejaVuSans-Bold-3" transform="translate(1269.0625 0)"/>
    <use xlink:href="#DejaVuSans-Bold-47" transform="translate(1303.875 0)"/>
    <use xlink:href="#DejaVuSans-Bold-52" transform="translate(1375.453125 0)"/>
    <use xlink:href="#DejaVuSans-Bold-56" transform="translate(1444.15625 0)"/>
    <use xlink:href="#DejaVuSans-Bold-3" transform="translate(1503.671875 0)"/>
    <use xlink:href="#DejaVuSans-Bold-53" transform="translate(1538.484375 0)"/>
    <use xlink:href="#DejaVuSans-Bold-48" transform="translate(1610.0625 0)"/>
    <use xlink:href="#DejaVuSans-Bold-55" transform="translate(1677.890625 0)"/>
    <use xlink:href="#DejaVuSans-Bold-13ab" transform="translate(1727.203125 0)"/>
    <use xlink:href="#DejaVuSans-Bold-56" transform="translate(1801.328125 0)"/>
    <use xlink:href="#DejaVuSans-Bold-3" transform="translate(1860.84375 0)"/>
    <use xlink:href="#DejaVuSans-Bold-47" transform="translate(1895.65625 0)"/>
    <use xlink:href="#DejaVuSans-Bold-48" transform="translate(1967.234375 0)"/>
    <use xlink:href="#DejaVuSans-Bold-3" transform="translate(2035.0625 0)"/>
    <use xlink:href="#DejaVuSans-Bold-55" transform="translate(2069.875 0)"/>
    <use xlink:href="#DejaVuSans-Bold-48" transform="translate(2119.1875 0)"/>
    <use xlink:href="#DejaVuSans-Bold-46" transform="translate(2187.015625 0)"/>
    <use xlink:href="#DejaVuSans-Bold-58" transform="translate(2246.296875 0)"/>
    <use xlink:href="#DejaVuSans-Bold-55" transform="translate(2317.484375 0)"/>
    <use xlink:href="#DejaVuSans-Bold-56" transform="translate(2366.796875 0)"/>
    <use xlink:href="#DejaVuSans-Bold-52" transform="translate(2426.3125 0)"/>
    <use xlink:href="#DejaVuSans-Bold-56" transform="translate(2495.015625 0)"/>
   </g>
   <!-- diagnóstico, sem k aceito | k=2; cada ponto = um serviço -->
   <g transform="translate(52.968354 34.559668) scale(0.13 -0.13)">
    <defs>
     <path id="DejaVuSans-Bold-4c" d="M 538 3500 
L 1656 3500 
L 1656 0 
L 538 0 
L 538 3500 
z
M 538 4863 
L 1656 4863 
L 1656 3950 
L 538 3950 
L 538 4863 
z
" transform="scale(0.015625)"/>
     <path id="DejaVuSans-Bold-4a" d="M 2919 594 
Q 2688 288 2409 144 
Q 2131 0 1766 0 
Q 1125 0 706 504 
Q 288 1009 288 1791 
Q 288 2575 706 3076 
Q 1125 3578 1766 3578 
Q 2131 3578 2409 3434 
Q 2688 3291 2919 2981 
L 2919 3500 
L 4044 3500 
L 4044 353 
Q 4044 -491 3511 -936 
Q 2978 -1381 1966 -1381 
Q 1638 -1381 1331 -1331 
Q 1025 -1281 716 -1178 
L 716 -306 
Q 1009 -475 1290 -558 
Q 1572 -641 1856 -641 
Q 2406 -641 2662 -400 
Q 2919 -159 2919 353 
L 2919 594 
z
M 2181 2772 
Q 1834 2772 1640 2515 
Q 1447 2259 1447 1791 
Q 1447 1309 1634 1061 
Q 1822 813 2181 813 
Q 2531 813 2725 1069 
Q 2919 1325 2919 1791 
Q 2919 2259 2725 2515 
Q 2531 2772 2181 2772 
z
" transform="scale(0.015625)"/>
     <path id="DejaVuSans-Bold-51" d="M 4056 2131 
L 4056 0 
L 2931 0 
L 2931 347 
L 2931 1631 
Q 2931 2084 2911 2256 
Q 2891 2428 2841 2509 
Q 2775 2619 2662 2680 
Q 2550 2741 2406 2741 
Q 2056 2741 1856 2470 
Q 1656 2200 1656 1722 
L 1656 0 
L 538 0 
L 538 3500 
L 1656 3500 
L 1656 2988 
Q 1909 3294 2193 3439 
Q 2478 3584 2822 3584 
Q 3428 3584 3742 3212 
Q 4056 2841 4056 2131 
z
" transform="scale(0.015625)"/>
     <path id="DejaVuSans-Bold-b5" d="M 2203 2784 
Q 1831 2784 1636 2517 
Q 1441 2250 1441 1747 
Q 1441 1244 1636 976 
Q 1831 709 2203 709 
Q 2569 709 2762 976 
Q 2956 1244 2956 1747 
Q 2956 2250 2762 2517 
Q 2569 2784 2203 2784 
z
M 2203 3584 
Q 3106 3584 3614 3096 
Q 4122 2609 4122 1747 
Q 4122 884 3614 396 
Q 3106 -91 2203 -91 
Q 1297 -91 786 396 
Q 275 884 275 1747 
Q 275 2609 786 3096 
Q 1297 3584 2203 3584 
z
M 2694 5119 
L 3578 5119 
L 2425 3944 
L 1813 3944 
L 2694 5119 
z
" transform="scale(0.015625)"/>
     <path id="DejaVuSans-Bold-57" d="M 1759 4494 
L 1759 3500 
L 2913 3500 
L 2913 2700 
L 1759 2700 
L 1759 1216 
Q 1759 972 1856 886 
Q 1953 800 2241 800 
L 2816 800 
L 2816 0 
L 1856 0 
Q 1194 0 917 276 
Q 641 553 641 1216 
L 641 2700 
L 84 2700 
L 84 3500 
L 641 3500 
L 641 4494 
L 1759 4494 
z
" transform="scale(0.015625)"/>
     <path id="DejaVuSans-Bold-f" d="M 653 1209 
L 1778 1209 
L 1778 256 
L 1006 -909 
L 341 -909 
L 653 256 
L 653 1209 
z
" transform="scale(0.015625)"/>
     <path id="DejaVuSans-Bold-4e" d="M 538 4863 
L 1656 4863 
L 1656 2216 
L 2944 3500 
L 4244 3500 
L 2534 1894 
L 4378 0 
L 3022 0 
L 1656 1459 
L 1656 0 
L 538 0 
L 538 4863 
z
" transform="scale(0.015625)"/>
     <path id="DejaVuSans-Bold-20" d="M 678 3084 
L 4684 3084 
L 4684 2350 
L 678 2350 
L 678 3084 
z
M 678 1663 
L 4684 1663 
L 4684 922 
L 678 922 
L 678 1663 
z
" transform="scale(0.015625)"/>
     <path id="DejaVuSans-Bold-15" d="M 1844 884 
L 3897 884 
L 3897 0 
L 506 0 
L 506 884 
L 2209 2388 
Q 2438 2594 2547 2791 
Q 2656 2988 2656 3200 
Q 2656 3528 2436 3728 
Q 2216 3928 1850 3928 
Q 1569 3928 1234 3808 
Q 900 3688 519 3450 
L 519 4475 
Q 925 4609 1322 4679 
Q 1719 4750 2100 4750 
Q 2938 4750 3402 4381 
Q 3866 4013 3866 3353 
Q 3866 2972 3669 2642 
Q 3472 2313 2841 1759 
L 1844 884 
z
" transform="scale(0.015625)"/>
     <path id="DejaVuSans-Bold-1e" d="M 716 1209 
L 1844 1209 
L 1844 256 
L 1069 -909 
L 403 -909 
L 716 256 
L 716 1209 
z
M 716 3500 
L 1844 3500 
L 1844 2291 
L 716 2291 
L 716 3500 
z
" transform="scale(0.015625)"/>
     <path id="DejaVuSans-Bold-59" d="M 97 3500 
L 1216 3500 
L 2088 1081 
L 2956 3500 
L 4078 3500 
L 2700 0 
L 1472 0 
L 97 3500 
z
" transform="scale(0.015625)"/>
     <path id="DejaVuSans-Bold-a9" d="M 3366 3391 
L 3366 2478 
Q 3138 2634 2908 2709 
Q 2678 2784 2431 2784 
Q 1963 2784 1702 2511 
Q 1441 2238 1441 1747 
Q 1441 1256 1702 982 
Q 1963 709 2431 709 
Q 2694 709 2930 787 
Q 3166 866 3366 1019 
L 3366 103 
Q 3103 6 2833 -42 
Q 2563 -91 2291 -91 
Q 1344 -91 809 395 
Q 275 881 275 1747 
Q 275 2613 809 3098 
Q 1344 3584 2291 3584 
Q 2566 3584 2833 3536 
Q 3100 3488 3366 3391 
z
M 2456 0 
Q 2638 -194 2723 -359 
Q 2809 -525 2809 -672 
Q 2809 -969 2617 -1111 
Q 2425 -1253 2028 -1253 
Q 1878 -1253 1718 -1233 
Q 1559 -1213 1397 -1172 
L 1394 -697 
Q 1550 -747 1679 -770 
Q 1809 -794 1913 -794 
Q 2094 -794 2195 -722 
Q 2297 -650 2297 -525 
Q 2297 -444 2230 -316 
Q 2163 -188 2022 0 
L 2456 0 
z
" transform="scale(0.015625)"/>
    </defs>
    <use xlink:href="#DejaVuSans-Bold-47"/>
    <use xlink:href="#DejaVuSans-Bold-4c" transform="translate(71.578125 0)"/>
    <use xlink:href="#DejaVuSans-Bold-44" transform="translate(105.859375 0)"/>
    <use xlink:href="#DejaVuSans-Bold-4a" transform="translate(173.34375 0)"/>
    <use xlink:href="#DejaVuSans-Bold-51" transform="translate(244.921875 0)"/>
    <use xlink:href="#DejaVuSans-Bold-b5" transform="translate(316.109375 0)"/>
    <use xlink:href="#DejaVuSans-Bold-56" transform="translate(384.8125 0)"/>
    <use xlink:href="#DejaVuSans-Bold-57" transform="translate(444.328125 0)"/>
    <use xlink:href="#DejaVuSans-Bold-4c" transform="translate(492.125 0)"/>
    <use xlink:href="#DejaVuSans-Bold-46" transform="translate(526.40625 0)"/>
    <use xlink:href="#DejaVuSans-Bold-52" transform="translate(585.6875 0)"/>
    <use xlink:href="#DejaVuSans-Bold-f" transform="translate(654.390625 0)"/>
    <use xlink:href="#DejaVuSans-Bold-3" transform="translate(692.375 0)"/>
    <use xlink:href="#DejaVuSans-Bold-56" transform="translate(727.1875 0)"/>
    <use xlink:href="#DejaVuSans-Bold-48" transform="translate(786.703125 0)"/>
    <use xlink:href="#DejaVuSans-Bold-50" transform="translate(854.53125 0)"/>
    <use xlink:href="#DejaVuSans-Bold-3" transform="translate(958.734375 0)"/>
    <use xlink:href="#DejaVuSans-Bold-4e" transform="translate(993.546875 0)"/>
    <use xlink:href="#DejaVuSans-Bold-3" transform="translate(1060.046875 0)"/>
    <use xlink:href="#DejaVuSans-Bold-44" transform="translate(1094.859375 0)"/>
    <use xlink:href="#DejaVuSans-Bold-46" transform="translate(1162.34375 0)"/>
    <use xlink:href="#DejaVuSans-Bold-48" transform="translate(1221.625 0)"/>
    <use xlink:href="#DejaVuSans-Bold-4c" transform="translate(1289.453125 0)"/>
    <use xlink:href="#DejaVuSans-Bold-57" transform="translate(1323.734375 0)"/>
    <use xlink:href="#DejaVuSans-Bold-52" transform="translate(1371.53125 0)"/>
    <use xlink:href="#DejaVuSans-Bold-3" transform="translate(1440.234375 0)"/>
    <use xlink:href="#DejaVuSans-Bold-5f" transform="translate(1475.046875 0)"/>
    <use xlink:href="#DejaVuSans-Bold-3" transform="translate(1511.578125 0)"/>
    <use xlink:href="#DejaVuSans-Bold-4e" transform="translate(1546.390625 0)"/>
    <use xlink:href="#DejaVuSans-Bold-20" transform="translate(1612.890625 0)"/>
    <use xlink:href="#DejaVuSans-Bold-15" transform="translate(1696.6875 0)"/>
    <use xlink:href="#DejaVuSans-Bold-1e" transform="translate(1766.265625 0)"/>
    <use xlink:href="#DejaVuSans-Bold-3" transform="translate(1806.25 0)"/>
    <use xlink:href="#DejaVuSans-Bold-46" transform="translate(1841.0625 0)"/>
    <use xlink:href="#DejaVuSans-Bold-44" transform="translate(1900.34375 0)"/>
    <use xlink:href="#DejaVuSans-Bold-47" transform="translate(1967.828125 0)"/>
    <use xlink:href="#DejaVuSans-Bold-44" transform="translate(2039.40625 0)"/>
    <use xlink:href="#DejaVuSans-Bold-3" transform="translate(2106.890625 0)"/>
    <use xlink:href="#DejaVuSans-Bold-53" transform="translate(2141.703125 0)"/>
    <use xlink:href="#DejaVuSans-Bold-52" transform="translate(2213.28125 0)"/>
    <use xlink:href="#DejaVuSans-Bold-51" transform="translate(2281.984375 0)"/>
    <use xlink:href="#DejaVuSans-Bold-57" transform="translate(2353.171875 0)"/>
    <use xlink:href="#DejaVuSans-Bold-52" transform="translate(2400.96875 0)"/>
    <use xlink:href="#DejaVuSans-Bold-3" transform="translate(2469.671875 0)"/>
    <use xlink:href="#DejaVuSans-Bold-20" transform="translate(2504.484375 0)"/>
    <use xlink:href="#DejaVuSans-Bold-3" transform="translate(2588.28125 0)"/>
    <use xlink:href="#DejaVuSans-Bold-58" transform="translate(2623.09375 0)"/>
    <use xlink:href="#DejaVuSans-Bold-50" transform="translate(2694.28125 0)"/>
    <use xlink:href="#DejaVuSans-Bold-3" transform="translate(2798.484375 0)"/>
    <use xlink:href="#DejaVuSans-Bold-56" transform="translate(2833.296875 0)"/>
    <use xlink:href="#DejaVuSans-Bold-48" transform="translate(2892.8125 0)"/>
    <use xlink:href="#DejaVuSans-Bold-55" transform="translate(2960.640625 0)"/>
    <use xlink:href="#DejaVuSans-Bold-59" transform="translate(3009.953125 0)"/>
    <use xlink:href="#DejaVuSans-Bold-4c" transform="translate(3075.140625 0)"/>
    <use xlink:href="#DejaVuSans-Bold-a9" transform="translate(3109.421875 0)"/>
    <use xlink:href="#DejaVuSans-Bold-52" transform="translate(3168.703125 0)"/>
   </g>
  </g>
 </g>
 <defs>
  <clipPath id="pb89ce38526">
   <rect x="45.416406" y="44.984464" width="474.183114" height="218.974196"/>
  </clipPath>
 </defs>
</svg>
